<svg xmlns="http://www.w3.org/2000/svg" viewBox="0 0 550.11 408.1"><defs><style>.cls-1{fill:#e8f4ff;}.cls-2{opacity:0.46;}.cls-3{fill:#bfd9ff;}.cls-17,.cls-18,.cls-19,.cls-29,.cls-30,.cls-32,.cls-39,.cls-4,.cls-40,.cls-41,.cls-5,.cls-7{fill:none;}.cls-4{stroke:#a9c2ff;}.cls-19,.cls-4{stroke-linecap:round;stroke-linejoin:round;stroke-width:3.45px;}.cls-5{stroke:#84aee5;}.cls-17,.cls-18,.cls-29,.cls-30,.cls-32,.cls-39,.cls-40,.cls-41,.cls-5,.cls-7{stroke-miterlimit:10;}.cls-18,.cls-29,.cls-32,.cls-5,.cls-7{stroke-width:1.15px;}.cls-6{fill:#8dbcf8;}.cls-7{stroke:#7094d8;}.cls-8{fill:#a5c5ff;}.cls-9{fill:#b7deff;}.cls-10{fill:#023f61;}.cls-11{fill:#bebecf;}.cls-12{fill:#dee0e8;}.cls-13{fill:#fb8e74;}.cls-14{fill:#fb8877;}.cls-15{fill:#713336;}.cls-16{fill:#fba990;}.cls-17{stroke:#022755;stroke-width:0.49px;}.cls-18{stroke:#fff;}.cls-19{stroke:#73a5ff;}.cls-20{fill:#edf4ff;}.cls-21{fill:#ebedfc;}.cls-22{fill:#fff;}.cls-23{fill:#73a5ff;}.cls-24{fill:#024470;}.cls-25{fill:#45242c;}.cls-26{fill:#ff8d68;}.cls-27{fill:#ff7759;}.cls-28{fill:#e86d5e;}.cls-29{stroke:#bb524f;}.cls-30{stroke:#e66657;}.cls-30,.cls-39,.cls-40{stroke-width:1.03px;}.cls-31{fill:#fa6157;}.cls-32{stroke:#562525;}.cls-33{fill:#2d2737;}.cls-34{fill:#3d4776;}.cls-35{fill:#51598d;}.cls-36{fill:#7e78c7;}.cls-37{fill:#c53a45;}.cls-38{fill:#3e3343;}.cls-39{stroke:#2a2e59;}.cls-40{stroke:#524b81;}.cls-41{stroke:#a03a45;stroke-width:1.37px;}</style></defs><g id="Layer_2" data-name="Layer 2"><g id="OBJECTS"><path class="cls-1" d="M64.34,76.66s50.19-43.91,111.88-23S286,169.72,345.61,172.86s115-29.28,162.07-1.05,55.42,150.57-34.5,163.12-140.12-32.41-178.8-30.32-132.8,49.14-207,28.23S-53.81,167.63,64.34,76.66Z"/><g class="cls-2"><path class="cls-3" d="M399.67,83.84H185.13a3.44,3.44,0,0,1-3.33-4.31l20-76.95A3.43,3.43,0,0,1,205.16,0H419.7A3.45,3.45,0,0,1,423,4.31l-20,77A3.45,3.45,0,0,1,399.67,83.84Z"/><line class="cls-4" x1="214.56" y1="16.46" x2="289.21" y2="16.46"/><line class="cls-4" x1="208.81" y1="50.92" x2="283.47" y2="50.92"/><line class="cls-4" x1="240.21" y1="37.9" x2="314.86" y2="37.9"/><line class="cls-4" x1="212.64" y1="27.95" x2="235.04" y2="27.95"/><line class="cls-4" x1="209.58" y1="37.9" x2="231.98" y2="37.9"/><line class="cls-4" x1="301.08" y1="16.46" x2="327.68" y2="16.46"/><path class="cls-5" d="M314.12,67.08H274.38a.3.3,0,0,1-.29-.38l1.78-6.83a.29.29,0,0,1,.29-.23h39.73a.31.31,0,0,1,.3.38l-1.78,6.83A.3.3,0,0,1,314.12,67.08Z"/><path class="cls-5" d="M264.73,67.08H225a.31.31,0,0,1-.3-.38l1.78-6.83a.31.31,0,0,1,.3-.23h39.73a.3.3,0,0,1,.29.38L265,66.85A.31.31,0,0,1,264.73,67.08Z"/><path class="cls-6" d="M384,57.18c-2-2.72-10.3-4.69-12.58-7.4-1.17-1.39-1.17-4-.89-6.15a8.63,8.63,0,0,0,1.89-1.52,38.2,38.2,0,0,0,2.23-3.94,1.26,1.26,0,0,0,.95.39c1.09,0,5.22-5.65,4.15-7-.61-.75-1.59-.1-2.32.59,1.09-2.5,1.86-4.42,1.86-4.42h0c.1-.32.2-.64.28-1,1.64-6.57-2.36-11.9-8.93-11.9s-13.23,5.33-14.87,11.9c-.08.32-.14.64-.19,1h-.05s-.18,1.92-.34,4.42c-.39-.69-1.05-1.34-2-.59-1.71,1.3-.38,6.92.68,7a2,2,0,0,0,1.15-.39,25.15,25.15,0,0,0,.27,3.94A4.91,4.91,0,0,0,356.69,44a13.35,13.35,0,0,1-3.82,5.81c-3.64,2.71-12.88,4.68-16.27,7.4-3.05,2.44-5.77,9.56-6.28,11h54.44C385,66.74,385.78,59.62,384,57.18Z"/></g><path class="cls-7" d="M362.35,145.1H147.81a3.45,3.45,0,0,1-3.34-4.32l20-76.95a3.44,3.44,0,0,1,3.33-2.58H382.38a3.45,3.45,0,0,1,3.33,4.32l-20,77A3.43,3.43,0,0,1,362.35,145.1Z"/><path class="cls-8" d="M358.33,139.35H143.79a3.44,3.44,0,0,1-3.34-4.31l20-76.95a3.45,3.45,0,0,1,3.33-2.58H378.36a3.44,3.44,0,0,1,3.33,4.31l-20,77A3.43,3.43,0,0,1,358.33,139.35Z"/><line class="cls-7" x1="211.11" y1="139.35" x2="318.5" y2="139.35"/><line class="cls-7" x1="181.25" y1="55.51" x2="271.98" y2="55.51"/><path class="cls-9" d="M341,127.87H292.77a3,3,0,0,1-3-4L301.92,75a5.5,5.5,0,0,1,5-4h48.24a3,3,0,0,1,3,4L346,123.85A5.49,5.49,0,0,1,341,127.87Z"/><path class="cls-10" d="M317.33,128.06l4.23-16.93-6.93-2.93s-12.89,4.72-14,5.86c-.92,1-5.55,10.83-7,14Z"/><path class="cls-10" d="M341.22,128.06c.1-3.17.4-13-.05-14-.53-1.14-11.07-5.86-11.07-5.86l-8.38,2.93-4.22,16.93Z"/><polygon class="cls-11" points="321.7 128.06 328.31 113.41 314.11 114.22 312.72 128.06 321.7 128.06"/><polygon class="cls-12" points="317.2 105.11 314.1 107.06 312.07 111.94 311.55 118.62 315.9 116.83 319.28 120.9 323.8 117.15 326.57 119.76 330.75 110.8 330.02 105.27 328.27 104.45 317.2 105.11"/><path class="cls-13" d="M318.15,92.29A2,2,0,0,0,315,91.5c-2.13,1.57.36,7.63,1.9,5.81S318.15,92.29,318.15,92.29Z"/><path class="cls-13" d="M333.33,92.16s2-2.5,3.55-1.1-3.5,7.81-4.32,6.1S333.33,92.16,333.33,92.16Z"/><path class="cls-14" d="M328.58,109.83l2.18-11.56-12.61,1.1-2.79,10.85s2.21,5.14,4.57,7.42C319.93,117.64,327.27,111.3,328.58,109.83Z"/><path class="cls-15" d="M338.81,87.5c-.47,1.4-1.63,1.75-1.72,2.57a8,8,0,0,1-1.41,3.75,6.92,6.92,0,0,1-1.21,1.06s-10.82,3-16.31-1.17a9.55,9.55,0,0,1,0-3.52c.38-1.89-.54-2.22.52-3.16a3.54,3.54,0,0,0,1.42-2.81,4.45,4.45,0,0,1,1.2-3.4c1.1-1,2.08-.7,3.15-1.64,0,0,1.58-2.65,3.66-3s6.48-1.41,9.09,1.81,1.41,6,2.17,7S338.81,87.5,338.81,87.5Z"/><path class="cls-16" d="M318.06,90.3s-5.1,14.06,4.51,15.11c8.5.2,11.52-10.17,12.73-15.48S335.77,79,329,79.23,318.81,87.15,318.06,90.3Z"/><path class="cls-15" d="M320.73,85.25a2.6,2.6,0,0,1,0,2.27c-.58,1.13-2.17,1.57-2.4,3.07s-.94,4.62-1.36,4.76-.12-3,0-4.14a18.4,18.4,0,0,1,3.15-8.47c2.27-2.86,3.67-4.07,7.71-4.73s7.09,1,8.22,3.51-.68,8.74-.68,8.74.27-3-.73-3.69S332.82,85.36,333,85s-3.2,1.07-6.56,0-4.45-.59-5-.24A2.38,2.38,0,0,0,320.73,85.25Z"/><path class="cls-17" d="M311.22,112.1c-.08.33-4.69,11.32-4.69,11.32l4.05,2-1.14,2.28"/><path class="cls-17" d="M331.16,112.1c-.08.33-1,11.32-1,11.32l-5.06,2v2.28"/><path class="cls-18" d="M341,127.87H292.77a3,3,0,0,1-3-4L301.92,75a5.5,5.5,0,0,1,5-4h48.24a3,3,0,0,1,3,4L346,123.85A5.49,5.49,0,0,1,341,127.87Z"/><line class="cls-19" x1="173.21" y1="73.89" x2="247.86" y2="73.89"/><line class="cls-19" x1="167.47" y1="108.34" x2="242.12" y2="108.34"/><line class="cls-19" x1="198.86" y1="95.33" x2="273.51" y2="95.33"/><line class="cls-19" x1="171.3" y1="85.37" x2="193.69" y2="85.37"/><line class="cls-19" x1="168.23" y1="95.33" x2="190.63" y2="95.33"/><line class="cls-19" x1="259.73" y1="73.89" x2="286.34" y2="73.89"/><path class="cls-7" d="M272.77,124.51H233a.31.31,0,0,1-.3-.39l1.78-6.83a.31.31,0,0,1,.3-.23h39.73a.31.31,0,0,1,.29.39l-1.77,6.83A.32.32,0,0,1,272.77,124.51Z"/><path class="cls-7" d="M223.38,124.51H183.65a.3.3,0,0,1-.29-.39l1.77-6.83a.32.32,0,0,1,.3-.23h39.73a.31.31,0,0,1,.3.39l-1.78,6.83A.32.32,0,0,1,223.38,124.51Z"/><line class="cls-7" x1="269.11" y1="46.9" x2="315.63" y2="46.9"/><path class="cls-3" d="M360.63,249.23H146.08a3.45,3.45,0,0,1-3.33-4.32l20-76.95a3.43,3.43,0,0,1,3.33-2.57H380.65A3.44,3.44,0,0,1,384,169.7l-20,77A3.45,3.45,0,0,1,360.63,249.23Z"/><line class="cls-4" x1="175.51" y1="181.85" x2="250.16" y2="181.85"/><line class="cls-4" x1="169.76" y1="216.3" x2="244.42" y2="216.3"/><line class="cls-4" x1="201.16" y1="203.29" x2="275.81" y2="203.29"/><line class="cls-4" x1="173.59" y1="193.33" x2="195.99" y2="193.33"/><line class="cls-4" x1="170.53" y1="203.29" x2="192.93" y2="203.29"/><line class="cls-4" x1="262.03" y1="181.85" x2="288.64" y2="181.85"/><path class="cls-5" d="M275.07,232.47H235.33a.31.31,0,0,1-.29-.39l1.78-6.83a.3.3,0,0,1,.29-.23h39.73a.31.31,0,0,1,.3.39l-1.78,6.83A.3.3,0,0,1,275.07,232.47Z"/><path class="cls-5" d="M225.68,232.47H186a.31.31,0,0,1-.3-.39l1.78-6.83a.32.32,0,0,1,.3-.23h39.73a.31.31,0,0,1,.29.39L226,232.24A.32.32,0,0,1,225.68,232.47Z"/><path class="cls-6" d="M344.9,222.56c-2-2.71-10.3-4.68-12.58-7.4-1.17-1.38-1.17-4-.89-6.15a8.63,8.63,0,0,0,1.89-1.52,36.18,36.18,0,0,0,2.23-3.94,1.3,1.3,0,0,0,.95.4c1.09,0,5.22-5.66,4.15-7-.61-.74-1.59-.1-2.32.59,1.09-2.5,1.86-4.42,1.86-4.42h0c.1-.31.2-.63.28-.95,1.64-6.58-2.36-11.9-8.93-11.9s-13.23,5.32-14.87,11.9c-.08.32-.14.64-.19.95h-.05s-.18,1.92-.34,4.42c-.38-.69-1.05-1.33-2-.59-1.71,1.3-.38,6.93.68,7a2.08,2.08,0,0,0,1.15-.4,25,25,0,0,0,.27,3.94,4.93,4.93,0,0,0,1.52,1.87,13.26,13.26,0,0,1-3.82,5.8c-3.63,2.72-12.88,4.69-16.27,7.4-3.05,2.44-5.77,9.57-6.28,11h54.44C345.9,232.13,346.73,225,344.9,222.56Z"/><g class="cls-2"><path class="cls-3" d="M338.42,351.83H123.88a3.45,3.45,0,0,1-3.34-4.32l20-76.95a3.46,3.46,0,0,1,3.34-2.57H358.45a3.44,3.44,0,0,1,3.33,4.31l-20,76.95A3.43,3.43,0,0,1,338.42,351.83Z"/><line class="cls-4" x1="153.3" y1="284.45" x2="227.96" y2="284.45"/><line class="cls-4" x1="147.56" y1="318.9" x2="222.21" y2="318.9"/><line class="cls-4" x1="178.95" y1="305.89" x2="253.61" y2="305.89"/><line class="cls-4" x1="151.39" y1="295.93" x2="173.78" y2="295.93"/><line class="cls-4" x1="148.33" y1="305.89" x2="170.72" y2="305.89"/><line class="cls-4" x1="239.82" y1="284.45" x2="266.43" y2="284.45"/><path class="cls-5" d="M252.86,335.07H213.13a.31.31,0,0,1-.3-.39l1.78-6.83a.32.32,0,0,1,.3-.23h39.73a.31.31,0,0,1,.3.39l-1.78,6.83A.32.32,0,0,1,252.86,335.07Z"/><path class="cls-5" d="M203.48,335.07H163.74a.31.31,0,0,1-.29-.39l1.78-6.83a.3.3,0,0,1,.29-.23h39.73a.31.31,0,0,1,.3.39l-1.78,6.83A.31.31,0,0,1,203.48,335.07Z"/><path class="cls-6" d="M322.69,325.16c-2-2.71-10.3-4.68-12.58-7.4-1.16-1.38-1.16-4-.89-6.15a8.39,8.39,0,0,0,1.89-1.52,36.07,36.07,0,0,0,2.24-3.94,1.28,1.28,0,0,0,.95.4c1.08,0,5.21-5.66,4.15-7-.61-.74-1.59-.1-2.32.59,1.09-2.5,1.86-4.42,1.86-4.42h0c.1-.31.2-.63.28-.95,1.63-6.57-2.36-11.9-8.94-11.9s-13.22,5.33-14.86,11.9c-.08.32-.14.64-.2.95h0s-.19,1.92-.34,4.42c-.39-.69-1.05-1.33-2-.59-1.72,1.3-.39,6.93.68,7a2.08,2.08,0,0,0,1.15-.4,23.81,23.81,0,0,0,.27,3.94,4.83,4.83,0,0,0,1.52,1.87c-.82,2.11-2.06,4.49-3.82,5.8-3.64,2.72-12.89,4.69-16.27,7.4-3.05,2.44-5.77,9.57-6.29,11h54.45C323.69,334.73,324.53,327.6,322.69,325.16Z"/></g><line class="cls-7" x1="295.53" y1="352.21" x2="333.81" y2="352.21"/><line class="cls-7" x1="165.36" y1="249.61" x2="256.48" y2="249.61"/><line class="cls-7" x1="277.34" y1="249.61" x2="299.55" y2="249.61"/><path class="cls-7" d="M373.24,165.77h7.7a3.36,3.36,0,0,1,3.21,4.35L380.9,180.7"/><path class="cls-3" d="M129.49,30.47h-3.93a1.35,1.35,0,0,1-1.34-1.79l1-3.93A2.43,2.43,0,0,1,127.43,23h3.92a1.34,1.34,0,0,1,1.34,1.78l-1,3.93A2.45,2.45,0,0,1,129.49,30.47Z"/><path class="cls-20" d="M126.62,42h-3.93a1.35,1.35,0,0,1-1.34-1.79l1-3.92a2.43,2.43,0,0,1,2.23-1.79h3.92a1.35,1.35,0,0,1,1.34,1.79l-1,3.92A2.45,2.45,0,0,1,126.62,42Z"/><path class="cls-3" d="M139.11,42h-3.93a1.36,1.36,0,0,1-1.34-1.79l1-3.92a2.45,2.45,0,0,1,2.23-1.79H141a1.36,1.36,0,0,1,1.34,1.79l-1,3.92A2.45,2.45,0,0,1,139.11,42Z"/><path class="cls-20" d="M151.6,42h-3.93a1.36,1.36,0,0,1-1.34-1.79l1-3.92a2.45,2.45,0,0,1,2.23-1.79h3.93a1.36,1.36,0,0,1,1.34,1.79l-1,3.92A2.44,2.44,0,0,1,151.6,42Z"/><path class="cls-20" d="M123.68,53.76h-3.93A1.36,1.36,0,0,1,118.41,52l1-3.93a2.45,2.45,0,0,1,2.23-1.78h3.93A1.35,1.35,0,0,1,126.89,48l-1,3.93A2.45,2.45,0,0,1,123.68,53.76Z"/><path class="cls-20" d="M120.54,66.34h-3.92a1.35,1.35,0,0,1-1.34-1.79l1-3.92a2.43,2.43,0,0,1,2.22-1.79h3.93a1.35,1.35,0,0,1,1.34,1.79l-1,3.92A2.43,2.43,0,0,1,120.54,66.34Z"/><path class="cls-20" d="M136.17,53.76h-3.92A1.35,1.35,0,0,1,130.91,52l1-3.93a2.45,2.45,0,0,1,2.23-1.78H138A1.34,1.34,0,0,1,139.38,48l-1,3.93A2.43,2.43,0,0,1,136.17,53.76Z"/><path class="cls-3" d="M130.7,75.71h-3.93a1.36,1.36,0,0,1-1.34-1.79l1-3.92a2.45,2.45,0,0,1,2.23-1.79h3.93A1.36,1.36,0,0,1,133.91,70l-1,3.92A2.45,2.45,0,0,1,130.7,75.71Z"/><path class="cls-21" d="M192.46,7.61h-.24c-.4,0-.81,0-1.23,0-11.64,0-23.42,9.33-26.52,20.92l-.14.56h0a1,1,0,0,1,0,.17l-.08.36h0c-2.56,11.75,5,21.1,17,20.61,11-.45,22.1-9.23,25.41-20.12C210.25,18.25,203.73,8.4,192.46,7.61Zm8,22c-2.33,7.74-10.26,14-18.07,14.24-8.39.26-13.63-6.25-11.9-14.44l.25-1h0c2.23-8.11,10.5-14.63,18.66-14.63a12.41,12.41,0,0,1,1.24.06C198.46,14.56,203,21.42,200.49,29.65Z"/><path class="cls-8" d="M191.31,11.24h0a2.38,2.38,0,0,0,1.63,3c6.37,1.68,9.76,8,7.55,15.36-2.33,7.74-10.26,14-18.07,14.24-7.65.24-12.69-5.16-12.2-12.32A2.31,2.31,0,0,0,167.77,29h0a4.24,4.24,0,0,0-4,3.67c-.69,10.23,6.54,17.91,17.51,17.47s22.1-9.23,25.41-20.12C209.85,19.54,205,10.58,196,8.18A4.17,4.17,0,0,0,191.31,11.24Z"/><path class="cls-22" d="M245.48,5.46h0l-.23,0c-.39,0-.78,0-1.18,0-11.78,0-23.7,9.55-26.64,21.32S221.61,48,233.38,48c.41,0,.81,0,1.21,0l.23,0h.06c11.21-.76,22.2-9.88,25.09-21.07a1.05,1.05,0,0,1,0-.19C262.83,15.45,256.37,6.22,245.48,5.46ZM236,41.71H236c-.24,0-.49,0-.74,0H235c-8.3,0-13.35-6.73-11.28-15s10.48-15,18.78-15h.25c.25,0,.49,0,.73,0h.06c7.67.54,12.22,7,10.24,15a1.05,1.05,0,0,0,0,.19C251.62,34.77,243.89,41.17,236,41.71Z"/><path class="cls-3" d="M252.76,29.53a21,21,0,0,1-14.87,11.94,4.42,4.42,0,0,0-3.39,3.1h0a2.43,2.43,0,0,0,3,3.09,29.88,29.88,0,0,0,21.18-17c.85-1.94-.18-3.74-2.15-3.74h0A4.34,4.34,0,0,0,252.76,29.53Z"/><path class="cls-20" d="M188.93,80.48H149.2a.31.31,0,0,1-.3-.38l1.78-6.83A.3.3,0,0,1,151,73h39.74a.3.3,0,0,1,.29.38l-1.78,6.83A.29.29,0,0,1,188.93,80.48Z"/><ellipse class="cls-23" cx="362.91" cy="100.49" rx="19.98" ry="15.58" transform="translate(24.36 265.39) rotate(-41.45)"/><path class="cls-23" d="M389,119.44a6.58,6.58,0,0,1-6,4.83,3.64,3.64,0,0,1-3.62-4.83,6.58,6.58,0,0,1,6-4.82A3.64,3.64,0,0,1,389,119.44Z"/><path class="cls-22" d="M358.36,109.46a1.66,1.66,0,0,1-1.38-.64l-4.56-6.07a2.33,2.33,0,0,1,.77-3.07,2.16,2.16,0,0,1,3.06,0l3.41,4.54,12.18-9.74a2.14,2.14,0,0,1,3.06,0,2.32,2.32,0,0,1-.76,3.07l-14.09,11.27A2.73,2.73,0,0,1,358.36,109.46Z"/><ellipse class="cls-3" cx="474.89" cy="401.79" rx="75.23" ry="6.32"/><path class="cls-24" d="M477.76,65.47s-1.92,3.82-3.07,12.25,1.92,57,1.92,57l32.92-3.45L494.6,67.76Z"/><path class="cls-25" d="M458.23,270.86l-11.48,56.85,22.39.57s5.75-50.53,3.45-50.53S458.23,270.86,458.23,270.86Z"/><path class="cls-15" d="M510.3,393.56s-8.42,8.8-11.87,10.72c.77,1.53,13,1.53,17.61-.77s8-7.66,8-7.66l-.38,5.75H526s2.3-8,2.3-10-2.3-4.59-2.3-4.59Z"/><path class="cls-26" d="M506.85,280.24l8.42,103.36,10-.76S536.71,307,532.12,281,506.85,280.24,506.85,280.24Z"/><path class="cls-26" d="M515.27,383.6s-3.06,8-7.27,11.87,6.51,3.83,11.1,0,5-6.13,6.51-6.89-.38-5.74-.38-5.74Z"/><path class="cls-15" d="M441.17,391.82s-9.79,7.26-13.51,8.57c.5,1.63,12.58,3.7,17.49,2.21s9.22-6.19,9.22-6.19L453,402l2.27.39s3.62-7.54,3.94-9.42-1.49-4.92-1.49-4.92Z"/><path class="cls-26" d="M456.87,279.54l-9.12,103.31,9.94.92s24.1-72.78,24-99.21S456.87,279.54,456.87,279.54Z"/><path class="cls-26" d="M447.75,382.85s-4.37,7.41-9.17,10.47,5.77,4.87,10.95,1.87,5.93-5.2,7.57-5.69.59-5.73.59-5.73Z"/><path class="cls-27" d="M421.6,115.31l-19.79-3.9s-.3,2.7,1.5,3.3l1.8.6s4.5,10.79,6.6,12,14.69,6.4,14.69,6.4l3.3-12.7Z"/><path class="cls-26" d="M435.84,131.31s-.2-1.34-2.84-6.71a55.1,55.1,0,0,1-3.6-8.39s-9.3-3.6-10.8-5.4a6.63,6.63,0,0,0-2.4-2.1s-1.8,3.3.9,5.7,5.1,4.2,5.1,4.2-.3,6.89.6,10.19a8.79,8.79,0,0,0,3.6,4.9Z"/><path class="cls-26" d="M466.65,142.42s-13.39,21.43-13.78,19.52-17.23-31.39-17.23-31.39l-9.24,3.15s13.84,43.17,22.64,50.06c0,0,.77,1.15,3.45.77s23.35-21.82,23.35-21.82Z"/><path class="cls-28" d="M479.19,117s-7.18,2.87-10.62,7.84-13.4,27.57-13.4,27.57a30.74,30.74,0,0,0,17.61,13l16.84-31Z"/><path class="cls-15" d="M470.29,190.46s.58,9.19.58,12.63c0,0-13.79,66.62-14.36,82.12s10.91,47.09,10.91,47.09,49.39-1.15,65.47-4.59l1.72-33.31s2.29-58,0-74.65-12.06-25.27-12.06-25.27l-2.87-8Z"/><path class="cls-28" d="M512.5,112.94s12.92,6,16.94,12.34,16.08,40.49,16.08,40.49-13.5,4.88-25.27,4.88c0,0,1.15,10.91,2.3,14.36s-2.87,4.88-2.87,4.88-28.14,7.75-49.1,3.16c0,0-2.59-.58-2.59-1.73s.29-4,.29-4-2-19.52-2.58-23-6.89-12.82-6.32-16.56,10.34-21.05,10.34-21.05,6.6-7.75,9.47-9.76,10.05-2,10.05-2Z"/><path class="cls-26" d="M488,102.6c0,.45,1.65,10.2-3.75,17.1s15.9,6.74,20.84-.45c4.5-6.45,4-7.5,4-7.5s-3.6-11.7-2.55-19.34C506.3,85.51,487.71,89.71,488,102.6Z"/><path class="cls-26" d="M487.88,61.93s-6.21,1.58-9.73,11.12-1.17,29.78,1.17,32.16,9.47,1.48,19.34-1.78c10.44-3.45,14-14.29,15.83-21.45C518.06,68.28,506.14,54.18,487.88,61.93Z"/><path class="cls-24" d="M475.84,72.74s5.74,13.78,27.57,14.55l5.07,24.35s9.29,4.47,12.92,6.47c0,0,4.21-44.22-5.74-54.94s-27.57-8-34.46-1.92S475.84,72.74,475.84,72.74Z"/><path class="cls-22" d="M512.5,112.94l-4.88-4.6s-4.31,12.35-19.53,13.21a10.49,10.49,0,0,1-.86-7.75l-2.58,2s-5.46,7.75-4.88,10,7.84-1.73,7.84-1.73,8.62,5.17,12.06,5.46S511.92,113.8,512.5,112.94Z"/><path class="cls-27" d="M503.75,86.93s2.3-3.8,4.6-2.4-1.46,10-4.6,10.19S502.28,89.13,503.75,86.93Z"/><line class="cls-29" x1="509.15" y1="137.82" x2="517.95" y2="169.21"/><path class="cls-29" d="M503.69,139.64a20.76,20.76,0,0,0,8.62,10.05"/><path class="cls-29" d="M513.74,132.17s1.15-8,10.34-8.61"/><path class="cls-29" d="M468.66,128.73s-9.38,15.41-9.28,19,6.13,14,6.13,14L473,181.27"/><line class="cls-29" x1="501.11" y1="192.76" x2="511.16" y2="181.27"/><path class="cls-30" d="M416.89,118.68l-11.78-3.37a15.54,15.54,0,0,0,1.82,3.37c.77.76,9,3.64,9,3.64"/><path class="cls-30" d="M406.93,118.68a21.23,21.23,0,0,0,1.72,4c.58.57,7.85,2.68,7.85,2.68"/><polyline class="cls-30" points="418.61 115.81 422.2 118.61 424.93 117.91"/><path class="cls-30" d="M489.24,105.85a18.08,18.08,0,0,0,11.1-8.42"/><polyline class="cls-30" points="482.93 89.01 481.58 96.28 484.07 96.86"/><path class="cls-30" d="M482.54,100.11A11.78,11.78,0,0,0,490,98.77"/><path class="cls-31" d="M496.13,92.74a3.54,3.54,0,1,1-3.54-3.54A3.53,3.53,0,0,1,496.13,92.74Z"/><path class="cls-24" d="M489.24,88a.86.86,0,1,1-.86-.86A.86.86,0,0,1,489.24,88Z"/><path class="cls-24" d="M480,88a.86.86,0,1,1-1.72,0A.86.86,0,1,1,480,88Z"/><path class="cls-32" d="M473.83,201.08s15.79,4.89,30.73-1.43"/><path class="cls-32" d="M478.52,206.73s8,2.68,21.06-2.3"/><rect class="cls-22" x="454.02" y="208.26" width="35.03" height="46.51" transform="translate(-52.59 266.79) rotate(-30)"/><path class="cls-26" d="M503.79,218.22s-4.79,5.26-6.22,6.41-11.2,2-11.2,2-4.31,7.18-5.45,6.89-.87-1.15-.87-1.15-.28-12.92.58-14.35,14.93-5.46,14.93-5.46l1.72-2,6.51,7.66"/><path class="cls-26" d="M541.31,167.11c.38,1.15,3.44,10.14,5,14.74S513.36,210.56,508,214.77l-4.21,3.45-6.51-7.66,30.25-30.24-4.41-10Z"/><line class="cls-30" x1="480.92" y1="233.53" x2="482.73" y2="225.49"/><line class="cls-30" x1="479.86" y1="226.26" x2="481.97" y2="221.66"/><polyline class="cls-30" points="480.63 218.03 479.86 233.53 482.35 233.53 486.37 226.64"/><ellipse class="cls-3" cx="90.52" cy="401.79" rx="75.23" ry="6.32"/><path class="cls-33" d="M60.23,381.47s1.6-3.42,7.53-2.51,6.61,2.05,7.29,5,2.74,6.16,4.11,6.84,6.38,4.11,10.48,4.79,4.56,3.19,3.65,4.33-16.41,2.05-19.83,1.6c0,0-11.63-.23-14.37-1.14S60,382.61,60.23,381.47Z"/><path class="cls-34" d="M53.65,301.32a11.22,11.22,0,0,1,8.24-12.61c10-3.17,11.85,1.44,14.87,10.05s-2.59,82.18-2.59,82.18-11.48,2-14.43.22c0,0-8.75-47.89-8.14-61S53.65,301.32,53.65,301.32Z"/><path class="cls-35" d="M58.52,378.27s13-1.14,17.1-1.82l-.23,5.93s-10.26,1.82-16.64.91Z"/><path class="cls-36" d="M55.33,117s-8.21.46-13.22,19.16-8.21,41.49-6.39,47.42,21.43,21.88,28.73,21.88,7.75-5.47,6.38-10-15.5-16.87-15.5-16.87,11.4-36.48,10.94-46.05S60.35,117,55.33,117Z"/><path class="cls-26" d="M158.1,111.42l-1.36.13,3-6s7.76-.48,9,2.79l-3.55,7.89Z"/><path class="cls-27" d="M162.46,94.25s-.3-6.17,1.9-7S169,88,169,88s3.56-.36,4.69,1.16a6.76,6.76,0,0,1,1,3.81,3.57,3.57,0,0,1,2.53,2.36c.52,1.9-.41,5.59-.41,5.59s-2.32,2.85-5,2.14S162.46,94.25,162.46,94.25Z"/><path class="cls-27" d="M158.4,99.24s-.82-8.08,0-9.15,9.77-13.38,9.77-13.38A4.48,4.48,0,0,1,169,81.2c-1.06,2.39-5.25,9.66-5.25,9.66l0,6.2A13.7,13.7,0,0,1,158.4,99.24Z"/><path class="cls-26" d="M159.06,105.7s-2.13-13-.68-14.75,8.57-.75,9.93-.23S173.42,96.07,174,98s-3,8.8-5.16,10.32S160.29,108.19,159.06,105.7Z"/><path class="cls-12" d="M154.05,114.26l2.74-5s6.38-1.14,9.57,3.88c.92,1.82.46,1.82.46,1.82l-2,4.11Z"/><path class="cls-26" d="M89.1,59.37s6.75,1.72,10.57,12.08,1.27,32.37-1.28,35-10.28,1.6-21-2C66,100.72,62.21,88.94,60.18,81.16,56.3,66.27,69.25,51,89.1,59.37Z"/><path class="cls-26" d="M64.91,116.54l5.47-19.61s10.94-3.19,17.78,4.1l2.28,3.2V117A73.08,73.08,0,0,1,64.91,116.54Z"/><path class="cls-34" d="M49.63,222.1a180.79,180.79,0,0,0,0,51.3c4.1,27.36,12.31,30.09,19.84,30.09S79,281.6,80.41,272,87.25,229.62,77,222.1,55.1,213.89,49.63,222.1Z"/><path class="cls-34" d="M78.36,254.25s-8.21-21.89,6.15-31.47,25.31-8.21,28.73,7.53,4.1,69.76-.68,80.71S90.67,304.86,78.36,254.25Z"/><path class="cls-37" d="M102.26,60.3s3.24,4.21,1.3,9.07-9.07,6.79-9.07,6.79,2.27,3.24,0,7.77l-1.61,2.59S95.14,91.7,94.49,93s-2.91,1-2.91,1S89,86.84,88,87.49s-3.56,3.89-3.56,6.8,1,5.18.32,7.12S74.1,103.35,69.9,102.7,59.21,89.11,57.6,83.28c0,0-2.27-8.09,1-14.89,0,0-.65-5.82,4.85-11.65s23-3.88,25.9-1.62c0,0-.33-3.23,2.91-2.59S100.32,56.09,102.26,60.3Z"/><path class="cls-27" d="M92.55,89.76s-1-4.21-4.53-2.27.65,12,3.56,11.33S93.2,91.38,92.55,89.76Z"/><path class="cls-12" d="M62,116.43s1.53-5.36,2.9-5.82,18.24-2.28,27.36,3.19c4.1,3.19,3.64,5.47,3.64,5.47S68.69,114.05,62,116.43Z"/><path class="cls-36" d="M58.52,115.17s28.27-1.82,48.34,6.84c9.12,4.56,30,25.19,30,25.19L153.25,113s9.24-3.3,12.89,5.36c0,0-10.38,40.36-19,53.12-5.47,4.56-31.58-10.26-31.58-10.26s4.1,52.9,2.74,76.61c-1.83,4.56-37.39,6.84-43.78,6.38s-28.73-7.75-29.18-9.12,3.19-56.08,2.28-62.47-3.65-37.84-2.74-42.4S49.86,117,58.52,115.17Z"/><path class="cls-38" d="M88.62,382.83s1.59-3.42,7.52-2.5,6.61,2.05,7.3,5,2.73,6.16,4.1,6.84,6.38,4.1,10.49,4.79,4.56,3.19,3.65,4.33-16.42,2.05-19.84,1.6c0,0-11.63-.23-14.36-1.14S88.39,384,88.62,382.83Z"/><path class="cls-34" d="M91.35,302.81a11.24,11.24,0,0,1,9.58-11.63c10.26-2.05,11.63,2.74,13.68,11.63S103,384.2,103,384.2s-11.63.69-14.36-1.37c0,0-3.42-48.56-1.37-61.55S91.35,302.81,91.35,302.81Z"/><path class="cls-35" d="M87.71,384s8.89,2.51,16.41,1.14l.69-5.24-17.33-1.14Z"/><path class="cls-39" d="M75.62,249.12s9.58,30.77,16.76,45.82"/><path class="cls-39" d="M95.12,301.1s5.81-3.42,11.62,0"/><path class="cls-39" d="M94.09,304.86s4.79-2.74,13,3.08"/><path class="cls-39" d="M58.18,297s3.76-3.42,12.31.35"/><path class="cls-39" d="M60.92,300.41a10.29,10.29,0,0,1,10.6,1.37"/><line class="cls-39" x1="73.57" y1="305.89" x2="71.52" y2="375.65"/><path class="cls-39" d="M101.84,247.41s7.75,4.56,10.94-2.74"/><path class="cls-39" d="M109.59,248.32s3.65,28.27,2.74,47"/><line class="cls-40" x1="44.84" y1="142.07" x2="48.49" y2="181.29"/><path class="cls-40" d="M107.43,155.75s27,19.5,39.67,15.73"/><path class="cls-40" d="M139.57,151a11.27,11.27,0,0,1,5.13,10.26"/><path class="cls-40" d="M138.21,148.23a8.23,8.23,0,0,1,9.23,4.1"/><path class="cls-40" d="M106.4,124.63s-14.36,7.53-4.79,25"/><path class="cls-30" d="M86.05,101.89S88.45,108,96.48,107"/><path class="cls-30" d="M163.46,89.24l2.68-2.4A4.1,4.1,0,0,1,169,88"/><path class="cls-30" d="M166.65,89.63c0-.17,3.82-2.22,3.82-2.22s3.47.86,4,2.68a4.62,4.62,0,0,1,.11,2.79"/><path class="cls-30" d="M171.15,92.94c.17-.06,4.85.23,4.85.23a4.08,4.08,0,0,1,1.65,3.36,17.62,17.62,0,0,1-.79,4.42,5.82,5.82,0,0,1-4.51,2.31"/><path class="cls-30" d="M173.83,97.73a2.82,2.82,0,0,1-.17,2.56c-.74,1.66-1.64,6-4.87,8"/><path class="cls-41" d="M76.82,68c-6.67-3.25-15.22.69-15.22.69a8.88,8.88,0,0,1,5.81-6"/><path class="cls-41" d="M61.94,71.45s1.71-.17,3.94,3.25"/><path class="cls-41" d="M91.35,56.12s8.44,1.37,8.67,9.8"/></g></g></svg>