<?xml version="1.0" encoding="utf-8"?>
<!-- Generator: Adobe Illustrator 24.3.0, SVG Export Plug-In . SVG Version: 6.00 Build 0)  -->
<svg version="1.1" id="_x2018_лой_x5F_1" xmlns="http://www.w3.org/2000/svg" xmlns:xlink="http://www.w3.org/1999/xlink"
	 x="0px" y="0px" viewBox="0 0 3000 2000" style="enable-background:new 0 0 3000 2000;" xml:space="preserve">
<style type="text/css">
	.st0{fill:#FFFFFF;}
	.st1{fill:#EBF3FA;}
	.st2{opacity:0.5;}
	.st3{fill:#AEC3FF;}
	.st4{fill:#82B378;}
	.st5{fill:#A8D29F;}
	.st6{fill:#BBD0FF;}
	.st7{fill:#D2E0FF;}
	.st8{fill:#C0D4FF;}
	.st9{fill:#86A2E2;}
	.st10{fill:#798EE8;}
	.st11{fill:#849DEF;}
	.st12{fill:#8C9DF4;}
	.st13{fill:#505ABA;}
	.st14{fill:#5E6ECC;}
	.st15{fill:#2C3A64;}
	.st16{fill:#FFB27D;}
	.st17{fill:#2B478B;}
	.st18{fill:#233862;}
	.st19{fill:#ED985F;}
	.st20{fill:#707FE5;}
	.st21{fill:#F99746;}
	.st22{fill:#3D4CA5;}
	.st23{fill:#ED7B2E;}
	.st24{fill:#739AF0;}
	.st25{fill:#1F3B72;}
	.st26{fill:#F77D48;}
	.st27{fill:#ED917E;}
	.st28{fill:#B3C2FF;}
	.st29{fill:#ED7D2B;}
	.st30{fill:#FF8939;}
	.st31{fill:#6B80DD;}
	.st32{fill:#A4B5FF;}
	.st33{fill:#E58638;}
	.st34{fill:#152949;}
	.st35{fill:#ED975D;}
	.st36{fill:#214C7F;}
	.st37{fill:#FCA56B;}
	.st38{fill:#163560;}
	.st39{fill:#6C7AFF;}
</style>
<rect class="st0" width="3000" height="2000"/>
<g>
	<g>
		<path class="st1" d="M2720.4,1838.8c-154.1,0-2398.5,0.6-2399.8-3.5l-0.2-0.5c0,0-0.2-0.5-0.2-0.7c-0.9-2-345.8-566.3,190.5-959.1
			c209.8-153.7-13.1-255.2,153.7-426.3c191.8-196.6,401,20.9,614.3-68.3c37.7-15.7,75.5-41.1,113.3-79.9
			c87.8-90.1,208.2-131.7,332.5-141.1c238.3-17.8,506.4,82.4,644.8,228.7c27.9,29.5,154.5,182,54.7,391.7
			c-63,132.4,201.1,258.8,294.9,409.9C2957.4,1574.1,2722.5,1833.7,2720.4,1838.8z"/>
	</g>
	<g class="st2">
		<g class="st2">
			<path class="st3" d="M1022.7,782c0,0-17.5-146.4-92.5-233.8c-10-11.6-29.1-4.2-28.7,11.1c0,0.3,0,0.5,0,0.8
				C902.5,586.2,986.4,696.3,1022.7,782z"/>
		</g>
		<g class="st2">
			<path class="st3" d="M1031.8,823.9c0,0-74.8-183-202.4-263.9c-7.8-4.9-18.3-3.1-23.6,4.5c-3.4,4.9-4.9,12.7-1.1,24.7
				C814.9,621.3,957.3,729.7,1031.8,823.9z"/>
		</g>
	</g>
	<g>
		<g>
			<path class="st4" d="M1963,777.4c0,0-66.9-41.2-32.8-92c0,0,26.9-30.9,54.7-38c0,0-17.8,77.1-3.3,79.5
				c14.5,2.4,13.7-87.3,13.7-87.3s73.6-31.7,101.8-27.8c0,0-47.9,74-33.2,72.8c14.7-1.2,68.1-75.9,68.1-75.9s74.6-10.6,84.6,33.7
				c10.1,44.3-10,65.5-21.1,67.8c-11.1,2.3-81.4-1.5-79.9,7.7c1.4,9.2,48.4,25.8,75.2,18.7c0,0-32.2,71-70.4,65.7
				c-38.2-5.2-49.1-29.5-72.8-32.3c-23.7-2.8-41.3,2.9-29.7,9.8c11.6,6.9,52,4.3,70.5,21.4c18.5,17.1,33.6,27.8-2.3,33.6
				c-35.9,5.8-99.7-1.4-111.4-29.3C1963,777.4,1963,777.4,1963,777.4z"/>
		</g>
		<g>
			<g>
				<path class="st4" d="M2182.2,654.6c0,0-194.4,54.2-219.2,122.7c0,0-0.4,31.1-21,65.9l-0.6,13.7c0,0,22-45.8,33.3-51.7
					C1974.6,805.3,1934.2,743.2,2182.2,654.6z"/>
			</g>
			<g>
				<path class="st4" d="M1941.9,843.3c0,0-31.4,43.7-16.8,99.1l7.7-1.7c0,0-4.9-60.6,11.8-90.2
					C1961.4,820.8,1941.9,843.3,1941.9,843.3z"/>
			</g>
		</g>
	</g>
	<g>
		<g>
			<path class="st5" d="M1692.1,775.7c0,0-112.4,9.9-116.6-77.8c0,0,4.5-58.7,30.3-90.6c0,0,45.5,104,64.4,94.3
				c18.8-9.7-59.1-112.2-59.1-112.2s57.6-99.7,93.4-119.3c0,0,8.3,126.3,24.1,112.3c15.9-14,13.4-145.8,13.4-145.8
				s76.7-76.2,126.4-33.8c49.6,42.4,44.6,84,33.8,96.1c-10.8,12.1-95,68-85.5,77.4c9.6,9.4,77.8-11.8,102.6-43
				c0,0,23.7,109.3-24.8,136.1c-48.5,26.7-81.8,8.2-111.5,25.2c-29.7,17.1-45.1,38.7-25.8,36.7c19.3-2,63.5-39.7,99.5-35.9
				c36,3.8,62.6,3.2,26.2,40.7c-36.4,37.5-116,83.9-153.4,61.7S1692.1,775.7,1692.1,775.7z"/>
		</g>
		<g>
			<g>
				<path class="st5" d="M1839.3,446.4c0,0-177.4,229.1-147.2,329.3c0,0,26.2,36.1,32.3,94l11.1,16.3c0,0-13.9-71.6-6-88.1
					C1729.5,797.9,1629.7,761.1,1839.3,446.4z"/>
			</g>
			<g>
				<path class="st5" d="M1724.4,869.7c0,0,1.3,77.3,65.6,128.6l7.4-8.6c0,0-57.6-65.5-63.7-114S1724.4,869.7,1724.4,869.7z"/>
			</g>
		</g>
	</g>
	<g>
		<g>
			<g>
				<path class="st6" d="M635.8,1639.9c0,0-31.5-36.7-1.9-60.1c0,0,21.6-13.1,39.2-12c0,0-24.9,41.8-16.9,46
					c8.1,4.2,24.4-48.6,24.4-48.6s49.1-4.8,64.9,2.8c0,0-42,34.4-33.1,36.4c8.8,2,54.2-31.7,54.2-31.7s45.7,7.8,43.3,35.7
					c-2.4,27.9-18.2,36.5-25.1,35.8c-6.9-0.7-47.4-16.2-48.3-10.5c-0.9,5.7,23.5,24.2,40.6,25.1c0,0-32.2,35.5-53.6,25.3
					c-21.4-10.3-23.2-26.5-36.6-32.6s-24.7-6.1-19.2,0.1c5.5,6.2,29.7,12.3,37.3,25.8c7.6,13.5,14.5,22.6-7.7,19.3
					s-58.2-19.5-59.8-38.1C635.8,1639.9,635.8,1639.9,635.8,1639.9z"/>
			</g>
			<g>
				<g>
					<path class="st6" d="M787.4,1609.1c0,0-124.1-4.8-151.6,30.7c0,0-6.1,18.2-24.7,34.7l-2.9,7.9c0,0,21.5-22.7,29.2-24.1
						C637.4,1658.4,625.4,1614.4,787.4,1609.1z"/>
				</g>
				<g>
					<path class="st6" d="M611.1,1674.6c0,0-26.6,19.7-28.5,54.9l4.8,0.4c0,0,8.5-36.4,23.9-50.6
						C626.7,1665,611.1,1674.6,611.1,1674.6z"/>
				</g>
			</g>
		</g>
		<g>
			<g>
				<path class="st3" d="M525.7,1593.7c0,0,50.1-28,26.7-66.1c0,0-18.7-23.4-38.7-29.4c0,0,10.7,56.8,0,58.1
					c-10.7,1.3-7.3-64.1-7.3-64.1s-52.8-25.4-73.5-23.4c0,0,32.7,55.4,22,54.1c-10.7-1.3-47.4-57.4-47.4-57.4s-54.1-10-62.8,22
					c-8.7,32.1,5.3,48.1,13.4,50.1c8,2,59.4,1.3,58.1,8c-1.3,6.7-36.1,17.4-55.4,11.4c0,0,21.4,52.8,49.4,50.1
					c28-2.7,36.7-20,54.1-21.4c17.4-1.3,30.1,3.3,21.4,8c-8.7,4.7-38.1,1.5-52.1,13.5c-14,11.9-25.4,19.3,0.7,24.6
					c26,5.3,72.8,2,82.1-18C525.7,1593.7,525.7,1593.7,525.7,1593.7z"/>
			</g>
			<g>
				<g>
					<path class="st3" d="M369.5,1497.5c0,0,140.2,45.4,156.3,96.2c0,0-0.7,22.7,13.4,48.7v10c0,0-14.7-34.1-22.7-38.7
						C516.4,1613.7,547.8,1569.6,369.5,1497.5z"/>
				</g>
				<g>
					<path class="st3" d="M539.1,1642.4c0,0,21.6,32.8,9.3,72.8l-5.6-1.5c0,0,5.4-44-5.9-66.2
						C525.6,1625.4,539.1,1642.4,539.1,1642.4z"/>
				</g>
			</g>
		</g>
		<g>
			<g>
				<path class="st7" d="M605.4,1555c0,0-66-37-35.2-87.1c0,0,24.6-30.8,51.1-38.7c0,0-14.1,74.8,0,76.6c14.1,1.8,9.7-84.5,9.7-84.5
					s69.5-33.5,96.8-30.8c0,0-43.1,73.1-29,71.3c14.1-1.8,62.5-75.7,62.5-75.7s71.3-13.2,82.7,29c11.4,42.3-7,63.4-17.6,66
					c-10.6,2.6-78.3,1.8-76.6,10.6c1.8,8.8,47.5,22.9,73.1,15c0,0-28.2,69.5-65.1,66c-37-3.5-48.4-26.4-71.3-28.2
					c-22.9-1.8-39.6,4.4-28.2,10.6c11.4,6.2,50.2,2,68.7,17.7c18.5,15.7,33.5,25.4-0.9,32.4c-34.3,7-96,2.6-108.3-23.8
					C605.4,1555,605.4,1555,605.4,1555z"/>
			</g>
			<g>
				<g>
					<path class="st7" d="M811.4,1428.2c0,0-184.9,59.9-206,126.8c0,0,0.9,29.9-17.6,64.3v13.2c0,0,19.4-44.9,29.9-51.1
						C617.7,1581.4,576.4,1523.3,811.4,1428.2z"/>
				</g>
				<g>
					<path class="st7" d="M587.8,1619.2c0,0-28.5,43.3-12.3,96l7.3-2c0,0-7.1-58,7.8-87.2C605.6,1596.8,587.8,1619.2,587.8,1619.2z"
						/>
				</g>
			</g>
		</g>
		<g>
			<path class="st8" d="M603.2,1829.5c71.4,0,129.3-57.9,129.3-129.3H473.9C473.9,1771.6,531.8,1829.5,603.2,1829.5z"/>
		</g>
		<g>
			<path class="st8" d="M734.3,1836.1H472.1l0,0c0-8.8,7.1-16,16-16h230.3C727.2,1820.1,734.3,1827.3,734.3,1836.1L734.3,1836.1z"/>
		</g>
		<g>
			<rect x="469.6" y="1700.2" class="st9" width="265.8" height="4"/>
		</g>
	</g>
	<g>
		<path class="st10" d="M1485.4,1105l-57.9,688.1c0,0-6.1,41.7,25,41.8c51,0.1,253.9,0,253.9,0s-38.4-8.7-37.9-28.2
			c0.5-23,67.6-708.2,67.6-708.2L1485.4,1105z"/>
	</g>
	<g>
		<path class="st3" d="M1725.5,1822.4c-10,0-206.5,0.4-256.1-0.3c-21.7-0.3-25.4-19.2-25.6-31.5c-0.1-5.9,0.7-10.2,0.7-10.2
			l1.5-17.9l3.8-45.6l3.4-40.3l4.4-51.8l3.7-43.7l41.1-489l250.7-6.5c0,0-28.3,286.7-48.2,495.5c-2.2,23.3-4.4,45.6-6.3,66.4
			c-0.6,6.6-1.2,13.1-1.8,19.5c-1.9,19.7-3.5,37.9-5,53.9c-0.8,8.4-1.5,16.3-2.1,23.5c-2.6,28.1-4,46.1-4.1,49.5
			c0,2,0.2,3.8,0.5,5.6C1689.9,1821.4,1721.7,1822.4,1725.5,1822.4z"/>
	</g>
	<g>
		<polygon class="st3" points="876.5,730.3 1017.4,1296.5 1036.7,1374 1102.4,1637.8 2322.2,1637.8 2080.2,730.3 		"/>
	</g>
	<g>
		<polygon class="st10" points="876.5,730.3 856.9,736.8 1076.4,1657.5 1102.4,1637.8 		"/>
	</g>
	<g>
		<polygon class="st11" points="1076.4,1657.5 2288.7,1657.5 2322.2,1637.8 1102.4,1637.8 		"/>
	</g>
	<g>
		
			<rect x="1502.1" y="1822.4" transform="matrix(-1 -1.224647e-16 1.224647e-16 -1 3266.7393 3657.2695)" class="st3" width="262.5" height="12.5"/>
	</g>
	<g>
		<polygon class="st12" points="1697.9,1657.5 1696.5,1667 1449.7,1716.9 1453.1,1676.6 1454.7,1657.5 		"/>
	</g>
	<g class="st2">
		<path class="st12" d="M1725.5,1822.4c-10,0-206.5,0.4-256.1-0.3c-21.7-0.3-25.4-19.2-25.6-31.5l245.7-46.2
			c-2.6,28.1-4,46.1-4.1,49.5c0,2,0.2,3.8,0.5,5.6C1689.9,1821.4,1721.7,1822.4,1725.5,1822.4z"/>
	</g>
	<g>
		<polygon class="st12" points="876.5,730.3 2080.2,730.3 2275.5,1459.6 1058,1459.6 		"/>
	</g>
	<g>
		<polygon class="st13" points="2218.7,1428 1091.7,1428 1051.4,1267.6 1035.8,1205.5 1029.5,1180.2 988.1,1015.3 985.9,1006.7 
			964,919.6 954.3,880.6 945.9,847.3 939.1,820.2 926.3,769.3 2037.1,769.3 2051.1,820.2 2058.6,847.3 2067.8,880.6 2078.5,919.6 
			2149.3,1176.5 2149.3,1176.5 2155.3,1198.3 2158.1,1208.4 2207,1385.7 		"/>
	</g>
	<g>
		<polygon class="st14" points="1772,1399 1192.1,1399 1160.3,1242.8 1148,1193.7 1142.9,1173.7 1110.2,1043.2 1108.5,1036.4 
			1091.2,967.5 1083.4,936.6 1076.8,910.3 1071.4,888.9 1061.3,848.7 1628.7,848.7 		"/>
	</g>
	<g>
		<polygon class="st12" points="1515.4,1459.6 1102.8,1639.9 1058,1459.6 		"/>
	</g>
	<g>
		<g>
			<path class="st15" d="M2454.9,1062.4c0.1-1.6,1.3-19.1,28-20c0,0-13.1,1.6-15.4,7.3c0,0,8.9-7.1,16.2-4.8s11.5,15,11.6,19.2
				s-4,17.7-8.6,18.8c-1.7,0.4-3.8,0.3-5.6,0c1.2,1.9,2.4,4,3.6,6.4c10.6,21.8-0.3,43.2-9.3,40.8c-5.8-1.5-7.4,8.3-7.4,8.3
				l-56.1-45.4C2411.8,1093.1,2432.4,1050.4,2454.9,1062.4z"/>
		</g>
		<g>
			<path class="st16" d="M2302,1335.4c4.7,4.1,17.1-10.1,18.8-12c0.1-0.2,0.2-0.3,0.2-0.3l-3.8-10.6c0,0-16.3-0.6-19,2.1
				C2295.5,1317.4,2296.8,1331,2302,1335.4z"/>
		</g>
		<g>
			<path class="st17" d="M2435.3,1705.6l11.9,4.4c0,0,51.8-71.8,58.1-134.9c1.1-11.3-1.2-35.2-0.3-40.3c0.4-2.4,0.9-5.3,1.5-8.5
				c1.7-9.6,4-22.8,6.6-37.9c6.1-34.6,14-78.8,20.1-111.2l-3.2-1l-34.7-11.2l-7.2-22.8l-25.9-6.8c0,0-5.8,11.3-10.9,64.7
				c-1,7-1.8,14.7-2.5,23.1c-2,25.6-2.2,57.3,2.5,93.5c1.2,9.3,6.1,45.8,5.5,57.1C2454.3,1625.4,2435.3,1705.6,2435.3,1705.6z"/>
		</g>
		<g>
			<path class="st18" d="M2448.9,1423.1l56.2,111.7c0.4-2.4,0.9-5.3,1.5-8.5c1.7-9.6,4-22.8,6.6-37.9c6.1-34.6,14-78.8,20.1-111.2
				l-3.2-1l-34.7-11.2l-7.2-22.8l-25.9-6.8c0,0-5.8,11.3-10.9,64.7C2450.4,1407,2449.5,1414.8,2448.9,1423.1z"/>
		</g>
		<g>
			<path class="st17" d="M2473.6,1349.7l1.3-11.2c21.8,5.8,80-16.2,80-16.2s21.1,18.6,18.3,63c-1.4,21.7-3.8,113.9-6.4,141.2
				c-0.9,9.9,5.5,35.3,8.1,42.2c25.3,67.5-3.9,150.6-3.9,150.6l-7.6-3.1c0,0-48-174-52.9-192.4c-9.4-34.8-16.9-80.2-21.9-115.2
				C2487.9,1408.8,2473.6,1349.7,2473.6,1349.7z"/>
		</g>
		<g>
			<path class="st16" d="M2457.1,1220.3c37.5,2.1,29.2-53.8,26.9-53.5c-4.6-2.4-12.8-14-17.6-33.5l-1.6,0.7l-27,12.7
				c0,0,2.9,8.8,5,17.2c1.7,6.6,2.8,12.9,1.8,14.7c-2.1,0.9-3.4,1.4-3.4,1.4s0,0,0,0C2441,1180.8,2447.1,1219.7,2457.1,1220.3z"/>
		</g>
		<g>
			<path class="st19" d="M2437.8,1146.8c0,0,2.9,8.8,5,17.2c15.8-4.4,20.6-21,22-29.9L2437.8,1146.8z"/>
		</g>
		<g>
			<path class="st16" d="M2434.5,1156.1c0,0,37.8-8.7,32-32.2s-4.8-40.4-29.2-35.8c-24.4,4.6-26.8,14.7-26.8,23
				C2410.5,1119.4,2424.5,1157.7,2434.5,1156.1z"/>
		</g>
		<g>
			<path class="st15" d="M2408.3,1097.8c4.1-8.5,8.8-8,11.8-6.5c17.8-16.4,35.2-3,35.2-3c6.7,16.2,21.2,22.8,21.2,22.8
				s-5.8,5.9-22.6,5.8c-5.1,0-10.3-2.4-15-5.7c9.1,9.1,19.7,14.7,19.7,14.7c-21.1-4-35.2-28.4-36.6-31c-1.8,2.6-5.2,8.2-5.5,13
				c-0.4,6.4,1.8,18.9-1.9,19.4C2414.6,1127.3,2402.2,1110.5,2408.3,1097.8z"/>
		</g>
		<g>
			<path class="st18" d="M2526.9,1725.6h60c0,0,1.4-9.1-1.7-16.1c-3-6.7-7.7-9.7-6.6-17.7c-3.8,3.9-10,8.3-18.7,7.2
				c-1.1,1.7-6.9,10.9-10.4,13.5C2545.6,1715.3,2528.1,1714.3,2526.9,1725.6z"/>
		</g>
		<g>
			<path class="st18" d="M2398,1725.6h60c0,0,2.2-9.6-1.7-16.1c-3.5-5.8-2.2-9,0.4-13.8c-2.7,1.1-6.2,2.1-10.1,1.9
				c-3-0.2-6.2-1.5-8.9-3.1c-2.6,2.9-13.6,15.5-17.1,18C2416.7,1715.3,2399.2,1714.3,2398,1725.6z"/>
		</g>
		<g>
			<path class="st12" d="M2556,1251.4c-3.2-10.5-6.6-20.5-9.9-29.8c-7.7-21.1-12.6-32.1-16.7-40.6c-7.9-16.2-43.1-15.2-43.1-15.2
				c-6.8,24.5-25.4,39.7-25.4,39.7c-9.9-5.8-17.3-26.4-17.3-26.4l-21.8,11.6l0,0l0,0c-0.1,0.1-6.7,4-12.6,20.9
				c-8.7,25.1-22.9,60.8-32.7,71.7c-2.3,2.5-9,6.4-17.1,10.5v0c-0.2,0.3-0.3,0.4-0.4,0.4c0.5,1.2,2.9,6.9,6.7,12.6
				c3.1,4.7,7.2,9.4,12,11.8c3.7-1.8,10.4-4.4,13.2-6.2c10.2-6.3,25.5-15.3,37.4-34.3l3.3,44.7l6,80.9c9.3,2.9,18.1,5.1,26.4,6.9
				c0.5-6.8,2.7-14.9,2.7-14.9c-0.1,4.3,4.9,12.4,7.8,16.8c76.9,12.3,112.9-21.2,112.9-21.2
				C2584.5,1361.8,2571.5,1301.8,2556,1251.4z"/>
		</g>
		<g>
			<path class="st20" d="M2478.5,1161.4c0,0,6.4,0.4,7.8,4.5c0,0-8.3,33.6-25.4,39.7L2478.5,1161.4z"/>
		</g>
		<g>
			<path class="st20" d="M2460.8,1205.6c0,0-16.3-29.5-16.3-33.4c0,0-6.2,5.5-5.8,9.6C2438.8,1181.7,2452.5,1203.7,2460.8,1205.6z"
				/>
		</g>
		<g>
			<path class="st20" d="M2504.6,1193.6c-0.5,1.6-33.8,81.2-63.7,110.6c-13.1,12.8,28.6,9.1,29,6.8S2504.6,1193.6,2504.6,1193.6z"/>
		</g>
		<g>
			<path class="st20" d="M2432.6,1325.5l2.9,44.9c91.1-21.2,83.5-166.3,83.5-166.3l-45.8,94.5l-40.2,26.3
				C2433,1324.8,2432.9,1325.1,2432.6,1325.5z"/>
		</g>
		<g>
			<path class="st3" d="M2358.7,1294.1c0,0.1,0.1,0.1,0.1,0.1C2358.8,1294.2,2358.8,1294.1,2358.7,1294.1
				C2358.7,1294,2358.7,1294,2358.7,1294.1z"/>
		</g>
		<g>
			<g>
				<path class="st21" d="M2403.8,1232.3l18.1,80.9c2.9,12.9-6.9,23.3-21.8,23.3h-435.7c-14.9,0-29.4-10.4-32.3-23.3l-18.1-80.9
					c-0.1-0.5-0.2-1-0.3-1.5c-1.9-12.2,7.7-21.8,22-21.8h435.7c14.4,0,28.3,9.6,31.9,21.8
					C2403.6,1231.3,2403.7,1231.8,2403.8,1232.3z"/>
			</g>
			<g>
				<g>
					<g>
						<g>
							<polygon class="st1" points="1965.4,1300 1961.1,1300 1949.9,1249.7 1954.1,1249.7 							"/>
						</g>
					</g>
					<g>
						<g>
							<polygon class="st1" points="1994.9,1270.4 1964.2,1270.4 1961,1256.2 1991.7,1256.2 							"/>
						</g>
					</g>
					<g>
						<g>
							<polygon class="st1" points="2009.1,1290.9 1968.8,1290.9 1965.6,1276.6 2005.9,1276.6 							"/>
						</g>
					</g>
				</g>
				<g>
					<g>
						<g>
							<polygon class="st1" points="2063.4,1300 2059.1,1300 2047.8,1249.7 2052.1,1249.7 							"/>
						</g>
					</g>
					<g>
						<g>
							<polygon class="st1" points="2069.9,1270.4 2039.3,1270.4 2036.1,1256.2 2066.7,1256.2 							"/>
						</g>
					</g>
					<g>
						<g>
							<polygon class="st1" points="2079.3,1290.9 2039,1290.9 2035.8,1276.6 2076.1,1276.6 							"/>
						</g>
					</g>
				</g>
				<g>
					<g>
						<g>
							<polygon class="st1" points="2161.3,1300 2157,1300 2145.7,1249.7 2150,1249.7 							"/>
						</g>
					</g>
					<g>
						<g>
							<polygon class="st1" points="2144.9,1270.4 2114.3,1270.4 2111.1,1256.2 2141.7,1256.2 							"/>
						</g>
					</g>
					<g>
						<g>
							<polygon class="st1" points="2149.5,1290.9 2109.2,1290.9 2106,1276.6 2146.3,1276.6 							"/>
						</g>
					</g>
				</g>
				<g>
					<g>
						<g>
							<polygon class="st1" points="2224,1253.7 2173.7,1253.7 2172.7,1249.5 2223,1249.5 							"/>
						</g>
					</g>
					<g>
						<g>
							<polygon class="st1" points="2195.3,1257.8 2202.2,1288.4 2188,1288.4 2181.1,1257.8 							"/>
						</g>
					</g>
					<g>
						<g>
							<polygon class="st1" points="2215.7,1257.8 2224.8,1298.1 2210.5,1298.1 2201.5,1257.8 							"/>
						</g>
					</g>
				</g>
				<g>
					<g>
						<g>
							<polygon class="st1" points="2303.2,1277 2252.9,1277 2251.9,1272.7 2302.2,1272.7 							"/>
						</g>
					</g>
					<g>
						<g>
							<polygon class="st1" points="2269.7,1259.5 2276.6,1290.1 2262.3,1290.1 2255.5,1259.5 							"/>
						</g>
					</g>
					<g>
						<g>
							<polygon class="st1" points="2289,1254.7 2298.1,1295 2283.8,1295 2274.8,1254.7 							"/>
						</g>
					</g>
				</g>
				<g>
					<g>
						<g>
							<polygon class="st1" points="2382.4,1300.4 2332.1,1300.4 2331.1,1296.1 2381.5,1296.1 							"/>
						</g>
					</g>
					<g>
						<g>
							<polygon class="st1" points="2344.4,1261.1 2351.3,1291.7 2337,1291.7 2330.2,1261.1 							"/>
						</g>
					</g>
					<g>
						<g>
							<polygon class="st1" points="2362.7,1251.4 2371.7,1291.7 2357.5,1291.7 2348.4,1251.4 							"/>
						</g>
					</g>
				</g>
			</g>
		</g>
		<g>
			<g>
				<path class="st16" d="M2360,1329.2c5,0,12.8-0.4,17.3-2.1c0,0-14.5-0.2-11.4-4.8c0.6-0.8,7.8-0.2,15.8-0.2
					c3.3,0,11.4,4.5,11,4.7c5.8-0.8,11.1-1.9,12.8-2.3c0.5-0.1,0.6-0.2,0.6-0.2l5.1,15c0,0-1.1,0.3-3,0.6
					c-4.8,1.2-14.6,3.7-23.9,7.3c-13,5.1-22.5-1.3-26.9-5.8c-2.7-2.9-4.9-6.7-4.8-9.4C2353,1329.1,2357,1329.2,2360,1329.2z"/>
			</g>
			<g>
				<path class="st16" d="M2394.9,1330.4l3.2,11.5c0,0,4-0.7,10.3-1.9c1.9-0.4,3-0.6,3-0.6c5.1-1,11.1-2.3,17.7-3.8h0.1
					c11.3-2.7,23.9-5.9,34.5-9.6c1-0.3,1.9-0.7,2.8-1c6.3-2.3-5.9-34.3-11.4-30.3c-1.5,1.1-3,2.1-4.7,3.3
					c-9.1,6.2-20.7,13.1-31.1,18.9c-5.1,2.9-9.8,5.5-13.8,7.7C2399.2,1328.1,2394.9,1330.4,2394.9,1330.4z"/>
			</g>
			<g>
				<path class="st12" d="M2450.4,1298c0,0-0.7,21.8,19.8,32.4c23.6-8.5,36.2-43.7,46-67.9c1.4-3.3,2.6-6.7,3.9-9.9
					c4.5-12.1,8.1-24,10.3-34.3c1.4-6.1-24.9-37.1-28.2-29.8c-5.1,11.6-10.5,26.7-15.6,41.7c-2.8,8.2-5.5,16.4-8.2,24
					c-1.5,4.6-3.1,8.9-4.5,12.9c-2.8,7.6-5.3,13.7-7.6,17.6c-1.4,2.5-5.6,6-11.1,10C2453.6,1295.8,2452.1,1296.9,2450.4,1298z"/>
			</g>
		</g>
	</g>
	<g>
		<polygon class="st22" points="2051.1,820.2 939.1,820.2 926.3,769.3 2037.1,769.3 		"/>
	</g>
	<g>
		<g>
			<path class="st1" d="M995.4,795.2c1.4,4.6-1.4,8.3-6.4,8.3c-5,0-10.2-3.6-11.7-8.2c-1.4-4.6,1.4-8.3,6.4-8.3
				C988.8,787,994,790.7,995.4,795.2z"/>
		</g>
		<g>
			<path class="st1" d="M1032.9,795c1.4,4.6-1.4,8.3-6.4,8.3c-5,0-10.2-3.6-11.7-8.2c-1.4-4.6,1.4-8.3,6.4-8.3
				C1026.3,786.7,1031.5,790.4,1032.9,795z"/>
		</g>
		<g>
			<path class="st1" d="M1070.4,794.7c1.4,4.6-1.4,8.3-6.4,8.3c-5,0-10.2-3.6-11.7-8.2c-1.4-4.6,1.4-8.3,6.4-8.3
				C1063.8,786.5,1069,790.1,1070.4,794.7z"/>
		</g>
	</g>
	<g>
		<path class="st21" d="M1083.4,936.6c0,0,130.9,0.5,225.8,73.3c94.9,72.8,81.2,138.1,160,154.4c129.1,26.8,48.9-110.9,216.5-96.6
			L1772,1399h-579.9l-44.2-205.3L1083.4,936.6z"/>
	</g>
	<g>
		<path class="st0" d="M1499.1,1169c-8.9,0-18.9-1.2-30.1-3.5c-43.5-9-59.5-33.4-79.8-64.3c-16.8-25.6-37.7-57.4-80.7-90.4
			c-27-20.7-74.5-48.5-148-63.7c-44-9.1-76.7-9.3-77.1-9.3l0-2.4c0.3,0,33.4,0.2,77.5,9.4c40.8,8.4,99.8,26.4,149,64.1
			c43.3,33.2,64.3,65.2,81.2,90.9c20.8,31.6,35.8,54.4,78.3,63.3c60.5,12.6,74.2-11.2,90.1-38.7c17.7-30.7,37.7-65.5,126.3-57.9
			l-0.2,2.4c-87.2-7.5-106.8,26.6-124.1,56.7c-8,13.9-15.6,27.1-29,35.2C1523.5,1166.3,1512.6,1169,1499.1,1169z"/>
	</g>
	<g>
		<path class="st23" d="M1114,1057.7l33.3,132.6l44.9,208.7H1772l-29.2-108.4c0,0-85.8-47.8-202.2-6.1
			c-116.4,41.7-245.3,3.2-253.6-90.6C1277.6,1088.1,1180.4,1037.2,1114,1057.7z"/>
	</g>
	<g>
		<path class="st0" d="M1260.5,1120.4c-33.3-51.5-94.8-77.4-146.2-61.6l-0.7-2.3c52.4-16.2,115,10.2,148.9,62.6L1260.5,1120.4z"/>
	</g>
	<g>
		<g>
			
				<rect x="1458.6" y="1154.9" transform="matrix(0.9947 0.1028 -0.1028 0.9947 127.4281 -144.6945)" class="st0" width="18.9" height="18.9"/>
		</g>
		<g>
			
				<rect x="1477.7" y="1004.4" transform="matrix(0.2033 -0.9791 0.9791 0.2033 36.3497 2377.6631)" class="st0" width="3.1" height="324.2"/>
		</g>
		<g>
			<path class="st0" d="M1315.1,1133c0.3-3,3-5.2,6-4.9s5.2,3,4.9,6s-3,5.2-6,4.9C1317,1138.6,1314.8,1136,1315.1,1133z"/>
		</g>
		<g>
			<path class="st0" d="M1632.6,1198.9c0.3-3,3-5.2,6-4.9c3,0.3,5.2,3,4.9,6c-0.3,3-3,5.2-6,4.9S1632.3,1201.9,1632.6,1198.9z"/>
		</g>
	</g>
	<g>
		<g>
			
				<rect x="1235.5" y="961.3" transform="matrix(0.7276 0.686 -0.686 0.7276 1005.0346 -589.6417)" class="st0" width="18.9" height="18.9"/>
		</g>
		<g>
			
				<rect x="1241.4" y="892.2" transform="matrix(0.7057 -0.7085 0.7085 0.7057 -320.1998 1165.521)" class="st0" width="3.1" height="152"/>
		</g>
		<g>
			<path class="st0" d="M1184.9,911.2c1.9-2.3,5.3-2.7,7.7-0.8c2.3,1.9,2.7,5.3,0.8,7.7c-1.9,2.3-5.3,2.7-7.7,0.8
				C1183.4,916.9,1183,913.5,1184.9,911.2z"/>
		</g>
		<g>
			<path class="st0" d="M1292.6,1018.4c1.9-2.3,5.3-2.7,7.7-0.8c2.3,1.9,2.7,5.3,0.8,7.7c-1.9,2.3-5.3,2.7-7.7,0.8
				C1291,1024.2,1290.7,1020.7,1292.6,1018.4z"/>
		</g>
	</g>
	<g>
		<g>
			
				<rect x="1598.6" y="1066.9" transform="matrix(0.3908 -0.9205 0.9205 0.3908 -11.145 2135.9136)" class="st0" width="18.9" height="18.9"/>
		</g>
		<g>
			
				<rect x="1559.9" y="1074.6" transform="matrix(0.4162 -0.9093 0.9093 0.4162 -39.5836 2090.6711)" class="st0" width="96.9" height="3.1"/>
		</g>
		<g>
			<path class="st0" d="M1586.5,1125.4c-2.8-1-4.4-4.1-3.4-6.9c1-2.8,4.1-4.4,6.9-3.4c2.8,1,4.4,4.1,3.4,6.9
				C1592.4,1124.8,1589.3,1126.3,1586.5,1125.4z"/>
		</g>
		<g>
			<path class="st0" d="M1626.8,1037.2c-2.8-1-4.4-4.1-3.4-6.9c1-2.8,4.1-4.4,6.9-3.4c2.8,1,4.4,4.1,3.4,6.9
				C1632.7,1036.7,1629.6,1038.2,1626.8,1037.2z"/>
		</g>
	</g>
	<g>
		<g>
			<path class="st7" d="M1705.5,879.2L1735,1001c1.3,5.2-3.7,9.4-11,9.4h-303.2c-7.3,0-14.3-4.2-15.6-9.4l-29.5-121.8
				c-1.3-5.2,3.7-9.4,11-9.4h303.2C1697.3,869.8,1704.2,874,1705.5,879.2z"/>
		</g>
		<g>
			<g>
				<g>
					<polygon class="st17" points="1452.6,950.5 1420.4,950.5 1412.6,918.2 1444.8,918.2 					"/>
				</g>
				<g>
					<polygon class="st17" points="1472.7,966.6 1440.4,966.6 1432.6,934.3 1464.9,934.3 					"/>
				</g>
			</g>
			<g>
				<g>
					<polygon class="st17" points="1528,950.5 1495.7,950.5 1487.9,918.2 1520.2,918.2 					"/>
				</g>
				<g>
					<g>
						<polygon class="st24" points="1548,966.6 1515.7,966.6 1507.9,934.3 1540.2,934.3 						"/>
					</g>
					<g>
						<path class="st25" d="M1549.7,968h-35l-8.5-35h35L1549.7,968z M1516.8,965.2h29.5l-7.1-29.5h-29.5L1516.8,965.2z"/>
					</g>
				</g>
			</g>
			<g>
				<g>
					<polygon class="st24" points="1603.3,950.5 1571,950.5 1563.2,918.2 1595.5,918.2 					"/>
				</g>
				<g>
					<path class="st17" d="M1605,951.8h-35l-8.5-35h35L1605,951.8z M1572.1,949.1h29.5l-7.1-29.5h-29.5L1572.1,949.1z"/>
				</g>
				<g>
					<polygon class="st24" points="1623.3,966.6 1591.1,966.6 1583.3,934.3 1615.5,934.3 					"/>
				</g>
				<g>
					<path class="st17" d="M1625,968h-35l-8.5-35h35L1625,968z M1592.1,965.2h29.5l-7.1-29.5H1585L1592.1,965.2z"/>
				</g>
				<g>
					<g>
						<polygon class="st17" points="1605,951.8 1586,951.8 1581.4,932.9 1600.4,932.9 						"/>
					</g>
				</g>
			</g>
			<g>
				<g>
					<g>
						<polygon class="st17" points="1678.6,950.5 1646.4,950.5 1638.5,918.2 1670.8,918.2 						"/>
					</g>
				</g>
				<g>
					<g>
						<polygon class="st17" points="1698.7,966.6 1666.4,966.6 1658.6,934.3 1690.9,934.3 						"/>
					</g>
				</g>
				<g>
					<g>
						<polygon class="st24" points="1677.7,949.7 1662.9,949.7 1659.4,935 1674.2,935 						"/>
					</g>
				</g>
			</g>
		</g>
	</g>
	<g>
		<g>
			<path class="st22" d="M866.8,1263.9H755c-14.9,0-29.7-12.1-33-27L638,857.4c-3.3-14.9,6.1-27,21-27h111.7c14.9,0,29.7,12.1,33,27
				l84.1,379.5C891.1,1251.8,881.7,1263.9,866.8,1263.9z"/>
		</g>
		<g>
			<g>
				<rect x="651" y="915.7" class="st3" width="165.7" height="0.7"/>
			</g>
		</g>
		<g>
			<g>
				<rect x="670.8" y="1005.1" class="st3" width="165.7" height="0.7"/>
			</g>
		</g>
		<g>
			<g>
				<rect x="690.6" y="1094.6" class="st3" width="165.7" height="0.7"/>
			</g>
		</g>
		<g>
			<path class="st0" d="M752.4,889.4c0.2-1.9-8.4-34.8-8.4-34.8l30.4,24.6l-14.9-0.5L752.4,889.4z"/>
		</g>
		<g>
			<g>
				<g>
					<path class="st7" d="M843.9,1225h-58.8l-13-58.8h58.8L843.9,1225z M787.7,1221.7h52.1l-11.6-52.2h-52.1L787.7,1221.7z"/>
				</g>
			</g>
		</g>
		<g>
			<polygon class="st26" points="801.6,1191.6 746.1,1191.6 733.9,1136.1 789.3,1136.1 			"/>
		</g>
		<g>
			<g>
				
					<rect x="772.8" y="1193.2" transform="matrix(0.6143 -0.7891 0.7891 0.6143 -631.7689 1098.6594)" class="st26" width="70.3" height="4.7"/>
			</g>
		</g>
		<g>
			<g>
				<path class="st7" d="M677.7,889.4c0.2-1.9-8.4-34.8-8.4-34.8l30.4,24.6l-14.9-0.5L677.7,889.4z"/>
			</g>
			<g>
				<g>
					<g>
						<polygon class="st7" points="689.4,954.5 685,954.5 683.2,946.6 713.6,946.6 715.2,954.2 710.8,954.2 710.1,951 688.7,951 
													"/>
					</g>
				</g>
				<g>
					<g>
						<polygon class="st7" points="706.7,974 702.2,974 696.6,948.8 701.1,948.8 						"/>
					</g>
				</g>
				<g>
					<g>
						<polygon class="st7" points="710.7,975.6 698.9,975.6 697.9,971.2 709.7,971.2 						"/>
					</g>
				</g>
			</g>
			<g>
				<g>
					<polygon class="st7" points="771.3,978.4 767.2,975.5 788.5,942 792.6,944.9 					"/>
				</g>
			</g>
			<g>
				<g>
					<g>
						<path class="st7" d="M720,1056.6c-8.5,0-17-6.9-18.9-15.5c-1.9-8.5,3.5-15.5,12.1-15.5c8.5,0,17,6.9,18.9,15.5
							C734,1049.6,728.6,1056.6,720,1056.6z M714.1,1029.7c-6.3,0-10.3,5.1-8.9,11.4c1.4,6.3,7.6,11.4,13.9,11.4
							c6.3,0,10.3-5.1,8.9-11.4C726.6,1034.8,720.3,1029.7,714.1,1029.7z"/>
					</g>
				</g>
				<g>
					<g>
						<path class="st7" d="M749.5,1070c-0.5,0-1.1-0.2-1.6-0.6l-20.6-17.3c-1-0.8-1.2-2.1-0.6-2.9c0.6-0.8,1.9-0.8,2.9,0l20.6,17.3
							c1,0.8,1.2,2.1,0.6,2.9C750.5,1069.8,750,1070,749.5,1070z"/>
					</g>
				</g>
			</g>
			<g>
				<polygon class="st7" points="794.1,1024.2 801.7,1038.2 816.5,1038.2 806.5,1046.9 814.1,1060.9 800.3,1052.3 790.3,1060.9 
					791.7,1046.9 777.9,1038.2 792.6,1038.2 				"/>
			</g>
		</g>
	</g>
	<g>
		<g>
			<path class="st27" d="M2218.3,901.4c0,0,0.4,22.1-2.9,21.7c-3.3-0.4-7.8-18.5-7.9-18.3c0,0.3,1.5,19.1-2.7,20
				c-4.2,0.9-8.4-19.9-8.4-19.9s2.8,17.9-0.1,18.3c-2.9,0.5-7.5-16.9-8.8-16.9c-1.2,0,3.9,14.9,0.3,15.6
				c-3.6,0.8-11.5-20.2-8.8-22.9c2.7-2.7,6.9,0.2,6.9,0.2s5.2-3.9,9.2-1.7c0,0,9.4-1.9,12.2,2.3
				C2207.3,899.9,2213.2,894.9,2218.3,901.4z"/>
		</g>
		<g>
			<g>
				<path class="st7" d="M2278.7,816.8l75.8,273.4c3.2,11.7-4.2,21.2-16.5,21.2h-511.7c-12.4,0-25-9.5-28.3-21.2l-75.8-273.4
					c-3.2-11.7,4.2-21.2,16.5-21.2h511.7C2262.8,795.6,2275.4,805.1,2278.7,816.8z"/>
			</g>
			<g>
				<g>
					<polygon class="st28" points="1880.7,940.1 1814.6,940.1 1796.3,874 1862.4,874 					"/>
				</g>
				<g>
					<polygon class="st13" points="1860,923.9 1826.3,923.9 1816.9,890.2 1850.7,890.2 					"/>
				</g>
				<g>
					
						<rect x="1797.7" y="904.5" transform="matrix(0.5856 -0.8106 0.8106 0.5856 26.5387 1866.0581)" class="st26" width="81.5" height="5.2"/>
				</g>
				<g>
					<polygon class="st26" points="1833.6,904.3 1767.6,904.3 1749.2,838.2 1815.3,838.2 					"/>
				</g>
			</g>
			<g>
				<g>
					<polygon class="st26" points="1871.2,1018.1 1818.1,1018.1 1803.3,965 1856.5,965 					"/>
				</g>
				<g>
					<polygon class="st29" points="1923.8,1018.1 1870.7,1018.1 1856,965 1909.1,965 					"/>
				</g>
				<g>
					<polygon class="st30" points="1977,1018.1 1923.8,1018.1 1909.1,965 1962.2,965 					"/>
				</g>
				<g>
					<polygon class="st24" points="2030.1,1018.1 1977,1018.1 1962.2,965 2015.4,965 					"/>
				</g>
				<g>
					<polygon class="st12" points="2083.2,1018.1 2030.1,1018.1 2015.4,965 2068.5,965 					"/>
				</g>
				<g>
					<polygon class="st31" points="2136.3,1018.1 2083.2,1018.1 2068.5,965 2121.6,965 					"/>
				</g>
				<g>
					<polygon class="st13" points="2189.5,1018.1 2136.3,1018.1 2121.6,965 2174.7,965 					"/>
				</g>
				<g>
					<polygon class="st17" points="2242.6,1018.1 2189.5,1018.1 2174.7,965 2227.9,965 					"/>
				</g>
				<g>
					<polygon class="st32" points="1885.9,1071.2 1832.8,1071.2 1818.1,1018.1 1871.2,1018.1 					"/>
				</g>
				<g>
					<polygon class="st12" points="1938.6,1071.2 1885.4,1071.2 1870.7,1018.1 1923.8,1018.1 					"/>
				</g>
				<g>
					<polygon class="st13" points="1991.7,1071.2 1938.6,1071.2 1923.8,1018.1 1977,1018.1 					"/>
				</g>
				<g>
					<polygon class="st17" points="2044.8,1071.2 1991.7,1071.2 1977,1018.1 2030.1,1018.1 					"/>
				</g>
			</g>
			<g>
				<path class="st30" d="M2245.2,861h-278.3c-3.8,0-7.8-3.1-8.9-7l0,0c-1.1-3.8,1.2-7,5-7h278.3c3.8,0,7.8,3.1,8.9,7l0,0
					C2251.3,857.9,2249,861,2245.2,861z"/>
			</g>
			<g>
				<path class="st24" d="M2255,896.1h-278.3c-3.8,0-7.8-3.1-8.9-7l0,0c-1.1-3.8,1.2-7,5-7h278.3c3.8,0,7.8,3.1,8.9,7l0,0
					C2261,893,2258.8,896.1,2255,896.1z"/>
			</g>
			<g>
				<path class="st13" d="M2264.7,931.2h-278.3c-3.8,0-7.8-3.1-8.9-7l0,0c-1.1-3.8,1.2-7,5-7h278.3c3.8,0,7.8,3.1,8.9,7l0,0
					C2270.8,928.1,2268.5,931.2,2264.7,931.2z"/>
			</g>
			<g>
				<g>
					<path class="st13" d="M1919.6,843.8h8.4c4.4,0,7.6,2.4,8.6,6c0.9,3.1-0.5,4.9-2.9,5.7l7,7.1h-3.9l-6.5-6.6h-4.1l1.8,6.6h-3.3
						L1919.6,843.8z M1930.3,853.1c2.4,0,3.5-1.2,3-3.2c-0.6-2-2.3-3.1-4.8-3.1h-4.8l1.8,6.3H1930.3z"/>
				</g>
				<g>
					<path class="st13" d="M1929.3,888.7c-1.5-5.3,1.3-9.7,7-9.7c3.3,0,5.5,0.9,7.9,2.6l-1.4,2.5c-1.8-1.2-3.4-2-5.8-2
						c-3.5,0-5.3,3-4.2,6.7c1.1,3.9,4.4,6.7,8.3,6.7c1.8,0,3.2-0.6,4.1-1.4l-1-3.5h-4.8l-0.8-2.9h8l2.2,7.9c-1.4,1.6-3.7,2.9-7,2.9
						C1935.8,898.4,1930.8,894.2,1929.3,888.7z"/>
				</g>
				<g>
					<path class="st13" d="M1939.8,916.5h8.4c2.1,0,4,0.6,5.4,1.7c1.1,0.8,1.8,1.9,2.1,3.2c0.6,2.3-0.3,3.5-1.5,4.2
						c2.4,0.8,4.3,2,5,4.6c0.9,3.4-1.3,5.2-5.5,5.2h-8.7L1939.8,916.5z M1949.7,924.5c2.1,0,3.3-0.8,2.8-2.6c-0.4-1.5-1.8-2.4-4-2.4
						h-4.8l1.4,5H1949.7z M1952.9,932.4c2.3,0,3.4-0.9,2.9-2.6c-0.4-1.6-2-2.5-4.6-2.5h-5.2l1.4,5.2H1952.9z"/>
				</g>
			</g>
		</g>
	</g>
	<g>
		<g>
			<g>
				<path class="st16" d="M1218,850c-1.5,1.7-1.7,3.6-0.9,5.6c0,0,0,0,0,0c1.3,3.7,5.8,7.9,11,12c0.7,0.5,1.3,1,1.8,1.5
					c0.1,0.1,0.3,0.2,0.4,0.4c0.1,0.1,0.2,0.2,0.3,0.3c4.8,4.5,3,5.5,11.7,14.5c9.9,10.3,16.7,10.5,18.6,9.5
					c1.6-0.8-1.7-6.3-5.4-12.4c-0.2-0.3-0.4-0.6-0.5-0.9c-0.5-0.8-1-1.6-1.5-2.5c-4.3-7.4-3.2-10.8-2.2-21.8
					c0.8-8.9,13.9-49.9,13.9-49.9l-19-3.3c0,0-5.7,32.6-12,37.6c-3.4,2.7-7.1,2.7-10.4,4.7c-0.2,0.1-0.5,0.3-0.7,0.4
					C1221.4,847,1219.5,848.3,1218,850z"/>
			</g>
			<g>
				<path class="st18" d="M1218,850c-1.5,1.7-1.7,3.6-0.9,5.6c0,0,0,0,0,0c1.7,3.7,6,7.9,11,12c0.7,0.5,1.2,1,1.7,1.5
					c0.1,0.1,0.3,0.2,0.4,0.4c0.1,0.1,0.2,0.2,0.3,0.3c4.8,4.5,3,5.5,11.7,14.5c9.9,10.3,16.7,10.5,18.6,9.5
					c1.6-0.8-1.7-6.3-5.4-12.4c-1.9-0.7-10.9-4.3-17.6-13c-5.7-7.3-9.6-16.7-13.5-22.4c-0.4-0.1-0.7-0.1-1.1-0.2
					C1221.4,847,1219.5,848.3,1218,850z"/>
			</g>
			<g>
				<path class="st16" d="M1370.8,838.1c1.2,5.9,9.5,4.9,18.8,2.6c9.3-2.3,7.1,0.4,20.4-1c13.3-1.5,17.3-6.4,17.7-8.4
					c0.4-1.7-6.2-2.4-13.2-3.2c-0.9-0.1-1.8-0.2-2.7-0.3c-7.9-1-13.7-6.1-21-10.3c-6.8-4-17-20.2-17-20.2l-18.2,1.4
					c0,0,9.5,14.5,13.2,20.8c2.2,3.7,2.1,8.6,1.8,12.4C1370.6,834,1370.4,836.1,1370.8,838.1z"/>
			</g>
			<g>
				<path class="st18" d="M1389.7,840.7c9.3-2.3,7.1,0.4,20.4-1c13.3-1.5,17.3-6.4,17.7-8.4c0.4-1.7-6.2-2.4-13.2-3.2l-0.1,0.1
					c0,0-8,5.6-19,5.9c-9,0.2-18.5-2.4-24.7-2.3c-0.1,2.1-0.3,4.2,0.1,6.2C1372,844,1380.4,843,1389.7,840.7z"/>
			</g>
			<g>
				<path class="st33" d="M1301.2,721.9l-17,45.7l-22.2,59.7c0,0-6,0.6-11.8-1.1c-5.3-1.5-11.4-5.5-11.4-5.5s6.2-64.1,17.7-100.9
					c2.9-9.4,6.2-17.1,9.9-21.4C1284.1,677.3,1301.2,721.9,1301.2,721.9z"/>
			</g>
			<g>
				<path class="st21" d="M1283.9,649.2c-9.7-3.1-34.9,0-62.3,4.9c-7.6,1.4-15.2-2.1-19.2-8.7l0,0l-68.9-5.4
					c0,0-22.7,50.4-10.3,82.6c1.8,4.7,5.8,7.7,12,7.8c0,0,0,0,0,0c0,0,41.6,0.1,55,0.1c34.3,0,72.5-23.6,77.5-24.5
					c8.1-1.6,11.3,14.6,19.4,31.6s76.2,75.3,76.2,75.3s10.5,0.1,14.8-1.5c4.6-1.7,6.3-4,6.3-4S1309,657.3,1283.9,649.2z"/>
			</g>
			<g>
				<path class="st34" d="M1195.1,443.1c-5.1-3-10.1-3.5-13.2-3.4c-2.1,0.1-4.3-0.1-6.4-0.4c-26.3-3.9-42.1,34.3-43.1,45.9
					c-1.7,21.2-12.9,24.4-28.7,37.7c-31.6,26.6-22.4,57.5-5.1,69c10.4,6.9,28.7,0,28.7,0c0.3,0.2,50-27.8,74.6-41.3
					C1238.8,545.3,1209.8,451.9,1195.1,443.1z"/>
			</g>
			<g>
				<path class="st16" d="M1181.4,539.1c0.1,0.1-12.1,4.2-20.2,0.6c-7.7-3.4-13.5-16-13.4-16c3.5-0.2,7.3-3.2,10.3-23.2l1.5,0.5
					l25,9c0,0-1.8,8-3,15.6C1180.6,532,1180.1,538.2,1181.4,539.1z"/>
			</g>
			<g>
				<path class="st35" d="M1184.5,510c0,0-1,4.3-2.4,12.4c-14.3-2.6-20.5-13.6-22.5-21.4L1184.5,510z"/>
			</g>
			<g>
				<path class="st16" d="M1188.3,517.9c0,0-34.1-4.6-31-25.8c3.2-21.2,0.9-36.1,22.9-34.1c21.9,2,24.9,10.8,25.6,18.1
					C1206.4,483.5,1197.2,518.6,1188.3,517.9z"/>
			</g>
			<g>
				<path class="st34" d="M1204.5,464.5c0,0-21.9,18.8-36.7,20.4c-14.9,1.5-20.5-3.3-20.5-3.3s8.8-7.3,14-19
					c1.6-3.5,4.8-5.8,8.6-6.2C1180.6,455.5,1200.7,455.1,1204.5,464.5z"/>
			</g>
			<g>
				<path class="st34" d="M1190.9,462.8c0,0,7.3,7.1,9.6,12.3c2.2,5.1,2.9,17.2,1.1,22c0,0,11.4-22.2,4.9-32.9
					C1199.7,452.8,1190.9,462.8,1190.9,462.8z"/>
			</g>
			<g>
				<path class="st12" d="M1210.2,589.4c-1,69.1-0.3,54.7-7.8,61.2c-1.8,1.6-6.9,2.5-13.7,3c-21.2,1.4-58.5-2.1-59.9-6
					c-4.9-13.6-1.4-17.8-5.5-38.5c-0.4-2.2-1-4.6-1.6-7.2c-3.4-14.3-6.7-19.1,5.4-42c10.9-20.7,22.3-37.6,23.3-37
					c28.9,17.1,31.2,2.7,31.2,2.7S1210.7,555.7,1210.2,589.4z"/>
			</g>
			<g>
				<path class="st21" d="M1284.2,767.6l-22.2,59.7c0,0-6,0.6-11.8-1.1c-5.3-1.5-11.4-5.5-11.4-5.5s6.2-64.1,17.7-100.9
					L1284.2,767.6z"/>
			</g>
			<g>
				<path class="st12" d="M1181.6,525.6c0,0,29.7,5,33.2,17.8c3.5,12.8,15,90.4,15,90.4s-8.4,8.2-15.4,1.2c-7-7-22-72.6-22-72.6
					L1181.6,525.6z"/>
			</g>
			<g>
				<path class="st20" d="M1188.6,653.6c-21.2,1.4-58.5-2.1-59.9-6c-4.9-13.6-1.4-17.8-5.5-38.5l10.2-28.8c0,0-1.7,32.1,7.8,40.5
					c9.4,8.4,38.7,16.3,43.3,23.3C1186.8,647.5,1188.2,650.9,1188.6,653.6z"/>
			</g>
			<g>
				<path class="st16" d="M1164.4,640.1c0,0,20.9-4.7,24.3-2.8c3.4,1.9,11.6,8.6,12.7,11c1,2.4-7.5-1.8-10.3-2.5
					c-1.8-0.5-6.5,1.2-8.9,1.9c-9.9,3.3-15.9,1.6-15.9,1.6L1164.4,640.1z"/>
			</g>
			<g>
				<path class="st12" d="M1150.4,522.9c0,0-28.1,1.7-37.8,15.3c-13.7,19.1-40.8,100.4-25.3,111.3c17.5,12.2,79.7,3.2,79.7,3.2
					s2.1-9.7-0.8-14.4c-2.9-4.7-49.7-12.2-51.9-14.4c-2.2-2.2,27-42.1,27-48.6C1141.4,568.8,1150.4,522.9,1150.4,522.9z"/>
			</g>
			<g>
				<path class="st16" d="M1189.7,643.1c0,0,4.4,5.7,5.8,6.3c1.4,0.7,2.4,0.5,2.4,0.5l-3-5.3L1189.7,643.1z"/>
			</g>
			<g>
				<path class="st16" d="M1188.6,637.3l12.7,6.2c0,0-0.5,0.9-2.1,0.8c-1.6-0.1-5.5-1.5-5.5-1.5L1188.6,637.3z"/>
			</g>
		</g>
		<g>
			<g>
				<polygon class="st34" points="1297.4,651.8 1164.4,651.8 1164.4,654.8 1296.2,654.8 				"/>
			</g>
			<g>
				<polygon class="st34" points="1195.5,654.8 1296.2,654.8 1326.6,579.4 1225.9,579.4 				"/>
			</g>
			<g>
				<path class="st1" d="M1270.8,617.1c0.8-2.6-0.8-4.8-3.4-4.8s-5.4,2.1-6.2,4.8s0.8,4.8,3.4,4.8S1270,619.7,1270.8,617.1z"/>
			</g>
		</g>
	</g>
	<g>
		
			<rect x="1254.7" y="1117.8" transform="matrix(0.7544 0.6564 -0.6564 0.7544 1048.0747 -551.8657)" class="st0" width="13.7" height="13.7"/>
	</g>
	<g>
		<g>
			<path class="st33" d="M1128.7,1297.7c-2.1-6.8-3.1-7.5-3.1-7.5s-64.1,8-74.9,7.3c-6.4-0.4-83.4-26.1-83.4-26.1l-46.7,44.8
				c0,0,115.9,19.1,132.2,17.8c27-2.1,68.2-25.9,68.2-25.9S1130.3,1303,1128.7,1297.7z"/>
		</g>
		<g>
			<path class="st36" d="M953.5,1809.1c0,0,0.9,21.7,5.1,27l58,0.3c-0.4-2.2-0.6-7.4-8.7-8.8c-10.1-1.8-22-8.8-28.2-22.2
				C973.3,1791.3,953.5,1809.1,953.5,1809.1z"/>
		</g>
		<g>
			<path class="st36" d="M839.7,1806c0,0-4,28.8,1.4,29.3c0.7,0.1,23.4,0.4,33.2,0.6c11.5,0.2,30.5-0.2,30.5-0.2
				c2.4,0.1,3.9-2.5,2.7-4.5c-1.3-2.3-3.9-4.7-8.7-5.6c-10.1-1.9-26.9-9.4-32.8-22.9C859.8,1788.5,839.7,1806,839.7,1806z"/>
		</g>
		<g>
			<path class="st20" d="M983.7,1510.4c0,0-16.1,56.4-62.3,154.4c-46.2,98-48.2,145.2-48.2,145.2s-7,2.5-16.3,1.5
				c-10-1.1-17.1-5.6-17.1-5.6s3-116.6,24.8-166.1c21.8-49.5,26.3-184.8,26.3-184.8L983.7,1510.4z"/>
		</g>
		<g>
			<path class="st12" d="M1009.6,1461.8c0,0,1.3,87.4-13.8,194.7c-15.1,107.3-8,157.2-8,157.2s-4,2.9-16.3,2.9
				c-14.4-0.1-21.8-6-21.8-6s-21.6-107.3-15.4-161c6.2-53.7-29.6-184.3-29.6-184.3L1009.6,1461.8z"/>
		</g>
		<g>
			<path class="st16" d="M974.5,1244c-0.2,6.9-1.1,14.3-3.8,18l-15.4,8.1l-17.1-12.6c0,0,6.2-13.9,4.7-34.1c-0.2-1.2-0.8-9-0.8-9.1
				l8.5,4.3l23.2,11.6c0,0,0,0.5,0.2,1.1C974.2,1233.4,974.5,1238.4,974.5,1244z"/>
		</g>
		<g>
			<path class="st21" d="M889.2,1472.6c5.6,25.5,125.1,14.3,123.5-1.3c-0.1-0.5-0.4-7.7-0.8-17.5c-0.9-21-2.3-53.9-2.5-56.5
				c0,0,0-0.1,0-0.1c-2.2-21.7-4.2-42.9-4.4-56.8c-0.1-12-1.8-24.3-4-35.5c-2-10.3-4.5-19.7-6.7-26.9c-1.5-5.1-4.4-9.7-8.2-13.2
				c-2.7-2.5-5.8-4.6-9.3-5.9c-1-0.4-1.9-0.7-2.9-1c-14.1-4.1-28.2-9.3-33.5-7.7c-14.3,4.2-30.2,29.5-37.7,61.6
				C888.8,1371.7,885.6,1456,889.2,1472.6z"/>
		</g>
		<g>
			<path class="st37" d="M974.5,1244c-8.7-3.5-25.3-11.4-29.9-20.4c-2-4,1.1-5.2,6.1-5.2l23.2,11.6c0,0,0,0.5,0.2,1.1
				C974.2,1233.4,974.5,1238.4,974.5,1244z"/>
		</g>
		<g>
			<path class="st16" d="M985,1228.6c0,0-41.6,13-49.3-13.1c-7.7-26-18.2-41.9,8-51.3s34.3-1,39,7.1
				C987.4,1179.4,995.6,1224.5,985,1228.6z"/>
		</g>
		<g>
			<path class="st38" d="M981.1,1168.9c0,0-2.7,30.3-8.9,29c-6.3-1.3-11.9-2.3-11,6.8c0.9,9.1,1.2,20.1-18.1,21.7
				c-19.3,1.6-38.7-48.6-33.4-58C925.1,1141.2,1003.3,1135.7,981.1,1168.9z"/>
		</g>
		<g>
			<path class="st33" d="M1012,1453.9c-0.9-21-2.3-53.9-2.5-56.5c0,0,0-0.1,0-0.1l-70.6-42.2C938.9,1355.1,936.1,1453.6,1012,1453.9
				z"/>
		</g>
		<g>
			<g>
				<g>
					<path class="st38" d="M1255.5,1119.3l12.7,11.1c0,0-21.8,23.3-19.8,47.9l-32.6,27.5l-27-23.5l22.5-37.4
						C1211.5,1145,1235.7,1144.1,1255.5,1119.3z"/>
				</g>
				<g>
					<path class="st0" d="M1222.4,1159.3c2.6-3,7.2-3.3,10.2-0.7c3,2.6,3.3,7.2,0.7,10.2s-7.2,3.3-10.2,0.7
						C1220.1,1166.9,1219.8,1162.3,1222.4,1159.3z"/>
				</g>
				<g>
					
						<rect x="1241.4" y="1117.7" transform="matrix(0.7543 0.6565 -0.6565 0.7543 1058.3976 -534.0834)" class="st0" width="2.8" height="58.6"/>
				</g>
			</g>
			<g>
				
					<rect x="1181.6" y="1193" transform="matrix(0.7544 0.6564 -0.6564 0.7544 1080.6163 -493.2697)" class="st39" width="35.8" height="9"/>
			</g>
			<g>
				<path class="st38" d="M915,1525.7l-1.3-1.1c-7.1-6.2-7.8-16.9-1.7-24l271-311.5l27,23.5l-271,311.5
					C932.9,1531.2,922.1,1531.9,915,1525.7z"/>
			</g>
		</g>
		<g>
			<path class="st16" d="M1067.5,1364.7c0,0,5.2-4.6,6.4-7.8c0.4-1.1,4-6.1,10-5.7c5.5,0.4,15.4-11.4,15.4-11.4
				c1.4,3.1,6.4,14.8-0.7,20.7c-5.8,4.8-19.6,13.2-28.1,18.7C1061.6,1385.2,1067.5,1364.7,1067.5,1364.7z"/>
		</g>
		<g>
			<path class="st21" d="M1068.2,1363c0,0-70,11.9-76.2,8.9c-9.9-4.8,3.8-75.9,3.8-75.9s0.6-16.1-18.2-19.9
				c-16.3-3.3-32.1,8.9-32.1,8.9s-14.3,12.8-12.5,27.1c4.1,31.6,10.4,95.7,31.5,105.6c27.2,12.7,106-35.2,106-35.2s2.6-3.2,2.3-9.2
				C1072.4,1368,1068.2,1363,1068.2,1363z"/>
		</g>
		<g>
			<path class="st16" d="M1131.6,1302.8c0,0,17.7-6.4,16.1-15.5s-7.1-7.9-10.4-4.8C1134,1285.6,1135.8,1301.6,1131.6,1302.8z"/>
		</g>
		<g>
			<path class="st16" d="M1072.7,1360.1c0,0,2.4-7.1,5-10.1s3.7-8.2,4.8-6.5c1.2,1.7-0.9,7.9,0,10.2
				C1083.5,1356,1072.7,1360.1,1072.7,1360.1z"/>
		</g>
	</g>
	<g>
		<rect x="2322.2" y="1725.6" class="st3" width="316.7" height="110"/>
	</g>
	<g>
		<path class="st18" d="M2843.8,1842.6H156.2c-1.8,0-3.2-1.4-3.2-3.2v-1.4c0-1.8,1.4-3.2,3.2-3.2h2687.7c1.8,0,3.2,1.4,3.2,3.2v1.4
			C2847,1841.2,2845.6,1842.6,2843.8,1842.6z"/>
	</g>
</g>
</svg>
