<svg xmlns="http://www.w3.org/2000/svg" viewBox="0 0 247.82 256.03"><defs><style>.cls-1{opacity:0.13;}.cls-2{fill:#fff;}</style></defs><g id="Layer_2" data-name="Layer 2"><g id="Layer_1-2" data-name="Layer 1"><g class="cls-1"><path class="cls-2" d="M136.38,124.69a5.5,5.5,0,0,1,.23,1.81c-.51.92-1.69,1.43-2.81,2.05,1,.73,2.17,1.36,2.57,2.34a5.63,5.63,0,0,1-.42,1.77c-.4.78-.63,1.47-.88,1.59-.95.45-2.21.17-3.47,0,.41,1.2,1,2.38.7,3.4-.06.27-.69.63-1.38,1.19-.78.4-1.38.82-1.65.77-1-.19-1.88-1.16-2.81-2-.38,1.21-.63,2.48-1.43,3.16a5.34,5.34,0,0,1-1.82.15c-.87-.14-1.6-.14-1.78-.34-.73-.77-.84-2.05-1.09-3.3-1,.76-2,1.63-3,1.72-.28,0-.82-.47-1.56-.95s-1.21-1.06-1.24-1.33c-.14-1,.52-2.15,1.06-3.3-1.27,0-2.55.16-3.45-.39-.23-.14-.39-.85-.7-1.68a5.45,5.45,0,0,1-.23-1.8c.51-.93,1.69-1.44,2.81-2-1-.73-2.17-1.37-2.57-2.34a5.63,5.63,0,0,1,.42-1.77c.4-.78.63-1.48.88-1.59,1-.46,2.21-.17,3.47,0-.41-1.21-1-2.38-.7-3.4.06-.27.69-.64,1.38-1.19s1.38-.82,1.65-.77c1,.19,1.88,1.16,2.81,2,.37-1.22.63-2.48,1.43-3.16a5.31,5.31,0,0,1,1.81-.15,5.56,5.56,0,0,1,1.79.34c.73.77.84,2,1.08,3.3,1-.76,2-1.64,3-1.72.28,0,.82.47,1.56,1s1.21,1,1.24,1.33c.14,1-.52,2.15-1.06,3.3,1.27,0,2.55-.17,3.45.38C135.91,123.16,136.07,123.87,136.38,124.69Zm.8,4a18.63,18.63,0,0,1,3.95-5.3,18.54,18.54,0,0,1-6.06-2.64,18.21,18.21,0,0,1,.08-6.61,18.46,18.46,0,0,1-6.46,1.43,18.62,18.62,0,0,1-3.82-5.39,18.46,18.46,0,0,1-4.38,5,18.35,18.35,0,0,1-6.26-2.12,18.76,18.76,0,0,1-.63,6.58,18.42,18.42,0,0,1-6.32,2,18.43,18.43,0,0,1,3.36,5.7,18.63,18.63,0,0,1-4,5.3,18.54,18.54,0,0,1,6.06,2.63,18.26,18.26,0,0,1-.08,6.62,18.49,18.49,0,0,1,6.46-1.44,18.68,18.68,0,0,1,3.82,5.4,18.52,18.52,0,0,1,4.38-5,18.79,18.79,0,0,1,6.26,2.12,18.55,18.55,0,0,1,.63-6.58,18.64,18.64,0,0,1,6.32-2A18.54,18.54,0,0,1,137.18,128.73Z"/><path class="cls-2" d="M185.72,111.56a16.43,16.43,0,0,1,1.49,6.62,16.84,16.84,0,0,0,.29-7.1,17,17,0,0,0-3.78-6A16.77,16.77,0,0,1,185.72,111.56Z"/><path class="cls-2" d="M183.59,151a16.74,16.74,0,0,1-2.69,6.24,16.89,16.89,0,0,0,4.4-5.58,16.91,16.91,0,0,0,.49-7.09A16.78,16.78,0,0,1,183.59,151Z"/><path class="cls-2" d="M158.66,181.71a16.55,16.55,0,0,1-5.84,3.47,17,17,0,0,0,6.84-1.92,16.86,16.86,0,0,0,4.56-5.45A16.68,16.68,0,0,1,158.66,181.71Z"/><path class="cls-2" d="M120.46,191.89a16.77,16.77,0,0,1-6.76-.63,16.83,16.83,0,0,0,6.66,2.46,16.81,16.81,0,0,0,6.89-1.73A16.78,16.78,0,0,1,120.46,191.89Z"/><path class="cls-2" d="M83.58,177.66a16.74,16.74,0,0,1-5.11-4.48,16.94,16.94,0,0,0,4,5.91A16.84,16.84,0,0,0,89,181.74,16.65,16.65,0,0,1,83.58,177.66Z"/><path class="cls-2" d="M62.1,144.47a16.64,16.64,0,0,1-1.5-6.62,17,17,0,0,0-.28,7.09,16.68,16.68,0,0,0,3.78,6A16.39,16.39,0,0,1,62.1,144.47Z"/><path class="cls-2" d="M64.23,105a16.65,16.65,0,0,1,2.68-6.24,17,17,0,0,0-4.4,5.58,17,17,0,0,0-.48,7.08A16.62,16.62,0,0,1,64.23,105Z"/><path class="cls-2" d="M89.16,74.31A16.57,16.57,0,0,1,95,70.85a16.63,16.63,0,0,0-6.83,1.92,16.75,16.75,0,0,0-4.56,5.45A16.57,16.57,0,0,1,89.16,74.31Z"/><path class="cls-2" d="M127.36,64.14a16.6,16.6,0,0,1,6.76.63,16.83,16.83,0,0,0-6.66-2.46A16.81,16.81,0,0,0,120.57,64,16.6,16.6,0,0,1,127.36,64.14Z"/><path class="cls-2" d="M164.24,78.37a16.59,16.59,0,0,1,5.1,4.48,16.7,16.7,0,0,0-3.94-5.91,16.91,16.91,0,0,0-6.59-2.65A16.51,16.51,0,0,1,164.24,78.37Z"/><path class="cls-2" d="M170.94,115.49a45.65,45.65,0,0,1,11.77,5.8c2.38,1.74,3.93,5.71,4,10.11-.53,4.38-2.5,8.15-5.06,9.63a44.84,44.84,0,0,1-12.32,4.49c1.89,2.9,4.47,6.5,6.11,11.61.9,2.81-.17,6.93-2.72,10.53-3,3.23-6.81,5.13-9.75,4.82-5.34-.56-9.39-2.35-12.61-3.61a45.61,45.61,0,0,1-1.87,13c-.93,2.81-4.22,5.51-8.39,6.93-4.33.84-8.53.14-10.72-1.84a45.28,45.28,0,0,1-8.08-10.33,45.43,45.43,0,0,1-9.15,9.4c-2.4,1.73-6.65,2-10.86.67-4-1.85-7-4.9-7.59-7.78-1.12-5.25-.67-9.66-.47-13.11A45.19,45.19,0,0,1,80.3,168c-3,0-6.54-2.3-9.18-5.83-2.14-3.85-2.77-8.07-1.57-10.76a45.56,45.56,0,0,1,7.33-10.88,45.65,45.65,0,0,1-11.77-5.8c-2.38-1.74-3.93-5.71-4-10.12.53-4.37,2.5-8.15,5.06-9.62a45.24,45.24,0,0,1,12.32-4.5,45.36,45.36,0,0,1-6.11-11.6c-.9-2.81.17-6.94,2.71-10.54,3-3.22,6.82-5.12,9.76-4.81a45.14,45.14,0,0,1,12.61,3.61,45.27,45.27,0,0,1,1.87-13c.92-2.8,4.22-5.5,8.39-6.92,4.32-.85,8.53-.14,10.72,1.84a45.06,45.06,0,0,1,8.08,10.33,45.43,45.43,0,0,1,9.15-9.4c2.39-1.73,6.65-2,10.86-.68,4,1.86,7,4.9,7.59,7.79,1.12,5.25.67,9.66.47,13.11A45.09,45.09,0,0,1,167.52,88c2.95,0,6.54,2.31,9.18,5.84,2.14,3.85,2.77,8.07,1.57,10.76A45.56,45.56,0,0,1,170.94,115.49Zm-21.25,13.92c5.65-7.16,15.48-9.75,22.63-2.84a9.8,9.8,0,0,1,2.5,4.19,9.82,9.82,0,0,1-2.93,3.9C164,140.76,154.54,137.12,149.69,129.41ZM145.58,114c.37-9.11,6.8-17,16.65-15.6a9.74,9.74,0,0,1,4.48,1.92,9.88,9.88,0,0,1-.08,4.88C163.86,114.74,154,117.38,145.58,114ZM133.2,103.93c-5.06-7.59-4.48-17.74,4.3-22.41a9.67,9.67,0,0,1,4.75-1.07,9.77,9.77,0,0,1,2.81,4C148.43,93.79,142,101.7,133.2,103.93Zm-15.93-.86c-8.55-3.17-14-11.72-9.69-20.65a9.65,9.65,0,0,1,3.21-3.67,9.81,9.81,0,0,1,4.62,1.58C123.63,85.92,123.11,96.07,117.27,103.07Zm-13.4,8.66c-8.77,2.47-18.25-1.21-20-11a9.75,9.75,0,0,1,.45-4.86A9.69,9.69,0,0,1,89,94.44C98.94,94.12,104.49,102.64,103.87,111.73Zm-5.74,14.89c-5.65,7.15-15.48,9.74-22.63,2.84a9.8,9.8,0,0,1-2.5-4.19,9.66,9.66,0,0,1,2.93-3.9C83.79,115.27,93.28,118.9,98.13,126.62ZM102.24,142c-.37,9.11-6.8,17-16.65,15.6a9.75,9.75,0,0,1-4.48-1.93,9.72,9.72,0,0,1,.08-4.87C84,141.29,93.78,138.64,102.24,142Zm12.38,10.06c5.06,7.58,4.48,17.74-4.3,22.4a9.71,9.71,0,0,1-4.76,1.08,9.75,9.75,0,0,1-2.8-4C99.39,162.24,105.78,154.33,114.62,152.1Zm15.93.86c8.55,3.16,14,11.72,9.69,20.65a9.72,9.72,0,0,1-3.21,3.67,9.72,9.72,0,0,1-4.62-1.59C124.19,170.11,124.71,160,130.55,153Zm13.4-8.67c8.77-2.46,18.25,1.22,20,11a9.65,9.65,0,0,1-.44,4.86,9.8,9.8,0,0,1-4.66,1.43C148.88,161.91,143.33,153.38,144,144.29Zm23.82-13.91a3.34,3.34,0,0,0-1-.34c.26-.61.4-1.3-.18-1.55a5,5,0,0,0-6.14,1.5,5,5,0,0,0,5.95,2.15c.59-.19.53-.89.34-1.53A3.44,3.44,0,0,0,167.77,130.38Zm-7-26.23a3.15,3.15,0,0,0-1,.29c-.15-.65-.44-1.28-1.06-1.15a5,5,0,0,0-4.08,4.82,5,5,0,0,0,6.07-1.76c.37-.5-.09-1-.62-1.43A3.35,3.35,0,0,0,160.78,104.15ZM139.71,87a3.48,3.48,0,0,0-.61.81c-.5-.44-1.12-.78-1.53-.31a5,5,0,0,0-.48,6.3,5,5,0,0,0,3.88-5c0-.62-.68-.78-1.34-.79A3.14,3.14,0,0,0,139.71,87Zm-27.1-1.46a3.35,3.35,0,0,0,0,1c-.66-.07-1.35,0-1.42.64a5,5,0,0,0,3.32,5.38,5,5,0,0,0,.21-6.32c-.37-.5-1-.23-1.56.15A3.17,3.17,0,0,0,112.61,85.57ZM89.82,100.32a3.23,3.23,0,0,0,.58.83c-.58.34-1.09.82-.77,1.36a5,5,0,0,0,5.85,2.4,5,5,0,0,0-3.55-5.23c-.6-.2-1,.4-1.17,1A3.36,3.36,0,0,0,89.82,100.32Zm-9.77,25.33a3.36,3.36,0,0,0,1,.33c-.26.61-.4,1.3.18,1.56a5,5,0,0,0,6.14-1.5,5,5,0,0,0-6-2.15c-.59.19-.54.89-.34,1.52A3.12,3.12,0,0,0,80.05,125.65Zm7,26.23a3.82,3.82,0,0,0,1-.29c.15.65.44,1.28,1,1.15a5,5,0,0,0,4.09-4.82,5,5,0,0,0-6.07,1.75c-.37.51.09,1,.62,1.44A3,3,0,0,0,87,151.88ZM108.1,169a3.22,3.22,0,0,0,.62-.8c.5.44,1.11.77,1.53.31a5,5,0,0,0,.48-6.31,5,5,0,0,0-3.88,5c0,.63.67.79,1.34.8A3.43,3.43,0,0,0,108.1,169Zm27.11,1.47a3.09,3.09,0,0,0,0-1c.67.06,1.36,0,1.43-.65a5,5,0,0,0-3.32-5.38,5,5,0,0,0-.21,6.32c.36.51,1,.24,1.56-.14A3.08,3.08,0,0,0,135.21,170.46ZM158,155.71a3.44,3.44,0,0,0-.58-.84c.57-.34,1.09-.82.77-1.36a5,5,0,0,0-5.85-2.4,5,5,0,0,0,3.55,5.24c.59.19,1-.41,1.17-1A3.42,3.42,0,0,0,158,155.71Zm23.28-24.6a4,4,0,0,0-.11-.54c-1.46-5.92-8.27-10.9-9.76-11.43-1.15-.41-3.57,1.15-4.69,1.92-.9-.23.46-3.26-1.36-4.08,1.17-1.62-1.52-3.57-.85-4.22,1.35.11,4.23.26,5-.67,1-1.2,4.46-8.9,2.79-14.77a3.52,3.52,0,0,0-.18-.52,4.91,4.91,0,0,0-.4-.38c-4.67-3.93-13.1-4-14.62-3.5-1.17.34-2.21,3-2.66,4.3-.87.35-1.55-2.91-3.51-2.5,0-2-3.32-2-3.16-2.91,1.16-.7,3.57-2.28,3.67-3.49.13-1.58-1.63-9.83-6.42-13.59a5.53,5.53,0,0,0-.46-.32,4.34,4.34,0,0,0-.55-.07c-6.08-.43-12.92,4.5-13.88,5.76-.74,1,0,3.75.37,5.05-.49.79-3-1.45-4.3,0-1.17-1.62-3.86.34-4.27-.5.52-1.24,1.55-3.94.91-5-.82-1.35-7.09-7-13.18-7.21a3.3,3.3,0,0,0-.55,0,4.7,4.7,0,0,0-.49.26C103.47,76,100.83,84,100.79,85.58c0,1.22,2.2,3,3.27,3.87.07.93-3.24.56-3.45,2.55-1.91-.62-2.93,2.55-3.76,2.11-.3-1.32-1.06-4.1-2.18-4.57-1.46-.61-9.85-1.49-14.91,1.91a3.93,3.93,0,0,0-.44.34,4.66,4.66,0,0,0-.24.5c-2.29,5.65.29,13.68,1.19,15,.68,1,3.56,1.17,4.92,1.21.59.71-2.3,2.36-1.3,4.1-1.9.62-.87,3.78-1.8,3.91-1-.89-3.26-2.69-4.45-2.41-1.54.36-8.84,4.58-10.94,10.31a4,4,0,0,0-.16.53,4,4,0,0,0,.11.54c1.46,5.92,8.27,10.9,9.76,11.43,1.15.4,3.57-1.15,4.69-1.92.9.23-.46,3.26,1.36,4.08-1.18,1.62,1.52,3.57.85,4.22-1.35-.12-4.23-.26-5,.67-1,1.2-4.46,8.9-2.79,14.76a3.66,3.66,0,0,0,.18.53c.12.12.25.25.4.38,4.67,3.92,13.1,3.95,14.62,3.5,1.16-.34,2.21-3,2.66-4.3.87-.35,1.55,2.91,3.5,2.49,0,2,3.33,2,3.17,2.92-1.16.7-3.57,2.28-3.67,3.49-.13,1.58,1.63,9.83,6.42,13.59a5.53,5.53,0,0,0,.46.32l.55.07c6.08.43,12.92-4.51,13.88-5.76.74-1,0-3.75-.38-5.05.5-.79,3,1.45,4.31,0,1.17,1.62,3.86-.34,4.27.5-.52,1.25-1.55,3.94-.92,5,.83,1.35,7.1,7,13.19,7.22a3.33,3.33,0,0,0,.55,0,3.45,3.45,0,0,0,.49-.27C144.35,180,147,172,147,170.45c0-1.22-2.2-3-3.28-3.87-.06-.93,3.25-.57,3.46-2.56,1.91.62,2.93-2.54,3.76-2.11.3,1.32,1.06,4.1,2.18,4.57,1.46.61,9.85,1.49,14.91-1.91.16-.11.31-.22.44-.33s.16-.32.24-.5c2.29-5.65-.29-13.68-1.19-15-.69-1-3.56-1.17-4.92-1.2-.59-.72,2.3-2.37,1.3-4.1,1.9-.62.87-3.78,1.79-3.91,1,.88,3.27,2.69,4.46,2.41,1.54-.37,8.84-4.58,10.94-10.31C181.18,131.46,181.24,131.28,181.28,131.11Zm-30.63-10.22a16.39,16.39,0,0,0,0,4.14c-.83.73-2.33-2.25-5.15-.33a11.65,11.65,0,0,0-3,4.32,11.64,11.64,0,0,0,2.56,4.62c2.59,2.2,4.41-.59,5.16.22a16.28,16.28,0,0,0-.51,4.11,16.46,16.46,0,0,0-2.38,3.38c-1.1.1-.57-3.19-4-3.3a11.69,11.69,0,0,0-5,1.71,11.74,11.74,0,0,0-.64,5.25c.8,3.3,3.91,2.11,4,3.2a16.63,16.63,0,0,0-2.82,3,16.81,16.81,0,0,0-3.92,1.33c-.94-.56,1.42-2.91-1.27-5A11.71,11.71,0,0,0,128.7,146a11.61,11.61,0,0,0-3.6,3.87c-1.3,3.15,1.92,4,1.38,5a16.11,16.11,0,0,0-4.06.79,16.59,16.59,0,0,0-4-1.22c-.44-1,2.85-1.53,1.91-4.8a11.85,11.85,0,0,0-3.17-4.23,11.68,11.68,0,0,0-5.19,1c-2.9,1.79-.8,4.37-1.8,4.83a16.87,16.87,0,0,0-3.76-1.74,16.9,16.9,0,0,0-2.47-3.32c.24-1.07,3.2.45,4.36-2.75a11.69,11.69,0,0,0-.08-5.29,11.61,11.61,0,0,0-4.79-2.23c-3.39-.26-3.21,3.07-4.3,2.85a16.33,16.33,0,0,0-2-3.62,16.31,16.31,0,0,0,0-4.13c.83-.73,2.33,2.24,5.15.33a11.74,11.74,0,0,0,3-4.32,11.69,11.69,0,0,0-2.56-4.63c-2.59-2.2-4.41.6-5.16-.22a16.13,16.13,0,0,0,.51-4.1,16.73,16.73,0,0,0,2.38-3.38c1.1-.1.57,3.19,4,3.3a11.76,11.76,0,0,0,5-1.71,11.65,11.65,0,0,0,.65-5.25c-.8-3.3-3.91-2.11-4-3.21a16.53,16.53,0,0,0,2.82-3,16.51,16.51,0,0,0,3.91-1.34c.95.57-1.41,2.92,1.28,5a11.69,11.69,0,0,0,5.05,1.57,11.61,11.61,0,0,0,3.6-3.87c1.3-3.15-1.92-4-1.38-5a17.06,17.06,0,0,0,4.06-.79,16.78,16.78,0,0,0,3.95,1.22c.44,1-2.86,1.53-1.91,4.79a11.78,11.78,0,0,0,3.17,4.24,11.68,11.68,0,0,0,5.19-1c2.9-1.79.8-4.38,1.8-4.84a16.52,16.52,0,0,0,3.75,1.75,16.88,16.88,0,0,0,2.48,3.31c-.24,1.08-3.21-.44-4.36,2.76a11.51,11.51,0,0,0,.08,5.28,11.66,11.66,0,0,0,4.79,2.24c3.39.26,3.21-3.07,4.3-2.85A16.08,16.08,0,0,0,150.65,120.89Zm37.9,10.61c-.08-5.77-2.59-12.23-8.22-18.51,1.76-8.25.72-15.1-2.07-20.15-3.46-4.62-9.29-8.37-17.53-10.14-3.43-7.71-8.3-12.65-13.53-15.09-5.51-1.7-12.43-1.31-20.14,2.1-7.31-4.22-14.14-5.35-19.81-4.26C101.79,67.32,96.42,71.7,92.19,79c-8.39.87-14.59,4-18.53,8.19-3.32,4.72-5.09,11.42-4.23,19.81-6.27,5.64-9.46,11.8-10.17,17.52.09,5.77,2.6,12.24,8.23,18.52-1.76,8.25-.72,15.1,2.07,20.15,3.46,4.61,9.29,8.37,17.53,10.14,3.43,7.71,8.3,12.64,13.52,15.09,5.52,1.69,12.44,1.31,20.15-2.1,7.3,4.22,14.14,5.35,19.81,4.25,5.46-1.86,10.83-6.24,15.06-13.54,8.39-.87,14.59-4,18.53-8.2,3.32-4.71,5.09-11.41,4.23-19.81C184.66,143.38,187.85,137.23,188.55,131.5Z"/><path class="cls-2" d="M239.86,134.27c-.73-6-4.65-13.39-18.05-17.69,0,0,10.9-6.54,10.6,2.7,9.62.23,5.94,6.39,6.39,7.22,1.31,2.4,7.24,2,4.51,8,2.07,6.22-3.78,5.18-5.34,7.43-.54.77,2.46,7.29-7.13,6.48-.7,9.23-10.83,1.55-10.83,1.55C233.79,147.08,238.49,140.15,239.86,134.27Z"/><path class="cls-2" d="M214,201.23c2.93-5.28,4.1-13.56-4.2-24.92,0,0,12.66,1.11,7,8.42,7.65,5.83,1.05,8.65.93,9.59-.36,2.71,4.68,5.87-1,9.09-2,6.25-6.1,2-8.69,2.87-.89.31-2.3,7.35-9.58,1.06-6,7-9.67-5.11-9.67-5.11C201.6,208,209.47,205.18,214,201.23Z"/><path class="cls-2" d="M153.79,240.22c5.47-2.54,11.29-8.56,11.25-22.63,0,0,9.59,8.34.7,10.92,2.76,9.22-4.24,7.62-4.89,8.3-1.88,2,.34,7.5-6.17,6.75-5.28,3.89-6.1-2-8.72-2.78-.9-.28-6.18,4.59-8.37-4.78-9,2.19-4.82-9.82-4.82-9.82C139.73,238.41,147.77,240.74,153.79,240.22Z"/><path class="cls-2" d="M82.13,236.35c5.92,1.16,14.17-.28,22.4-11.69,0,0,2.85,12.38-5.85,9.24-3.18,9.08-7.91,3.67-8.83,3.85-2.7.5-4.14,6.26-9,1.83-6.55,0-3.75-5.2-5.41-7.38-.57-.75-7.7.09-4-8.78-8.55-3.51,1.88-10.78,1.88-10.78C71.82,226.63,77,233.23,82.13,236.35Z"/><path class="cls-2" d="M26.43,191.1c4.11,4.42,11.63,8.1,25,3.71,0,0-5,11.7-10.17,4-7.91,5.47-8.56-1.68-9.41-2.08-2.47-1.18-7,2.64-8.33-3.79-5.33-3.81,0-6.41,0-9.15,0-.94-6.28-4.46,1.95-9.44-4.85-7.87,7.85-7.61,7.85-7.61C23.8,177.17,24.08,185.54,26.43,191.1Z"/><path class="cls-2" d="M8,121.75c.73,6,4.65,13.39,18.05,17.7,0,0-10.9,6.54-10.6-2.71-9.62-.22-5.94-6.39-6.39-7.21-1.31-2.41-7.24-2-4.51-8-2.07-6.22,3.78-5.18,5.34-7.43.54-.77-2.46-7.3,7.13-6.49.7-9.22,10.83-1.54,10.83-1.54C14,108.94,9.33,115.87,8,121.75Z"/><path class="cls-2" d="M33.78,54.8c-2.93,5.27-4.1,13.56,4.2,24.92,0,0-12.66-1.12-7-8.42-7.65-5.84-1.05-8.66-.93-9.59.36-2.72-4.68-5.88,1-9.09,2-6.25,6.1-2,8.69-2.87.89-.31,2.3-7.35,9.58-1.06,6-7,9.67,5.11,9.67,5.11C46.22,48,38.35,50.84,33.78,54.8Z"/><path class="cls-2" d="M94,15.8c-5.47,2.55-11.29,8.56-11.25,22.64,0,0-9.59-8.35-.7-10.92-2.76-9.22,4.24-7.62,4.89-8.3,1.88-2-.34-7.51,6.17-6.76,5.28-3.89,6.1,2,8.72,2.79.9.27,6.18-4.59,8.37,4.78,9-2.19,4.82,9.81,4.82,9.81C108.09,17.61,100.05,15.29,94,15.8Z"/><path class="cls-2" d="M165.69,19.67c-5.92-1.16-14.17.29-22.4,11.7,0,0-2.85-12.39,5.85-9.24,3.18-9.08,7.91-3.68,8.83-3.85,2.69-.5,4.14-6.27,9-1.83,6.55-.05,3.75,5.19,5.41,7.37.57.75,7.7-.08,4,8.79,8.55,3.51-1.88,10.77-1.88,10.77C176,29.4,170.86,22.79,165.69,19.67Z"/><path class="cls-2" d="M221.39,64.92c-4.11-4.42-11.63-8.09-25-3.7,0,0,5-11.7,10.17-4,7.91-5.48,8.56,1.67,9.41,2.08,2.47,1.17,7-2.64,8.33,3.78,5.32,3.82,0,6.42,0,9.16,0,.94,6.28,4.45-2,9.43,4.86,7.87-7.84,7.62-7.84,7.62C224,78.85,223.74,70.49,221.39,64.92Z"/><path class="cls-2" d="M242.11,113.77c-1.37-9.18-22-3.38-26.26.4,7.85-13.15,32.15-13.31,32,1.6-.06,4.62-6.47,7.47-11.18,3.66C232.09,115.75,236.57,107.94,242.11,113.77Z"/><path class="cls-2" d="M211.16,47c-6.5-6.63-19.8,10.2-21,15.75C188.78,47.52,208.34,33.1,217,45.28c2.66,3.76-.84,9.84-6.89,9.53C204.22,54.5,203.26,45.55,211.16,47Z"/><path class="cls-2" d="M146.89,11.2c-9.16-1.53-10,19.9-7.74,25.1-10.07-11.54-2.72-34.7,11.41-29.91,4.37,1.48,5.1,8.45,0,11.76C145.67,21.34,139.63,14.66,146.89,11.2Z"/><path class="cls-2" d="M73.84,20c-8.31,4.14,3.59,22,8.49,24.85C67.4,41.44,59.74,18.38,74,14c4.4-1.37,9.1,3.84,6.93,9.5C78.81,28.92,70,27.07,73.84,20Z"/><path class="cls-2" d="M19.92,70.06C15.63,78.3,35.74,85.74,41.39,85.17,27.31,91.19,7.55,77,16.47,65.08c2.76-3.69,9.62-2.24,11.19,3.61C29.18,74.35,21,78,19.92,70.06Z"/><path class="cls-2" d="M5.71,142.26c1.37,9.18,22,3.37,26.26-.4C24.12,155-.18,155.17,0,140.25c.06-4.61,6.47-7.46,11.18-3.65C15.73,140.28,11.24,148.09,5.71,142.26Z"/><path class="cls-2" d="M36.66,209c6.5,6.62,19.8-10.21,21-15.76,1.37,15.26-18.19,29.67-26.81,17.5-2.66-3.77.84-9.84,6.89-9.53C43.6,201.52,44.56,210.48,36.66,209Z"/><path class="cls-2" d="M100.93,244.83c9.16,1.53,10-19.9,7.73-25.1,10.08,11.53,2.73,34.7-11.4,29.91-4.37-1.48-5.1-8.46,0-11.76C102.15,234.69,108.18,241.37,100.93,244.83Z"/><path class="cls-2" d="M174,236c8.31-4.14-3.59-22-8.49-24.85,14.93,3.41,22.59,26.47,8.35,30.91-4.4,1.37-9.1-3.84-6.93-9.5C169,227.11,177.82,229,174,236Z"/><path class="cls-2" d="M227.9,186c4.29-8.23-15.82-15.67-21.47-15.11,14.08-6,33.83,8.14,24.92,20.09-2.76,3.7-9.62,2.24-11.19-3.61C218.64,181.68,226.86,178,227.9,186Z"/><path class="cls-2" d="M239.89,154.9c-2.35,9-22.26,1-26.07-3.23,6.4,13.92,30.54,16.7,32,1.85.44-4.59-5.62-8.12-10.72-4.84C230.14,151.85,233.76,160.1,239.89,154.9Z"/><path class="cls-2" d="M233.54,81.59c3.38,8.65-17.42,13.88-23,12.71,13.35,7.5,34.52-4.44,26.94-17.29-2.35-4-9.32-3.26-11.52,2.39C223.87,84.86,231.64,89.4,233.54,81.59Z"/><path class="cls-2" d="M185.32,26c7.81,5-5.94,21.47-11.12,23.79C189.41,48,199.51,25.93,185.83,20c-4.23-1.84-9.46,2.84-7.92,8.7C179.41,34.35,188.37,33.46,185.32,26Z"/><path class="cls-2" d="M113.64,9.41c9.27-.54,7.81,20.85,5,25.78,11.25-10.38,6.44-34.2-8.12-31-4.5,1-6,7.85-1.29,11.68C113.76,19.61,120.48,13.63,113.64,9.41Z"/><path class="cls-2" d="M45.88,38.1C53.06,32.21,64.47,50.37,65.07,56c3-15-14.89-31.45-24.76-20.28-3.06,3.46-.23,9.88,5.82,10.22C52,46.29,53.9,37.49,45.88,38.1Z"/><path class="cls-2" d="M7.93,101.13c2.35-9,22.25-1,26.07,3.22C27.6,90.44,3.46,87.66,2,102.51c-.44,4.59,5.62,8.12,10.71,4.84C17.68,104.17,14.06,95.93,7.93,101.13Z"/><path class="cls-2" d="M14.28,174.43c-3.38-8.64,17.42-13.88,23-12.71-13.35-7.5-34.52,4.44-26.94,17.29,2.34,4,9.32,3.27,11.52-2.38C24,171.17,16.18,166.62,14.28,174.43Z"/><path class="cls-2" d="M62.5,230c-7.81-5,5.94-21.47,11.12-23.79C58.41,208,48.31,230.1,62,236c4.23,1.83,9.46-2.84,7.91-8.7C68.41,221.68,59.45,222.57,62.5,230Z"/><path class="cls-2" d="M134.18,246.62c-9.27.54-7.82-20.86-5-25.78-11.26,10.38-6.44,34.2,8.12,31,4.5-1,6-7.85,1.29-11.69C134.06,236.41,127.34,242.4,134.18,246.62Z"/><path class="cls-2" d="M201.93,217.93c-7.18,5.89-18.58-12.28-19.19-17.93-3,15,14.89,31.46,24.77,20.28,3.06-3.45.23-9.87-5.82-10.21C195.84,209.74,193.92,218.54,201.93,217.93Z"/><path class="cls-2" d="M247.79,95c-1.35,2.22-4.07,4.31-8.39,5.09-8.34,1.5-11.05,4.51-11.05,4.51.86-5.37,7.76-6,11.42-7.47-3.9.56-10.21,3.43-13.62-.79,0,0,3.84,1.26,11.83-1.58C242.11,93.31,245.52,93.77,247.79,95Z"/><path class="cls-2" d="M243.52,174.14c-2.4,1-5.83,1.1-9.78-.81-7.63-3.69-11.59-2.85-11.59-2.85,3.85-3.83,9.81-.29,13.62.67-3.47-1.83-10.27-3.22-10.54-8.64,0,0,2.36,3.28,10.5,5.67C239.94,169.42,242.42,171.79,243.52,174.14Z"/><path class="cls-2" d="M193.56,235.64c-2.53-.6-5.36-2.54-7.43-6.41-4-7.47-7.7-9.11-7.7-9.11,5.36-.85,8.11,5.52,10.62,8.55-1.73-3.53-6.41-8.65-3.45-13.2,0,0,0,4.05,5.16,10.76C193.44,229.71,194.05,233.09,193.56,235.64Z"/><path class="cls-2" d="M117,256c-1.69-2-2.84-5.21-2.25-9.56,1.15-8.4-.87-11.9-.87-11.9,4.83,2.47,3.31,9.24,3.57,13.16.67-3.87-.11-10.76,5-12.7,0,0-2.39,3.26-2.15,11.74C120.38,251.16,118.9,254.25,117,256Z"/><path class="cls-2" d="M43.07,227.52c-.21-2.59.77-5.89,3.8-9.05,5.87-6.12,6.29-10.15,6.29-10.15,2.46,4.85-2.75,9.43-4.85,12.75,2.83-2.74,6.24-8.77,11.49-7.36,0,0-3.86,1.24-8.64,8.23C48.68,225.57,45.65,227.19,43.07,227.52Z"/><path class="cls-2" d="M0,161c1.35-2.22,4.07-4.31,8.39-5.09,8.34-1.5,11-4.51,11-4.51-.86,5.36-7.76,6-11.42,7.46,3.9-.55,10.21-3.43,13.62.8,0,0-3.85-1.26-11.83,1.58C5.7,162.71,2.3,162.25,0,161Z"/><path class="cls-2" d="M4.3,81.88c2.4-1,5.83-1.09,9.78.82,7.63,3.69,11.59,2.84,11.59,2.84-3.85,3.84-9.81.3-13.62-.67,3.47,1.84,10.27,3.23,10.54,8.65,0,0-2.36-3.28-10.5-5.67C7.88,86.61,5.4,84.24,4.3,81.88Z"/><path class="cls-2" d="M54.26,20.39c2.53.6,5.35,2.54,7.43,6.41,4,7.47,7.7,9.11,7.7,9.11-5.36.84-8.11-5.53-10.62-8.55,1.73,3.53,6.41,8.64,3.45,13.2,0,0,0-4.05-5.16-10.77C54.38,26.32,53.77,22.94,54.26,20.39Z"/><path class="cls-2" d="M130.82,0c1.69,2,2.84,5.21,2.25,9.56-1.15,8.39.87,11.9.87,11.9-4.83-2.48-3.31-9.24-3.57-13.16-.67,3.87.11,10.76-5,12.7,0,0,2.38-3.27,2.15-11.74C127.43,4.87,128.92,1.78,130.82,0Z"/><path class="cls-2" d="M204.74,28.51c.22,2.59-.76,5.88-3.79,9.05-5.87,6.12-6.29,10.14-6.29,10.14-2.46-4.84,2.75-9.42,4.85-12.74-2.83,2.73-6.24,8.77-11.49,7.35,0,0,3.85-1.23,8.64-8.23C199.14,30.46,202.17,28.83,204.74,28.51Z"/><path class="cls-2" d="M190.3,110.34a16.61,16.61,0,0,0-2.11,7.84,16.83,16.83,0,0,1-.26-7.21,16.82,16.82,0,0,1-3.36-6.39A16.62,16.62,0,0,0,190.3,110.34Z"/><path class="cls-2" d="M188,152.74a16.49,16.49,0,0,0-6.32,5.1,16.93,16.93,0,0,1,4-6,16.92,16.92,0,0,1,1-7.14A16.57,16.57,0,0,0,188,152.74Z"/><path class="cls-2" d="M161.24,185.69a16.62,16.62,0,0,0-8.11.42,16.7,16.7,0,0,1,6.78-2.48,16.79,16.79,0,0,1,5-5.17A16.56,16.56,0,0,0,161.24,185.69Z"/><path class="cls-2" d="M120.21,196.62a16.64,16.64,0,0,0-6.81-4.43,16.77,16.77,0,0,1,6.94,2,16.85,16.85,0,0,1,7.11-1.23A16.64,16.64,0,0,0,120.21,196.62Z"/><path class="cls-2" d="M80.59,181.34a16.57,16.57,0,0,0-2.9-7.59,17,17,0,0,1,4.45,5.68,16.9,16.9,0,0,1,6.47,3.2A16.5,16.5,0,0,0,80.59,181.34Z"/><path class="cls-2" d="M57.52,145.69a16.61,16.61,0,0,0,2.11-7.84,16.83,16.83,0,0,1,.26,7.21,16.82,16.82,0,0,1,3.36,6.39A16.62,16.62,0,0,0,57.52,145.69Z"/><path class="cls-2" d="M59.8,103.29a16.61,16.61,0,0,0,6.33-5.1,16.79,16.79,0,0,1-4,6,17,17,0,0,1-1,7.15A16.44,16.44,0,0,0,59.8,103.29Z"/><path class="cls-2" d="M86.58,70.33a16.49,16.49,0,0,0,8.11-.41,16.87,16.87,0,0,1-6.78,2.47,16.58,16.58,0,0,1-5,5.17A16.56,16.56,0,0,0,86.58,70.33Z"/><path class="cls-2" d="M127.61,59.41a16.64,16.64,0,0,0,6.81,4.43,16.72,16.72,0,0,1-6.94-2,16.7,16.7,0,0,1-7.11,1.22A16.52,16.52,0,0,0,127.61,59.41Z"/><path class="cls-2" d="M167.23,74.69a16.65,16.65,0,0,0,2.9,7.59,17,17,0,0,1-4.45-5.69,16.86,16.86,0,0,1-6.47-3.19A16.62,16.62,0,0,0,167.23,74.69Z"/><path class="cls-2" d="M234.25,134c-.28-4.07-3-8.31-4.4-9.27-2.81-1.92-4.32,1.06-5.15.33.23-1.76.54-6-1.46-7a17.41,17.41,0,0,0-12.92-1.13c-2.23.63-.69,3.94-1.64,4.18-1.11-.77-3.54-2.33-4.69-1.92-1.49.53-8.29,5.51-9.76,11.43a13.93,13.93,0,0,0-.13,2.48c.82,6,7.05,11.72,8.47,12.41,1.1.53,3.68-.76,4.87-1.41.92.34-1,3.47,1.18,4.34a17.44,17.44,0,0,0,13,.26c2.11-.85,2.25-5.05,2.22-6.82.9-.63,2.07,2.48,5.08.89C230.41,141.91,233.53,138,234.25,134ZM216.68,68c-2.62-3.13-7.28-5-9-4.92-3.4.11-2.87,3.4-4,3.3-.85-1.56-3.06-5.13-5.31-4.82a17.46,17.46,0,0,0-11.12,6.67c-1.43,1.83,1.76,3.6,1.13,4.35-1.35,0-4.23.2-4.92,1.2-.89,1.31-3.47,9.34-1.18,15a3.36,3.36,0,0,0,.63,1.07,3.62,3.62,0,0,0,.72,1c4.22,4.4,12.6,5.34,14.15,5.06,1.2-.22,2.53-2.78,3.12-4,.94-.26,1.25,3.38,3.5,2.81a17.4,17.4,0,0,0,10.64-7.4c1.2-1.93-1.15-5.41-2.22-6.82.36-1,3.14.79,4.63-2.27C218.24,76.66,218.45,71.65,216.68,68Zm-53-43.06c-3.95-1-8.82.25-10.18,1.31-2.69,2.09-.32,4.44-1.27,5-1.6-.76-5.49-2.34-7.13-.77A17.39,17.39,0,0,0,140,42.39c-.09,2.32,3.53,1.88,3.47,2.85-1.08.82-3.31,2.65-3.27,3.87,0,1.58,2.67,9.59,7.85,12.81a14.4,14.4,0,0,0,2.32.9c6,1.08,13.32-3.09,14.42-4.23.84-.88.41-3.73.17-5.06.6-.77,3,2,4.48.21a17.42,17.42,0,0,0,4.26-12.24c-.16-2.27-4.11-3.7-5.81-4.21-.32-1.06,3-1.21,2.42-4.56C170,31,167.26,26.84,163.67,24.92ZM95.48,21.23c-3.78,1.53-7,5.39-7.46,7.05-1,3.27,2.34,3.78,1.91,4.8-1.75.32-5.82,1.32-6.23,3.56a17.39,17.39,0,0,0,2.92,12.63c1.29,1.93,4-.56,4.48.27-.39,1.3-1.12,4.08-.38,5.05,1,1.25,7.81,6.19,13.89,5.76a3.94,3.94,0,0,0,1.21-.27,3.74,3.74,0,0,0,1.19-.37c5.49-2.65,9-10.33,9.18-11.9.16-1.21-1.86-3.26-2.84-4.2,0-1,3.6-.14,3.76-2.46a17.46,17.46,0,0,0-3.75-12.41c-1.47-1.73-5.5-.57-7.18,0-.88-.67,1.72-2.75-.72-5.11C104.22,22.43,99.52,20.68,95.48,21.23ZM38.14,58.34C36,61.8,35.66,66.8,36.25,68.43c1.16,3.2,4.12,1.67,4.36,2.75-1.21,1.29-3.92,4.5-2.94,6.55a17.47,17.47,0,0,0,9.79,8.5c2.17.8,2.87-2.78,3.78-2.42.45,1.28,1.5,4,2.66,4.31,1.52.45,10,.42,14.62-3.5a3.8,3.8,0,0,0,.82-.94,3.51,3.51,0,0,0,.75-1c2.88-5.37,1.18-13.63.43-15-.58-1.07-3.42-1.54-4.76-1.72-.54-.82,2.82-2.23,1.59-4.2A17.39,17.39,0,0,0,57,53.91c-2.2-.55-4.79,2.76-5.8,4.22-1.1,0-.22-3.24-3.59-3.71C45.92,54.17,41.08,55.52,38.14,58.34ZM13.57,122.06c.28,4.06,3,8.31,4.4,9.27,2.81,1.91,4.31-1.06,5.15-.33-.23,1.75-.54,5.94,1.46,7a17.46,17.46,0,0,0,12.92,1.13c2.23-.63.69-3.94,1.64-4.18,1.11.77,3.54,2.32,4.68,1.92,1.49-.53,8.3-5.51,9.77-11.43a3.74,3.74,0,0,0,.12-1.24,3.64,3.64,0,0,0,0-1.24c-.82-6-7-11.72-8.48-12.41-1.09-.53-3.67.76-4.86,1.4-.92-.34,1-3.46-1.18-4.33a17.48,17.48,0,0,0-13-.27c-2.11.86-2.25,5.06-2.22,6.83-.9.63-2.07-2.49-5.08-.89C17.41,114.12,14.29,118.05,13.57,122.06Zm17.57,66c2.62,3.12,7.28,5,9,4.92,3.4-.11,2.87-3.4,4-3.3.85,1.56,3.06,5.13,5.31,4.82a17.43,17.43,0,0,0,11.12-6.68c1.43-1.82-1.76-3.59-1.13-4.34,1.35,0,4.23-.2,4.91-1.21.9-1.3,3.48-9.33,1.19-15a3.83,3.83,0,0,0-.63-1.07,3.59,3.59,0,0,0-.72-1c-4.22-4.41-12.6-5.34-14.15-5.06-1.2.22-2.53,2.77-3.12,4-.94.27-1.25-3.37-3.5-2.81a17.43,17.43,0,0,0-10.64,7.41c-1.2,1.92,1.15,5.4,2.22,6.82-.36,1-3.14-.79-4.63,2.27C29.58,179.37,29.37,184.38,31.14,188.05Zm53,43.06c3.95,1,8.82-.25,10.18-1.32,2.68-2.08.32-4.43,1.27-5,1.6.76,5.49,2.35,7.13.78a17.45,17.45,0,0,0,5.07-11.93c.09-2.32-3.54-1.88-3.47-2.85,1.08-.83,3.3-2.65,3.27-3.87,0-1.58-2.67-9.59-7.85-12.82a3.88,3.88,0,0,0-1.14-.49,3.47,3.47,0,0,0-1.18-.4c-6-1.09-13.33,3.08-14.42,4.23-.84.88-.41,3.73-.17,5.06-.61.76-3-2-4.48-.22a17.4,17.4,0,0,0-4.26,12.25c.16,2.26,4.11,3.7,5.8,4.21.33,1.06-3,1.21-2.41,4.56C77.78,225,80.55,229.19,84.15,231.11Zm68.19,3.68c3.78-1.52,7-5.38,7.46-7,.95-3.26-2.34-3.77-1.91-4.79,1.74-.33,5.82-1.33,6.23-3.56a17.39,17.39,0,0,0-2.92-12.63c-1.29-1.93-4,.55-4.48-.27.39-1.3,1.12-4.09.38-5.05-1-1.26-7.81-6.19-13.89-5.76A3.67,3.67,0,0,0,142,196a3.74,3.74,0,0,0-1.19.37c-5.49,2.65-9,10.33-9.18,11.9-.17,1.2,1.85,3.26,2.84,4.19,0,1-3.6.15-3.76,2.46a17.44,17.44,0,0,0,3.75,12.41c1.47,1.74,5.5.58,7.18,0,.88.67-1.72,2.74.72,5.11C143.6,233.59,148.3,235.35,152.34,234.79Zm57.33-37.1c2.17-3.46,2.49-8.47,1.9-10.09-1.16-3.2-4.12-1.68-4.37-2.75,1.22-1.3,3.93-4.5,3-6.55a17.43,17.43,0,0,0-9.79-8.5c-2.17-.81-2.87,2.78-3.78,2.41-.45-1.27-1.5-4-2.66-4.3-1.52-.45-9.95-.42-14.62,3.5a3.6,3.6,0,0,0-.82.93,3.73,3.73,0,0,0-.75,1c-2.88,5.37-1.18,13.63-.43,15,.57,1.08,3.42,1.55,4.76,1.73.54.81-2.82,2.23-1.59,4.2a17.43,17.43,0,0,0,10.33,7.83c2.2.55,4.78-2.76,5.8-4.22,1.1,0,.22,3.23,3.59,3.71C201.9,201.86,206.73,200.51,209.67,197.69ZM216.53,133c-.88-3.08-3.85-6.25-7.76-4.52-.57.25-.44.94-.18,1.55-2.28.47-2,2.16-.88,2.5-1.12.22-1.61,1.86.61,2.57-.33.58-.53,1.25,0,1.56C212,138.82,215.32,136,216.53,133ZM201.78,77.62c-2.53-2-6.8-2.8-8.94.9-.31.54.2,1,.78,1.36-1.58,1.72-.34,2.9.74,2.54-.77.83-.2,2.45,2,1.72.08.66.3,1.32.93,1.26C201.55,85,202.55,80.73,201.78,77.62ZM157.29,41.47c-3.21-.11-7.15,1.73-6.7,6,.06.63.76.71,1.42.65-.26,2.31,1.44,2.54,2.1,1.62-.14,1.12,1.28,2.1,2.63.21.45.49,1,.89,1.49.47C161.42,47.55,159.74,43.54,157.29,41.47ZM100,38.38c-2.66,1.8-4.76,5.6-1.9,8.78.42.46,1,.13,1.53-.31,1.15,2,2.66,1.21,2.65.07.55,1,2.27.95,2.25-1.38.66.13,1.36.12,1.49-.49C107,40.87,103.24,38.61,100,38.38ZM51.92,69.53c-1.1,3-.56,7.33,3.62,8.22.61.13.91-.51,1.05-1.16,2.12,1,2.86-.58,2.19-1.49,1,.47,2.39-.57,1-2.44.61-.28,1.17-.7.91-1.27C59,67.48,54.64,67.84,51.92,69.53ZM31.29,123c.88,3.09,3.85,6.26,7.76,4.53.57-.26.44-1,.17-1.56,2.29-.46,2-2.15.89-2.49,1.12-.22,1.61-1.87-.61-2.57.33-.58.53-1.25,0-1.57C35.79,117.21,32.5,120,31.29,123ZM46,178.41c2.53,2,6.8,2.8,8.93-.9.32-.54-.19-1-.77-1.36,1.58-1.72.33-2.9-.74-2.54.77-.84.2-2.45-2-1.72-.08-.66-.31-1.33-.93-1.26C46.27,171.06,45.27,175.29,46,178.41Zm44.49,36.15c3.21.11,7.15-1.74,6.7-6-.06-.62-.76-.71-1.42-.64.26-2.32-1.44-2.54-2.1-1.62.14-1.13-1.28-2.1-2.63-.21-.45-.49-1-.89-1.49-.47C86.4,208.48,88.08,212.49,90.53,214.56Zm57.25,3.09c2.66-1.8,4.76-5.6,1.9-8.78-.42-.47-1-.13-1.53.31-1.15-2-2.66-1.21-2.65-.07-.55-1-2.27-1-2.26,1.38-.65-.14-1.35-.12-1.48.49C140.86,215.16,144.57,217.41,147.78,217.65ZM195.9,186.5c1.1-3,.56-7.33-3.62-8.22-.61-.13-.91.5-1.05,1.15-2.12-1-2.86.58-2.19,1.5-1-.48-2.39.57-1,2.44-.61.28-1.17.7-.91,1.27C188.84,188.55,193.18,188.19,195.9,186.5Zm12.47-53.93a2,2,0,0,0,.38-.11,3,3,0,0,1,2.43.26,3,3,0,0,1-2.45,0A1.89,1.89,0,0,0,208.37,132.57ZM194.92,82.06a2,2,0,0,0,.23-.32,3,3,0,0,1,2.13-1.21,3,3,0,0,1-2,1.44A2.11,2.11,0,0,0,194.92,82.06Zm-40.57-33a2.67,2.67,0,0,0,0-.4,3,3,0,0,1,1-2.23,3,3,0,0,1-.75,2.33A1.43,1.43,0,0,0,154.35,49.1Zm-52.2-2.82a1.72,1.72,0,0,0-.23-.32,3,3,0,0,1-.5-2.4,3,3,0,0,1,.76,2.33A1.29,1.29,0,0,0,102.15,46.28ZM58.26,74.68a2,2,0,0,0-.37-.13,3,3,0,0,1-1.82-1.64,3,3,0,0,1,2,1.43A1.6,1.6,0,0,0,58.26,74.68ZM39.45,123.45a2.07,2.07,0,0,0-.38.12,3,3,0,0,1-2.43-.27,3,3,0,0,1,2.45,0A1.38,1.38,0,0,0,39.45,123.45ZM52.9,174a2,2,0,0,0-.24.31,3,3,0,0,1-2.12,1.22,3,3,0,0,1,2-1.45A1.51,1.51,0,0,0,52.9,174Zm40.57,33a1.69,1.69,0,0,0,0,.39,3,3,0,0,1-1,2.24,3,3,0,0,1,.75-2.33A1.74,1.74,0,0,0,93.47,206.93Zm52.2,2.82a1.72,1.72,0,0,0,.23.32,3,3,0,0,1,.5,2.4,3,3,0,0,1-.76-2.33A1.8,1.8,0,0,0,145.67,209.75Zm43.89-28.4a1.79,1.79,0,0,0,.37.12,3,3,0,0,1,1.81,1.65,3,3,0,0,1-2-1.43A1.79,1.79,0,0,0,189.56,181.35Zm10.79-49.21a9,9,0,0,1,2.73-5.57c8.43-8.14,20.59-3.09,25.22,7.08C222.6,143.26,210,147,202.47,138A9,9,0,0,1,200.35,132.14ZM188.18,86.42a9,9,0,0,1-1.07-6.11c2-11.54,14.84-14.6,24.57-9.1,1,11.13-7,21.56-18.36,18.69A9,9,0,0,1,188.18,86.42ZM151.46,56.59A9.06,9.06,0,0,1,147,52.27c-5.13-10.53,3.43-20.53,14.53-21.8,7.37,8.39,7,21.55-3.87,25.91A9,9,0,0,1,151.46,56.59ZM104.21,54a8.93,8.93,0,0,1-6.14-.87C87.72,47.66,88.77,34.54,97,27c10.9,2.45,18.34,13.32,12.09,23.23A9,9,0,0,1,104.21,54ZM64.49,79.74A9,9,0,0,1,59,82.65C47.41,84.28,40.54,73,42.77,62.09c10.26-4.42,22.66,0,23.44,11.69A9,9,0,0,1,64.49,79.74Zm-17,44.15a9,9,0,0,1-2.72,5.57c-8.43,8.14-20.59,3.08-25.22-7.08,5.7-9.61,18.33-13.32,25.83-4.32A8.92,8.92,0,0,1,47.46,123.89Zm12.18,45.72a9,9,0,0,1,1.07,6.11c-2,11.54-14.84,14.59-24.57,9.1-1-11.13,7-21.56,18.36-18.69A9,9,0,0,1,59.64,169.61Zm36.72,29.83a9,9,0,0,1,4.46,4.32c5.13,10.53-3.43,20.53-14.53,21.8-7.37-8.4-7-21.56,3.87-25.91A9,9,0,0,1,96.36,199.44ZM143.61,202a9,9,0,0,1,6.14.87c10.34,5.51,9.3,18.63,1.06,26.18-10.9-2.46-18.34-13.32-12.1-23.24A9,9,0,0,1,143.61,202Zm39.72-25.7a9,9,0,0,1,5.48-2.91c11.6-1.63,18.47,9.6,16.24,20.55-10.26,4.42-22.66,0-23.44-11.69A9,9,0,0,1,183.33,176.29Zm5.37-44.78c0-4.45,1.6-8.47,4-10.22,8.22-6,16-5.66,17.54-9.82,1.4-3.71-2.81-4.81-4.21-4.71,5.22-3.49,18.21.32,19.42-5.78-4.08-4.7-13.46,5.06-19.73,4.64C207,105,210.1,102,207,99.44c-3.43-2.83-10,1.33-20.1.2-3-.33-6.3-3-8.54-6.88-2.59-3.62-3.69-7.79-2.78-10.62,3.11-9.7,9.59-14,8.41-18.25-1-3.83-5.09-2.25-6.17-1.34,2.18-5.89,14.93-10.44,12.32-16.1-6.07-1.39-7.92,12-13.23,15.36.66-1.24,1.38-5.53-2.58-5.77-4.44-.27-7.29,6.94-16.14,12-2.58,1.47-6.89,1.24-11-.55-4.22-1.4-7.56-4.13-8.49-7-3.18-9.67-.45-16.93-3.92-19.71-3.09-2.48-5.44,1.18-5.78,2.55-1.7-6.05,5.94-17.23.5-20.26-5.73,2.43.66,14.37-1.68,20.19-.19-1.39-2.13-5.28-5.47-3.15-3.75,2.39-1.82,9.9-6,19.18-1.22,2.71-4.84,5.06-9.19,6-4.24,1.34-8.54,1.1-10.95-.64C88,58.71,85.94,51.24,81.5,51c-4-.18-3.71,4.16-3.18,5.46C73.39,52.59,73,39.06,66.82,39.8c-3.21,5.33,9,11.23,10.51,17.32-1-1-4.83-3-6.28.67-1.63,4.14,4.35,9.08,6.4,19.05.6,2.91-.94,6.94-3.9,10.26C70.9,90.68,67.28,93,64.3,93c-10.18,0-16.24-4.8-20-2.36-3.31,2.17-.55,5.54.64,6.28-6.27-.25-14.54-11-19.11-6.74C26.41,96.4,39.74,94,44.56,98c-1.39-.25-5.69.39-4.69,4.23,1.11,4.31,8.85,4.79,16.37,11.65,2.2,2,3.32,6.17,2.88,10.6,0,4.45-1.6,8.46-4,10.22-8.22,6-16,5.66-17.54,9.82-1.4,3.71,2.81,4.81,4.21,4.71-5.22,3.48-18.21-.33-19.42,5.78,4.08,4.7,13.46-5.07,19.72-4.64-1.26.61-4.37,3.66-1.31,6.18,3.44,2.82,10-1.33,20.1-.21,3,.33,6.31,3,8.55,6.89,2.59,3.62,3.69,7.79,2.78,10.62-3.11,9.69-9.59,14-8.41,18.25,1,3.83,5.09,2.24,6.17,1.34-2.18,5.89-14.93,10.44-12.32,16.09,6.07,1.4,7.91-12,13.23-15.35-.66,1.24-1.38,5.53,2.57,5.77,4.45.27,7.3-6.94,16.15-12,2.58-1.47,6.89-1.25,11,.55,4.22,1.4,7.56,4.13,8.49,6.95,3.18,9.68.45,16.94,3.92,19.72,3.09,2.48,5.44-1.18,5.78-2.55,1.7,6-5.94,17.22-.5,20.26,5.73-2.43-.66-14.37,1.68-20.2.19,1.4,2.12,5.29,5.47,3.16,3.75-2.39,1.81-9.9,6-19.18,1.22-2.71,4.84-5.06,9.19-6,4.24-1.35,8.54-1.1,10.95.64,8.26,5.95,10.32,13.43,14.76,13.64,4,.19,3.71-4.15,3.18-5.46,4.93,3.9,5.32,17.43,11.5,16.69,3.21-5.34-9-11.24-10.51-17.33,1,1,4.83,3,6.28-.66,1.63-4.14-4.35-9.08-6.4-19.05-.6-2.92.94-6.94,3.9-10.26,2.64-3.58,6.27-5.92,9.24-5.93,10.19,0,16.25,4.81,20,2.37,3.31-2.18.55-5.54-.64-6.29,6.27.26,14.54,11,19.11,6.74-.54-6.2-13.87-3.81-18.69-7.83,1.39.25,5.69-.39,4.69-4.23-1.11-4.31-8.85-4.79-16.38-11.65C189.38,140.1,188.26,135.94,188.7,131.51Zm12.16-24c-9.7,7.86-13.86,16.45-14,23.89-.65,7.42,2.56,16.4,11.36,25.26-12.47.65-20.88,5.15-25.38,11.09-4.88,5.61-7.57,14.77-5.65,27.11-10.48-6.8-19.93-8.11-27.05-6-7.26,1.67-14.81,7.51-20.51,18.61-4.48-11.65-11.36-18.27-18.39-20.71-6.85-2.91-16.39-2.63-27.53,3,3.23-12.06,1.55-21.45-2.71-27.56-3.83-6.38-11.71-11.76-24-13.76,9.7-7.86,13.86-16.44,14-23.88.65-7.42-2.56-16.4-11.36-25.26C62.08,98.7,70.49,94.2,75,88.27c4.88-5.62,7.56-14.77,5.65-27.11,10.48,6.8,19.93,8.1,27.05,5.94,7.26-1.67,14.81-7.5,20.51-18.6,4.48,11.65,11.36,18.26,18.39,20.7,6.85,2.92,16.39,2.64,27.53-3-3.23,12.06-1.55,21.45,2.71,27.56C180.66,100.15,188.54,105.53,200.86,107.52Z"/></g></g></g></svg>