<svg xmlns="http://www.w3.org/2000/svg" viewBox="0 0 845 681.85"><path d="M601.94,138.73a205,205,0,0,1,88.59,2.33,203.15,203.15,0,0,1,94.71,53.68c79.68,79.67,79.68,208.88,0,288.55a204,204,0,0,1-288.55,0l-47.1-47.1,70.09-70.08,47.1,47.1a104.92,104.92,0,1,0,84.41-178.62,102.82,102.82,0,0,0-14.68-.39A180.91,180.91,0,0,0,601.94,138.73Z"/><path d="M59.76,483.29a204,204,0,0,0,288.55,0L566.78,264.82A104.47,104.47,0,0,1,598.63,243a142.61,142.61,0,0,0-36.27-92.32,203.47,203.47,0,0,0-65.67,44.07L278.22,413.21a104.93,104.93,0,1,1-3.39-151.62q1.73,1.56,3.39,3.23l47.1,47.1,70.09-70.08-47.1-47.1a203.85,203.85,0,0,0-288.55,0C-19.92,274.41-19.92,403.62,59.76,483.29Z"/><path d="M545.8,339l47.58-47.57a67.28,67.28,0,1,1,0,95.15Z"/><path d="M367.81,161l14.24,14.24,40.45,40.46,40.39-40.39,14.38-14.38A240.38,240.38,0,0,1,587,103.23a182.76,182.76,0,0,0-329,0A240.21,240.21,0,0,1,367.81,161Z"/><path d="M477.19,520.85,463,506.61,422.5,466.14l-40.38,40.39-14.38,14.38A240.38,240.38,0,0,1,258,578.63a182.76,182.76,0,0,0,329,0A240.45,240.45,0,0,1,477.19,520.85Z"/><path d="M156.47,291.44a67.27,67.27,0,0,1,95.15,0L299.2,339l-47.58,47.58a67.28,67.28,0,0,1-95.15-95.15Z"/></svg>