<svg xmlns="http://www.w3.org/2000/svg" viewBox="0 0 845 695.98"><path d="M779.85,188.71a222.43,222.43,0,0,0-157.53-65.25c-4.15,0-8.3.13-12.45.36l-4.32-9a203.34,203.34,0,0,0-366.1,0l-4.32,9q-6.21-.36-12.43-.36A222.14,222.14,0,0,0,65.15,188.71c-86.87,86.86-86.87,228.2,0,315.07A222.43,222.43,0,0,0,222.7,569h0q5.42,0,10.79-.26l6,12.35a203.32,203.32,0,0,0,366.1,0l6-12.35q5.37.26,10.78.26h0a223.69,223.69,0,0,0,54.08-6.64,221.89,221.89,0,0,0,103.47-58.61C866.72,416.91,866.72,275.57,779.85,188.71Z" style="fill:#fff"/><path d="M586.62,163.05a187.62,187.62,0,0,1,81,2.14,185.75,185.75,0,0,1,86.62,49.09c72.88,72.88,72.88,191,0,263.92a186.55,186.55,0,0,1-263.91,0l-43.08-43.08,64.1-64.1,43.08,43.08a96,96,0,1,0,77.21-163.36,94.17,94.17,0,0,0-13.43-.37A165.53,165.53,0,0,0,586.62,163.05Z" style="fill:#fabc2a"/><path d="M90.72,478.2a186.57,186.57,0,0,0,263.92,0L554.46,278.38a95.59,95.59,0,0,1,29.13-20A130.42,130.42,0,0,0,550.42,174a186.08,186.08,0,0,0-60.06,40.3L290.54,414.1a96,96,0,1,1-3.1-138.67c1,.95,2.09,1.94,3.1,2.95l43.08,43.08,64.1-64.1-43.08-43.08a186.45,186.45,0,0,0-263.91,0C17.85,287.16,17.85,405.33,90.72,478.2Z" style="fill:#0d0577"/><path d="M535.28,346.24l43.51-43.51a61.54,61.54,0,1,1,0,87Z" style="fill:#ff515f"/><path d="M372.48,183.43l13,13,37,37,36.94-36.94,13.15-13.16A220,220,0,0,1,573,130.58a167.16,167.16,0,0,0-300.94,0A219.89,219.89,0,0,1,372.48,183.43Z" style="fill:#379d59"/><path d="M472.53,512.55l-13-13-37-37-36.93,36.94-13.16,13.15A219.88,219.88,0,0,1,272,565.4a167.17,167.17,0,0,0,301,0A219.75,219.75,0,0,1,472.53,512.55Z" style="fill:#4085ff"/><path d="M179.18,302.73a61.54,61.54,0,0,1,87,0l43.51,43.51-43.51,43.52a61.54,61.54,0,0,1-87-87Z" style="fill:#ff515f"/></svg>