<svg xmlns="http://www.w3.org/2000/svg" viewBox="0 0 2105.92 344.83"><path d="M304.42,70.16a103.2,103.2,0,1,1-53.23,174.25l-23.82-23.82,35.44-35.44L286.63,209a53.08,53.08,0,1,0,35.27-90.53A91.5,91.5,0,0,0,304.42,70.16Z"/><path d="M30.22,244.41a103.14,103.14,0,0,0,145.93,0L286.63,133.93a52.75,52.75,0,0,1,16.11-11A72.09,72.09,0,0,0,284.4,76.2a102.86,102.86,0,0,0-33.21,22.28L140.71,209A53.07,53.07,0,1,1,139,132.29c.58.53,1.15,1.08,1.72,1.64l23.81,23.82L200,122.3,176.15,98.48A103.19,103.19,0,0,0,30.22,244.41Z"/><path d="M276,171.45l24.06-24.06a34,34,0,1,1,0,48.12Z"/><path d="M186,81.43l7.2,7.2,20.46,20.46,20.42-20.42,7.28-7.28a121.53,121.53,0,0,1,55.5-29.19,92.43,92.43,0,0,0-166.4,0A121.46,121.46,0,0,1,186,81.43Z"/><path d="M241.33,263.41l-7.2-7.21-20.46-20.46-20.42,20.43L186,263.44a121.53,121.53,0,0,1-55.5,29.19,92.42,92.42,0,0,0,166.4,0A121.53,121.53,0,0,1,241.33,263.41Z"/><path d="M79.13,147.39a34,34,0,0,1,48.12,0l24.06,24.06-24.06,24.06a34,34,0,0,1-48.12-48.12Z"/><path d="M520.41,98.25h23.11a49.15,49.15,0,0,0,22.13-4.89,37.94,37.94,0,0,0,15.64-14.13q5.78-9.24,5.78-22,0-13-5.78-22.13a38.14,38.14,0,0,0-15.64-14,49.15,49.15,0,0,0-22.13-4.89H484.86V142.69h35.55Zm16.18-56.53a17.09,17.09,0,0,1,7.55,1.69,13.41,13.41,0,0,1,5.6,5.16,16.18,16.18,0,0,1,2.14,8.62,16.18,16.18,0,0,1-2.14,8.62,13.33,13.33,0,0,1-5.6,5.15,17,17,0,0,1-7.55,1.69H520.41V41.72Z"/><path d="M670.79,92.21h.49l32.21,50.48h40.35L706.8,90a47.57,47.57,0,0,0,7-2.56,38.51,38.51,0,0,0,16.09-13.34,34.63,34.63,0,0,0,5.78-19.9A35.06,35.06,0,0,0,730,34.26a38.35,38.35,0,0,0-15.64-13.33q-10-4.8-23.11-4.8h-56V142.69h35.55Zm14.75-50.49q7.29,0,11.11,3.56a12.25,12.25,0,0,1,3.82,9.42,12.25,12.25,0,0,1-3.82,9.42q-3.82,3.55-11.11,3.56H670.79v-26Z"/><path d="M878.4,140.29a64.69,64.69,0,0,0,21.68-13.87,63,63,0,0,0,14.31-21,66.22,66.22,0,0,0,5.07-26,66.69,66.69,0,0,0-5.07-26.22A62.21,62.21,0,0,0,900.08,32.3a65.33,65.33,0,0,0-21.77-13.77,79.55,79.55,0,0,0-54.92,0A65.27,65.27,0,0,0,801.61,32.3,62.6,62.6,0,0,0,787.3,53.1a66.2,66.2,0,0,0-5.06,26.13,65.86,65.86,0,0,0,5.15,26.13,62.47,62.47,0,0,0,14.49,21,67.41,67.41,0,0,0,21.86,13.87,78.29,78.29,0,0,0,54.66.09Zm-41-28.8a28.43,28.43,0,0,1-10.22-6.93,30.07,30.07,0,0,1-6.49-10.93,43.79,43.79,0,0,1-2.22-14.4A39.85,39.85,0,0,1,822.41,61a27.91,27.91,0,0,1,11.2-11.91,34.1,34.1,0,0,1,17.24-4.18,35.66,35.66,0,0,1,13.42,2.4,28.41,28.41,0,0,1,10.22,6.94A30.39,30.39,0,0,1,881,65.1a42.4,42.4,0,0,1,2.22,14.13,40.58,40.58,0,0,1-3.91,18.31,28.35,28.35,0,0,1-11.2,12.08,33.48,33.48,0,0,1-17.24,4.27A35.62,35.62,0,0,1,837.43,111.49Z"/><path d="M1029.84,96.47l31.8,1c-.25.58-.51,1.15-.79,1.71a24.64,24.64,0,0,1-10,10.66q-6.57,3.74-16.17,3.73a34.51,34.51,0,0,1-17.42-4.26,29.82,29.82,0,0,1-11.64-12,37.32,37.32,0,0,1-4.18-18,34.54,34.54,0,0,1,4.53-18,31.42,31.42,0,0,1,12.18-11.82,34.91,34.91,0,0,1,17.06-4.18q10,0,17.06,3.73a47.48,47.48,0,0,1,13.69,11.38l24-24A60.61,60.61,0,0,0,1067.25,20q-13.95-6-31.55-6a76.25,76.25,0,0,0-27.37,4.88,70.51,70.51,0,0,0-22.49,13.69,62,62,0,0,0-20.53,46.84,64.57,64.57,0,0,0,5.16,26A62.94,62.94,0,0,0,985,126.16a66.34,66.34,0,0,0,21.86,13.77,74.4,74.4,0,0,0,27.28,4.89q19.74,0,34.58-8.36a57.33,57.33,0,0,0,23.1-24.35q8.27-16,8.27-38.75V68h-70.21Z"/><path d="M1227.49,87.41a38.51,38.51,0,0,0,16.09-13.34,34.63,34.63,0,0,0,5.78-19.9,35.06,35.06,0,0,0-5.69-19.91A38.35,38.35,0,0,0,1228,20.93q-10-4.8-23.11-4.8h-56V142.69h35.55V92.21h.49l32.21,50.48h40.35l-37-52.72A47.57,47.57,0,0,0,1227.49,87.41Zm-28.26-45.69q7.29,0,11.11,3.56a12.25,12.25,0,0,1,3.82,9.42,12.25,12.25,0,0,1-3.82,9.42q-3.83,3.55-11.11,3.56h-14.75v-26Z"/><path d="M1336.81,16.13l-48.17,126.56h36.26l7.19-21.33h44.63l7,21.33h37L1373.07,16.13Zm4.63,77.5,13.24-39.27,12.92,39.27Z"/><polygon points="1533.65 76.88 1492.16 16.13 1466.39 16.13 1466.39 142.69 1501.58 142.69 1501.58 83.04 1522.2 112.82 1544.95 112.82 1565.57 83.25 1565.57 142.69 1600.76 142.69 1600.76 16.13 1574.99 16.13 1533.65 76.88"/><polygon points="1724.55 76.88 1683.06 16.13 1657.29 16.13 1657.29 142.69 1692.48 142.69 1692.48 83.04 1713.1 112.82 1735.85 112.82 1756.47 83.25 1756.47 142.69 1791.66 142.69 1791.66 16.13 1765.89 16.13 1724.55 76.88"/><polygon points="1883.74 92.56 1938.31 92.56 1938.31 63.77 1883.74 63.77 1883.74 45.63 1943.82 45.63 1943.82 16.13 1883.74 16.13 1876.98 16.13 1848.19 16.13 1848.19 142.69 1876.98 142.69 1883.74 142.69 1944.88 142.69 1944.88 113.18 1883.74 113.18 1883.74 92.56"/><path d="M2065.57,142.69h40.35l-37-52.72a47.57,47.57,0,0,0,7-2.56A38.57,38.57,0,0,0,2092,74.07a34.62,34.62,0,0,0,5.77-19.9,35.05,35.05,0,0,0-5.68-19.91,38.38,38.38,0,0,0-15.65-13.33q-9.94-4.8-23.1-4.8h-56V142.69h35.55V92.21h.49Zm-18-101q7.29,0,11.11,3.56a12.25,12.25,0,0,1,3.82,9.42,12.25,12.25,0,0,1-3.82,9.42q-3.83,3.55-11.11,3.56h-14.75v-26Z"/><polygon points="563.07 267.22 509.75 200.21 484.87 200.21 484.87 326.77 520.41 326.77 520.41 261.99 571.96 326.77 598.62 326.77 598.62 200.21 563.07 200.21 563.07 267.22"/><path d="M757.71,217.45a64,64,0,0,0-21.78-12.8,81.66,81.66,0,0,0-27.46-4.44H655.15V326.77h53.68A80.11,80.11,0,0,0,736,322.32a64,64,0,0,0,21.69-12.79,57.69,57.69,0,0,0,14.31-20,69.53,69.53,0,0,0,0-52.08A57.69,57.69,0,0,0,757.71,217.45Zm-20.8,64.35a25.12,25.12,0,0,1-11.2,11.11,38.11,38.11,0,0,1-17.24,3.64H690.7V230.43h17.77a37.51,37.51,0,0,1,17.15,3.64A25.9,25.9,0,0,1,736.82,245q4,7.29,4,18.31T736.91,281.8Z"/><polygon points="862.76 276.64 917.33 276.64 917.33 247.85 862.76 247.85 862.76 229.72 922.84 229.72 922.84 200.21 862.76 200.21 856 200.21 827.21 200.21 827.21 326.77 856 326.77 862.76 326.77 923.9 326.77 923.9 297.26 862.76 297.26 862.76 276.64"/><path d="M1011.09,228.3a18.47,18.47,0,0,1,8.8-1.78,29.79,29.79,0,0,1,12.79,2.75,44.15,44.15,0,0,1,11.74,8.45l22.39-22.22a53,53,0,0,0-20.17-12.89,75.15,75.15,0,0,0-26.4-4.53q-14.4,0-25.06,4.71a37.24,37.24,0,0,0-16.53,13.6q-5.86,8.88-5.87,21.15,0,9.42,3.2,15.91a32.59,32.59,0,0,0,8.45,10.84,56.65,56.65,0,0,0,11.46,7.38,107.7,107.7,0,0,0,12.53,5.15Q1014.74,279,1020,281a31.91,31.91,0,0,1,8.45,4.62,8,8,0,0,1,3.2,6.49,6.85,6.85,0,0,1-3.74,6.13q-3.72,2.22-11,2.22a39,39,0,0,1-16.35-3.47,52.89,52.89,0,0,1-14.57-10l-22.22,22.22a63.6,63.6,0,0,0,22.13,15q12,4.71,28.17,4.71,25.07,0,38.84-10.58t13.77-29.95a37.9,37.9,0,0,0-3.2-16.35,33.85,33.85,0,0,0-8.44-11.29,50.26,50.26,0,0,0-11.46-7.46A117.36,117.36,0,0,0,1031,248.2q-6.32-2.13-11.56-4.09a33.53,33.53,0,0,1-8.44-4.35,7.36,7.36,0,0,1-3.2-6.13A5.7,5.7,0,0,1,1011.09,228.3Z"/><path d="M1229.45,216.39a65.19,65.19,0,0,0-21.77-13.78,79.57,79.57,0,0,0-54.93,0A65.19,65.19,0,0,0,1131,216.39a62.31,62.31,0,0,0-14.31,20.79,69.3,69.3,0,0,0,.09,52.26,62.3,62.3,0,0,0,14.48,21,67.45,67.45,0,0,0,21.87,13.87,78.12,78.12,0,0,0,54.65.09,64.63,64.63,0,0,0,21.69-13.87,63.19,63.19,0,0,0,14.31-21,70,70,0,0,0,0-52.26A62.22,62.22,0,0,0,1229.45,216.39Zm-20.8,65.23a28.35,28.35,0,0,1-11.19,12.09,33.59,33.59,0,0,1-17.25,4.26,35.66,35.66,0,0,1-13.42-2.4,28.51,28.51,0,0,1-10.22-6.93,30.1,30.1,0,0,1-6.48-10.93,43.53,43.53,0,0,1-2.23-14.4,40,40,0,0,1,3.91-18.22,28,28,0,0,1,11.2-11.91,34.15,34.15,0,0,1,17.24-4.17,35.62,35.62,0,0,1,13.42,2.4,28.43,28.43,0,0,1,10.22,6.93,30.19,30.19,0,0,1,6.49,10.84,42.4,42.4,0,0,1,2.22,14.13A40.42,40.42,0,0,1,1208.65,281.62Z"/></svg>