<svg xmlns="http://www.w3.org/2000/svg" viewBox="0 0 960 1080"><circle cx="480" cy="600" r="220.09" style="fill:#fff"/><path d="M700.09,173.32Q700,176.65,700,180V396q-3.84-4.14-7.87-8.17A300,300,0,1,0,267.87,812.13a302.51,302.51,0,0,0,37,31.52,228.23,228.23,0,0,0-50.48,180.13C103,943,0,783.54,0,600,0,334.9,214.9,120,480,120A477.89,477.89,0,0,1,700.09,173.32Z" style="fill:#fff"/><path d="M960,0V600c0,220.33-148.45,406-350.79,462.4a483.1,483.1,0,0,1-258.42,0,148.21,148.21,0,0,1,27.34-180.06A300.17,300.17,0,0,0,780,600V180A180,180,0,0,1,960,0Z" style="fill:#fff"/></svg>