<svg xmlns="http://www.w3.org/2000/svg" viewBox="0 0 1817.04 393.11"><circle cx="174.72" cy="218.39" r="80.11" style="fill:#fff"/><path d="M254.83,63.09c0,.8,0,1.62,0,2.43v78.63c-.93-1-1.89-2-2.86-3A109.2,109.2,0,0,0,97.5,295.61,109.69,109.69,0,0,0,111,307.08,82.93,82.93,0,0,0,92.6,372.65,174.75,174.75,0,0,1,254.83,63.09Z" style="fill:#fff"/><path d="M349.43,0V218.39A174.84,174.84,0,0,1,127.68,386.7a53.94,53.94,0,0,1,10-65.54A109.25,109.25,0,0,0,283.91,218.39V65.52A65.52,65.52,0,0,1,349.43,0Z" style="fill:#fff"/><path d="M491.41,14.7A48.5,48.5,0,0,0,474.89,5a61.87,61.87,0,0,0-20.83-3.37H413.61v96h40.72A61.15,61.15,0,0,0,475,94.25a48.82,48.82,0,0,0,16.45-9.71,43.74,43.74,0,0,0,10.85-15.17,49,49,0,0,0,3.84-19.75,49.09,49.09,0,0,0-3.84-19.76A43.7,43.7,0,0,0,491.41,14.7ZM475.63,63.5a19,19,0,0,1-8.49,8.43,29,29,0,0,1-13.08,2.77H440.57V24.54h13.49a28.54,28.54,0,0,1,13,2.76,19.68,19.68,0,0,1,8.49,8.29q3,5.53,3,13.89T475.63,63.5Z" style="fill:#fff"/><path d="M637.15,97.62,601,1.62H573.51L537,97.62h27.5l5.46-16.18h33.85l5.32,16.18ZM577,60.4l10-29.78,9.8,29.78Z" style="fill:#fff"/><path d="M699.24,22.92a14.06,14.06,0,0,1,6.68-1.35,22.56,22.56,0,0,1,9.7,2.09,33.34,33.34,0,0,1,8.9,6.41l17-16.86a40.25,40.25,0,0,0-15.3-9.77,57,57,0,0,0-20-3.44,46.81,46.81,0,0,0-19,3.57,28.26,28.26,0,0,0-12.53,10.32,28.41,28.41,0,0,0-4.45,16A27.21,27.21,0,0,0,672.61,42,24.8,24.8,0,0,0,679,50.22a42.72,42.72,0,0,0,8.69,5.6,81.77,81.77,0,0,0,9.51,3.91Q702,61.35,706,62.9a24.32,24.32,0,0,1,6.41,3.5,6.07,6.07,0,0,1,2.42,4.92A5.2,5.2,0,0,1,712,76q-2.82,1.68-8.36,1.68A29.7,29.7,0,0,1,691.22,75a40.18,40.18,0,0,1-11.06-7.62L663.31,84.27A48.22,48.22,0,0,0,680.1,95.66a58.33,58.33,0,0,0,21.37,3.57q19,0,29.46-8t10.45-22.72A28.77,28.77,0,0,0,739,56.09a25.66,25.66,0,0,0-6.41-8.56,38.45,38.45,0,0,0-8.69-5.67A90.93,90.93,0,0,0,714.34,38q-4.79-1.62-8.76-3.1a25.91,25.91,0,0,1-6.41-3.3A5.61,5.61,0,0,1,696.75,27,4.35,4.35,0,0,1,699.24,22.92Z" style="fill:#fff"/><path d="M806.5,1.62,770,97.62h27.51l5.45-16.18h33.85l5.32,16.18h28L834,1.62ZM810,60.4l10-29.78,9.79,29.78Z" style="fill:#fff"/><polygon points="980.29 51.01 1011.57 97.62 1043.93 97.62 1008.55 47.39 1042.45 1.62 1009.95 1.62 980.29 44.3 980.29 1.62 953.33 1.62 953.33 97.62 980.29 97.62 980.29 51.01" style="fill:#fff"/><path d="M1136.83,55.68A29.15,29.15,0,0,0,1149,45.57a26.29,26.29,0,0,0,4.38-15.1,26.62,26.62,0,0,0-4.31-15.1,29.14,29.14,0,0,0-11.87-10.11,39.85,39.85,0,0,0-17.53-3.64h-42.47v96h27V59.32h.37L1129,97.62h30.6l-28.08-40A35.49,35.49,0,0,0,1136.83,55.68ZM1115.39,21q5.52,0,8.43,2.7a9.31,9.31,0,0,1,2.9,7.15,9.31,9.31,0,0,1-2.9,7.14q-2.91,2.7-8.43,2.7H1104.2V21Z" style="fill:#fff"/><polygon points="1220.29 59.59 1261.68 59.59 1261.68 37.75 1220.29 37.75 1220.29 24 1265.86 24 1265.86 1.62 1220.29 1.62 1215.16 1.62 1193.32 1.62 1193.32 97.62 1215.16 97.62 1220.29 97.62 1266.67 97.62 1266.67 75.23 1220.29 75.23 1220.29 59.59" style="fill:#fff"/><path d="M1335.83,1.62l-36.53,96h27.5l5.46-16.18h33.85l5.32,16.18h28l-36.13-96Zm3.52,58.78,10-29.78,9.8,29.78Z" style="fill:#fff"/><polygon points="1447.61 1.62 1418.89 1.62 1418.89 24.54 1447.61 24.54 1447.61 97.62 1474.57 97.62 1474.57 24.54 1503.43 24.54 1503.43 1.62 1474.57 1.62 1447.61 1.62" style="fill:#fff"/><rect x="1540.5" y="1.62" width="26.97" height="96" style="fill:#fff"/><polygon points="1651.65 60.41 1631.92 1.62 1603.33 1.62 1638.52 97.62 1664.14 97.62 1699.87 1.62 1671.69 1.62 1651.65 60.41" style="fill:#fff"/><path d="M1789,97.62h28l-36.14-96h-27.5l-36.54,96h27.5l5.46-16.18h33.85ZM1756.91,60.4l10-29.78,9.79,29.78Z" style="fill:#fff"/><path d="M442.39,184.72a14.09,14.09,0,0,1,6.68-1.35,22.49,22.49,0,0,1,9.71,2.09,33.61,33.61,0,0,1,8.9,6.4l17-16.85a40.07,40.07,0,0,0-15.3-9.78,57,57,0,0,0-20-3.44,46.76,46.76,0,0,0-19,3.58,27.29,27.29,0,0,0-17,26.36,27.06,27.06,0,0,0,2.43,12.06,24.59,24.59,0,0,0,6.4,8.23,42.47,42.47,0,0,0,8.7,5.59,80.92,80.92,0,0,0,9.5,3.91q4.78,1.62,8.77,3.17a24.54,24.54,0,0,1,6.4,3.51,6.05,6.05,0,0,1,2.43,4.92,5.19,5.19,0,0,1-2.83,4.65q-2.83,1.69-8.36,1.69a29.75,29.75,0,0,1-12.41-2.63,40.36,40.36,0,0,1-11.05-7.62l-16.86,16.85a48.34,48.34,0,0,0,16.79,11.4A58.37,58.37,0,0,0,444.62,261q19,0,29.46-8t10.45-22.72a28.79,28.79,0,0,0-2.43-12.41,25.73,25.73,0,0,0-6.4-8.56,37.91,37.91,0,0,0-8.7-5.66,88.65,88.65,0,0,0-9.5-3.84q-4.8-1.62-8.77-3.1a25.49,25.49,0,0,1-6.4-3.31,5.57,5.57,0,0,1-2.43-4.65A4.32,4.32,0,0,1,442.39,184.72Z" style="fill:#fff"/><polygon points="542.64 163.41 513.92 163.41 513.92 186.33 542.64 186.33 542.64 259.41 569.61 259.41 569.61 186.33 598.46 186.33 598.46 163.41 569.61 163.41 542.64 163.41" style="fill:#fff"/><path d="M690.55,223a14.88,14.88,0,0,1-1.89,7.75,12.58,12.58,0,0,1-5.19,4.85,16.45,16.45,0,0,1-7.62,1.69,17,17,0,0,1-7.62-1.69,13.11,13.11,0,0,1-5.46-4.92,14.45,14.45,0,0,1-2-7.82V163.41h-27v57a41.57,41.57,0,0,0,5.26,21,37.39,37.39,0,0,0,14.7,14.36q9.43,5.19,22.11,5.19t22-5.19a37.19,37.19,0,0,0,14.56-14.29,41.6,41.6,0,0,0,5.19-21V163.41h-27.1Z" style="fill:#fff"/><path d="M836.57,176.49a48.66,48.66,0,0,0-16.52-9.71,62.12,62.12,0,0,0-20.83-3.37H758.77v96h40.72A60.9,60.9,0,0,0,820.12,256a48.66,48.66,0,0,0,16.45-9.71,43.64,43.64,0,0,0,10.85-15.17,52.71,52.71,0,0,0,0-39.5A43.74,43.74,0,0,0,836.57,176.49ZM820.79,225.3a19.12,19.12,0,0,1-8.49,8.43,29,29,0,0,1-13.08,2.76H785.73V186.33h13.49a28.54,28.54,0,0,1,13,2.77,19.57,19.57,0,0,1,8.49,8.29c2,3.69,3,8.31,3,13.89S822.77,221.52,820.79,225.3Z" style="fill:#fff"/><rect x="889.28" y="163.41" width="26.97" height="96" style="fill:#fff"/><path d="M1043.66,175.68a49.73,49.73,0,0,0-16.52-10.45,60.33,60.33,0,0,0-41.66,0A49.73,49.73,0,0,0,969,175.68a47.51,47.51,0,0,0-10.85,15.78,52.63,52.63,0,0,0,.07,39.64,47.36,47.36,0,0,0,11,15.91,51,51,0,0,0,16.58,10.51,59.25,59.25,0,0,0,41.46.07,49.16,49.16,0,0,0,16.45-10.52,47.84,47.84,0,0,0,10.85-15.91,52.94,52.94,0,0,0,0-39.64A47.35,47.35,0,0,0,1043.66,175.68Zm-15.78,49.48a21.36,21.36,0,0,1-8.49,9.17,25.41,25.41,0,0,1-13.08,3.24,27.12,27.12,0,0,1-10.18-1.82,21.71,21.71,0,0,1-7.75-5.26,22.79,22.79,0,0,1-4.92-8.29,33,33,0,0,1-1.69-10.92,30.21,30.21,0,0,1,3-13.82,21.26,21.26,0,0,1,8.49-9,25.91,25.91,0,0,1,13.08-3.17,27.08,27.08,0,0,1,10.18,1.82,21.63,21.63,0,0,1,7.75,5.26,23.12,23.12,0,0,1,4.93,8.23,32.2,32.2,0,0,1,1.68,10.72A30.62,30.62,0,0,1,1027.88,225.16Z" style="fill:#fff"/><path d="M411.63,328h11.61l15.54,37.94h.61L454.94,328h11.61v52.36h-9.1v-36H457l-14.47,35.82h-6.8l-14.47-35.9h-.49v36.05h-9.1Z" style="fill:#fff"/><path d="M499,381.09a19,19,0,0,1-10-2.53,17.15,17.15,0,0,1-6.54-7.08,25.71,25.71,0,0,1,0-21.3,17.11,17.11,0,0,1,6.54-7.11,20.91,20.91,0,0,1,19.94,0,17.09,17.09,0,0,1,6.53,7.11,25.6,25.6,0,0,1,0,21.3,17.13,17.13,0,0,1-6.53,7.08A19,19,0,0,1,499,381.09Zm.05-7.41a8,8,0,0,0,5.22-1.73,10.4,10.4,0,0,0,3.13-4.64,19.29,19.29,0,0,0,1-6.49,19.55,19.55,0,0,0-1-6.54,10.46,10.46,0,0,0-3.13-4.66,7.91,7.91,0,0,0-5.22-1.74,8.08,8.08,0,0,0-5.31,1.74,10.4,10.4,0,0,0-3.14,4.66,19.55,19.55,0,0,0-1,6.54,19.29,19.29,0,0,0,1,6.49,10.33,10.33,0,0,0,3.14,4.64A8.13,8.13,0,0,0,499.05,373.68Z" style="fill:#fff"/><path d="M531,380.32V341.05h9v6.55h.41a9.87,9.87,0,0,1,3.7-5.26,10.15,10.15,0,0,1,6-1.85c.52,0,1.09,0,1.73.06a13.08,13.08,0,0,1,1.6.2v8.51a9.77,9.77,0,0,0-1.86-.37,18.78,18.78,0,0,0-2.44-.17,9.32,9.32,0,0,0-4.54,1.09,8,8,0,0,0-3.15,3,8.43,8.43,0,0,0-1.15,4.43v23.08Z" style="fill:#fff"/><path d="M580.75,381.09a20,20,0,0,1-10.19-2.47,16.43,16.43,0,0,1-6.58-7,25.87,25.87,0,0,1,0-21.35,17.37,17.37,0,0,1,6.48-7.16,18.3,18.3,0,0,1,9.79-2.57,20.31,20.31,0,0,1,6.87,1.16,16,16,0,0,1,5.73,3.6,16.81,16.81,0,0,1,3.92,6.17,24.85,24.85,0,0,1,1.43,8.91v2.84H566V357h23.32a10.07,10.07,0,0,0-1.15-4.74,8.4,8.4,0,0,0-3.13-3.29,8.94,8.94,0,0,0-4.67-1.2,9.08,9.08,0,0,0-5,1.37,9.41,9.41,0,0,0-3.34,3.58,10.34,10.34,0,0,0-1.22,4.84V363a12.68,12.68,0,0,0,1.26,5.87,8.78,8.78,0,0,0,3.5,3.73,10.42,10.42,0,0,0,5.27,1.29,11,11,0,0,0,3.65-.57,8.06,8.06,0,0,0,2.84-1.7,7.16,7.16,0,0,0,1.82-2.79l8.64,1a13.44,13.44,0,0,1-3.11,6,15.05,15.05,0,0,1-5.84,3.94A22.13,22.13,0,0,1,580.75,381.09Z" style="fill:#fff"/><path d="M679.94,345.63h-9.56a12.24,12.24,0,0,0-1.51-4.18,11.38,11.38,0,0,0-2.74-3.11,11.75,11.75,0,0,0-3.72-1.93,15.09,15.09,0,0,0-4.49-.65,13.61,13.61,0,0,0-7.56,2.13,14.23,14.23,0,0,0-5.17,6.24,28,28,0,0,0,0,20.13,14,14,0,0,0,5.17,6.18,13.75,13.75,0,0,0,7.53,2.09,15,15,0,0,0,4.41-.63,12.29,12.29,0,0,0,3.71-1.85,11.31,11.31,0,0,0,2.78-3,11.52,11.52,0,0,0,1.58-4.09l9.56.05a20.77,20.77,0,0,1-2.32,7,20.55,20.55,0,0,1-4.64,5.76,21.06,21.06,0,0,1-6.7,3.89,24.7,24.7,0,0,1-8.51,1.39,23.7,23.7,0,0,1-12.32-3.2,22.22,22.22,0,0,1-8.54-9.23,35,35,0,0,1,0-28.95,22.45,22.45,0,0,1,8.57-9.22,23.68,23.68,0,0,1,12.27-3.19,26,26,0,0,1,8.13,1.22,20.91,20.91,0,0,1,6.7,3.6,19.5,19.5,0,0,1,4.84,5.77A21.76,21.76,0,0,1,679.94,345.63Z" style="fill:#fff"/><path d="M693.65,380.32V341.05h9v6.55H703a9.87,9.87,0,0,1,3.7-5.26,10.13,10.13,0,0,1,6-1.85c.51,0,1.09,0,1.73.06a13.08,13.08,0,0,1,1.6.2v8.51a10,10,0,0,0-1.86-.37,18.9,18.9,0,0,0-2.44-.17,9.32,9.32,0,0,0-4.54,1.09,8.07,8.07,0,0,0-3.16,3,8.52,8.52,0,0,0-1.15,4.43v23.08Z" style="fill:#fff"/><path d="M743.36,381.09a20,20,0,0,1-10.19-2.47,16.46,16.46,0,0,1-6.59-7,25.82,25.82,0,0,1,0-21.35,17.37,17.37,0,0,1,6.48-7.16,18.3,18.3,0,0,1,9.79-2.57,20.31,20.31,0,0,1,6.87,1.16,15.85,15.85,0,0,1,5.72,3.6,16.82,16.82,0,0,1,3.93,6.17,25.07,25.07,0,0,1,1.43,8.91v2.84H728.63V357H752a10.07,10.07,0,0,0-1.15-4.74,8.42,8.42,0,0,0-3.14-3.29,8.88,8.88,0,0,0-4.66-1.2,9.11,9.11,0,0,0-5,1.37,9.46,9.46,0,0,0-3.33,3.58,10.22,10.22,0,0,0-1.22,4.84V363a12.81,12.81,0,0,0,1.25,5.87,8.86,8.86,0,0,0,3.51,3.73,10.38,10.38,0,0,0,5.26,1.29,11.07,11.07,0,0,0,3.66-.57,8.06,8.06,0,0,0,2.84-1.7,7.14,7.14,0,0,0,1.81-2.79l8.65,1a13.54,13.54,0,0,1-3.11,6,15.13,15.13,0,0,1-5.84,3.94A22.13,22.13,0,0,1,743.36,381.09Z" style="fill:#fff"/><path d="M785.34,381.12a16.27,16.27,0,0,1-6.71-1.34,10.82,10.82,0,0,1-4.7-4,11.61,11.61,0,0,1-1.73-6.49,11.05,11.05,0,0,1,1.23-5.5,9.48,9.48,0,0,1,3.35-3.48,17,17,0,0,1,4.79-2,40.78,40.78,0,0,1,5.54-1q3.45-.35,5.6-.65a8,8,0,0,0,3.13-.92,2.14,2.14,0,0,0,1-2v-.16a5.8,5.8,0,0,0-1.71-4.47,7,7,0,0,0-4.93-1.59,8.77,8.77,0,0,0-5.38,1.49,7.23,7.23,0,0,0-2.68,3.5l-8.64-1.23a13.88,13.88,0,0,1,3.38-6,14.8,14.8,0,0,1,5.75-3.63,22.21,22.21,0,0,1,7.52-1.22,24.17,24.17,0,0,1,5.65.67,16.21,16.21,0,0,1,5.14,2.18,11.23,11.23,0,0,1,3.74,4.13,13.47,13.47,0,0,1,1.42,6.52v26.28h-8.9v-5.39h-.3a11.59,11.59,0,0,1-2.37,3.06,11.31,11.31,0,0,1-3.81,2.27A15.26,15.26,0,0,1,785.34,381.12Zm2.41-6.8a9.85,9.85,0,0,0,4.83-1.12,8.12,8.12,0,0,0,3.16-2.95,7.62,7.62,0,0,0,1.11-4v-4.63a4.25,4.25,0,0,1-1.47.66,19.76,19.76,0,0,1-2.31.54c-.86.15-1.7.29-2.54.41l-2.17.31a15.62,15.62,0,0,0-3.71.92,6.22,6.22,0,0,0-2.58,1.77A5,5,0,0,0,783,373,8.13,8.13,0,0,0,787.75,374.32Z" style="fill:#fff"/><path d="M840.42,341.05v7.16H817.85v-7.16Zm-17-9.41h9.26v36.87a5.74,5.74,0,0,0,.57,2.85,3,3,0,0,0,1.52,1.35,6.09,6.09,0,0,0,2.1.35,9.92,9.92,0,0,0,1.6-.12l1.11-.23,1.56,7.23a20.47,20.47,0,0,1-2.11.56,16.79,16.79,0,0,1-3.34.36,14.84,14.84,0,0,1-6.26-1.06,9.51,9.51,0,0,1-4.41-3.62,10.72,10.72,0,0,1-1.6-6.13Z" style="fill:#fff"/><path d="M858.22,335.48a5.39,5.39,0,0,1-3.78-1.48,4.71,4.71,0,0,1-1.59-3.56,4.65,4.65,0,0,1,1.59-3.54,5.38,5.38,0,0,1,3.78-1.47,5.32,5.32,0,0,1,3.8,1.48,4.72,4.72,0,0,1,1.57,3.56A4.67,4.67,0,0,1,862,334,5.36,5.36,0,0,1,858.22,335.48Zm-4.65,44.84V341.05h9.26v39.27Z" style="fill:#fff"/><path d="M912.82,341.05l-14,39.27H888.6l-14-39.27h9.87l9,29.18h.41L903,341.05Z" style="fill:#fff"/><path d="M940.64,381.09a20,20,0,0,1-10.19-2.47,16.37,16.37,0,0,1-6.58-7,25.87,25.87,0,0,1,0-21.35,17.37,17.37,0,0,1,6.48-7.16,18.3,18.3,0,0,1,9.79-2.57A20.31,20.31,0,0,1,947,341.7a16,16,0,0,1,5.73,3.6,16.81,16.81,0,0,1,3.92,6.17,24.85,24.85,0,0,1,1.43,8.91v2.84H925.91V357h23.32a10.07,10.07,0,0,0-1.15-4.74A8.4,8.4,0,0,0,945,349a8.94,8.94,0,0,0-4.67-1.2,9.08,9.08,0,0,0-5,1.37A9.41,9.41,0,0,0,932,352.7a10.34,10.34,0,0,0-1.22,4.84V363a12.68,12.68,0,0,0,1.26,5.87,8.78,8.78,0,0,0,3.5,3.73,10.42,10.42,0,0,0,5.27,1.29,11,11,0,0,0,3.65-.57,8.06,8.06,0,0,0,2.84-1.7,7.16,7.16,0,0,0,1.82-2.79l8.64,1a13.44,13.44,0,0,1-3.11,6,15.05,15.05,0,0,1-5.84,3.94A22.13,22.13,0,0,1,940.64,381.09Z" style="fill:#fff"/><path d="M982.19,373.17l-.33,2.81a42.81,42.81,0,0,1-1.27,6.56c-.6,2.22-1.24,4.27-1.9,6.15s-1.2,3.34-1.61,4.42h-6.24c.24-1,.57-2.46,1-4.25s.83-3.8,1.22-6a61,61,0,0,0,.79-6.8l.18-2.86Z" style="fill:#fff"/><path d="M1020,328h11.61l15.54,37.94h.61L1063.33,328h11.61v52.36h-9.1v-36h-.49l-14.47,35.82h-6.8l-14.47-35.9h-.49v36.05H1020Z" style="fill:#fff"/><path d="M1107.39,381.09a19,19,0,0,1-10-2.53,17.22,17.22,0,0,1-6.54-7.08,25.71,25.71,0,0,1,0-21.3,17.18,17.18,0,0,1,6.54-7.11,20.91,20.91,0,0,1,19.94,0,17.09,17.09,0,0,1,6.53,7.11,25.6,25.6,0,0,1,0,21.3,17.13,17.13,0,0,1-6.53,7.08A19,19,0,0,1,1107.39,381.09Zm0-7.41a8,8,0,0,0,5.22-1.73,10.4,10.4,0,0,0,3.13-4.64,19.29,19.29,0,0,0,1-6.49,19.55,19.55,0,0,0-1-6.54,10.46,10.46,0,0,0-3.13-4.66,7.91,7.91,0,0,0-5.22-1.74,8.08,8.08,0,0,0-5.31,1.74,10.4,10.4,0,0,0-3.14,4.66,19.55,19.55,0,0,0-1,6.54,19.29,19.29,0,0,0,1,6.49,10.33,10.33,0,0,0,3.14,4.64A8.13,8.13,0,0,0,1107.44,373.68Z" style="fill:#fff"/><path d="M1139.43,380.32V341.05h9v6.55h.41a9.87,9.87,0,0,1,3.7-5.26,10.15,10.15,0,0,1,6-1.85c.52,0,1.09,0,1.73.06a13.08,13.08,0,0,1,1.6.2v8.51a9.77,9.77,0,0,0-1.86-.37,18.78,18.78,0,0,0-2.44-.17,9.35,9.35,0,0,0-4.54,1.09,8,8,0,0,0-3.15,3,8.43,8.43,0,0,0-1.15,4.43v23.08Z" style="fill:#fff"/><path d="M1189.14,381.09a20,20,0,0,1-10.19-2.47,16.43,16.43,0,0,1-6.58-7,25.87,25.87,0,0,1,0-21.35,17.37,17.37,0,0,1,6.48-7.16,18.3,18.3,0,0,1,9.79-2.57,20.31,20.31,0,0,1,6.87,1.16,15.8,15.8,0,0,1,5.73,3.6,16.81,16.81,0,0,1,3.92,6.17,24.85,24.85,0,0,1,1.43,8.91v2.84h-32.19V357h23.32a10.07,10.07,0,0,0-1.15-4.74,8.4,8.4,0,0,0-3.13-3.29,8.94,8.94,0,0,0-4.67-1.2,9.08,9.08,0,0,0-5,1.37,9.41,9.41,0,0,0-3.34,3.58,10.21,10.21,0,0,0-1.21,4.84V363a12.69,12.69,0,0,0,1.25,5.87,8.78,8.78,0,0,0,3.5,3.73,10.42,10.42,0,0,0,5.27,1.29,11,11,0,0,0,3.65-.57,8.06,8.06,0,0,0,2.84-1.7,7.16,7.16,0,0,0,1.82-2.79l8.64,1a13.44,13.44,0,0,1-3.11,6,15.05,15.05,0,0,1-5.84,3.94A22.13,22.13,0,0,1,1189.14,381.09Z" style="fill:#fff"/><path d="M1250.23,380.32h-10.12L1258.54,328h11.71l18.46,52.36h-10.12l-14-41.62h-.41Zm.33-20.53h27.62v7.62h-27.62Z" style="fill:#fff"/><path d="M1325.64,363.81V341.05h9.25v39.27h-9v-7h-.41a11.88,11.88,0,0,1-4.36,5.4,12.78,12.78,0,0,1-7.45,2.1,13.27,13.27,0,0,1-6.82-1.73,11.77,11.77,0,0,1-4.61-5,17.66,17.66,0,0,1-1.66-8v-25h9.25v23.58a8.35,8.35,0,0,0,2.05,5.93,7,7,0,0,0,5.37,2.2,8.55,8.55,0,0,0,4-1,8.19,8.19,0,0,0,3.16-3A9.27,9.27,0,0,0,1325.64,363.81Z" style="fill:#fff"/><path d="M1369.41,341.05v7.16h-22.57v-7.16Zm-17-9.41h9.26v36.87a5.74,5.74,0,0,0,.57,2.85,3,3,0,0,0,1.52,1.35,6.09,6.09,0,0,0,2.1.35,9.92,9.92,0,0,0,1.6-.12l1.11-.23,1.56,7.23a19.78,19.78,0,0,1-2.11.56,16.79,16.79,0,0,1-3.34.36,14.87,14.87,0,0,1-6.26-1.06,9.51,9.51,0,0,1-4.41-3.62,10.72,10.72,0,0,1-1.6-6.13Z" style="fill:#fff"/><path d="M1392.63,357.31v23h-9.25V328h9v19.77h.46a11.44,11.44,0,0,1,4.28-5.26,13.09,13.09,0,0,1,7.4-1.93,14.34,14.34,0,0,1,7.14,1.71,11.63,11.63,0,0,1,4.71,5,17.55,17.55,0,0,1,1.68,8.05v25h-9.26V356.75a8.75,8.75,0,0,0-2-6.17,7.32,7.32,0,0,0-5.69-2.22,8.91,8.91,0,0,0-4.38,1.07,7.4,7.4,0,0,0-3,3.05A10,10,0,0,0,1392.63,357.31Z" style="fill:#fff"/><path d="M1450.29,381.09a20.05,20.05,0,0,1-10.19-2.47,16.43,16.43,0,0,1-6.58-7,25.87,25.87,0,0,1,0-21.35,17.51,17.51,0,0,1,6.48-7.16,18.34,18.34,0,0,1,9.8-2.57,20.21,20.21,0,0,1,6.86,1.16,15.8,15.8,0,0,1,5.73,3.6,16.81,16.81,0,0,1,3.92,6.17,24.84,24.84,0,0,1,1.44,8.91v2.84h-32.19V357h23.31a10,10,0,0,0-1.15-4.74,8.4,8.4,0,0,0-3.13-3.29,8.91,8.91,0,0,0-4.66-1.2,9.09,9.09,0,0,0-5,1.37,9.57,9.57,0,0,0-3.34,3.58,10.33,10.33,0,0,0-1.21,4.84V363a12.81,12.81,0,0,0,1.25,5.87,8.84,8.84,0,0,0,3.5,3.73,10.42,10.42,0,0,0,5.27,1.29,11.07,11.07,0,0,0,3.66-.57,8.15,8.15,0,0,0,2.84-1.7,7.14,7.14,0,0,0,1.81-2.79l8.64,1a13.43,13.43,0,0,1-3.1,6,15.16,15.16,0,0,1-5.85,3.94A22.13,22.13,0,0,1,1450.29,381.09Z" style="fill:#fff"/><path d="M1490.24,357.31v23H1481V341.05h8.85v6.68h.46a11.19,11.19,0,0,1,4.33-5.25,13.29,13.29,0,0,1,7.38-1.94,14,14,0,0,1,7.09,1.74,11.85,11.85,0,0,1,4.71,5,17.46,17.46,0,0,1,1.65,8v25h-9.26V356.75a8.82,8.82,0,0,0-2-6.16,7.25,7.25,0,0,0-5.61-2.23,8.58,8.58,0,0,0-4.31,1.07,7.27,7.27,0,0,0-2.94,3.05A10.14,10.14,0,0,0,1490.24,357.31Z" style="fill:#fff"/><path d="M1549.89,341.05v7.16h-22.57v-7.16Zm-17-9.41h9.25v36.87a5.73,5.73,0,0,0,.58,2.85,3,3,0,0,0,1.52,1.35,6.09,6.09,0,0,0,2.1.35,9.92,9.92,0,0,0,1.6-.12l1.11-.23,1.56,7.23a20.47,20.47,0,0,1-2.11.56,16.88,16.88,0,0,1-3.34.36,14.84,14.84,0,0,1-6.26-1.06,9.51,9.51,0,0,1-4.41-3.62,10.65,10.65,0,0,1-1.6-6.13Z" style="fill:#fff"/><path d="M1567.69,335.48a5.37,5.37,0,0,1-3.78-1.48,4.71,4.71,0,0,1-1.59-3.56,4.65,4.65,0,0,1,1.59-3.54,5.61,5.61,0,0,1,7.58,0,4.72,4.72,0,0,1,1.57,3.56,4.67,4.67,0,0,1-1.57,3.54A5.38,5.38,0,0,1,1567.69,335.48ZM1563,380.32V341.05h9.25v39.27Z" style="fill:#fff"/><path d="M1604.34,381.09a18.92,18.92,0,0,1-10.09-2.58,17.11,17.11,0,0,1-6.47-7.15,25.53,25.53,0,0,1,0-21.09,17.17,17.17,0,0,1,6.51-7.16,18.73,18.73,0,0,1,10-2.57,19.53,19.53,0,0,1,8.48,1.75,14.37,14.37,0,0,1,8.4,12.36h-8.85a8.49,8.49,0,0,0-2.54-4.74,7.46,7.46,0,0,0-5.36-1.9,8.35,8.35,0,0,0-5,1.52,9.82,9.82,0,0,0-3.34,4.36,17.6,17.6,0,0,0-1.19,6.8,18.09,18.09,0,0,0,1.18,6.89,9.9,9.9,0,0,0,3.31,4.42,9,9,0,0,0,8.69.77,7.23,7.23,0,0,0,2.72-2.26,8.61,8.61,0,0,0,1.51-3.61h8.85a15.39,15.39,0,0,1-2.45,7.38,14.47,14.47,0,0,1-5.78,5A19.24,19.24,0,0,1,1604.34,381.09Z" style="fill:#fff"/></svg>