<svg xmlns="http://www.w3.org/2000/svg" viewBox="0 0 1699.87 261.3"><circle cx="116.13" cy="145.17" r="53.25" style="fill:#fff"/><path d="M169.38,41.93c0,.54,0,1.08,0,1.62V95.82c-.62-.67-1.26-1.33-1.9-2A72.58,72.58,0,1,0,64.81,196.49a73.17,73.17,0,0,0,9,7.62A55.29,55.29,0,0,0,61.55,247.7,116.16,116.16,0,0,1,169.38,41.93Z" style="fill:#fff"/><path d="M232.26,0V145.17A116.21,116.21,0,0,1,84.87,257a35.84,35.84,0,0,1,6.62-43.56,72.63,72.63,0,0,0,97.23-68.31V43.55A43.54,43.54,0,0,1,232.26,0Z" style="fill:#fff"/><path d="M374.24,14.7A48.5,48.5,0,0,0,357.72,5a61.83,61.83,0,0,0-20.83-3.37H296.44v96h40.72a61.11,61.11,0,0,0,20.63-3.37,48.82,48.82,0,0,0,16.45-9.71,43.74,43.74,0,0,0,10.85-15.17,48.87,48.87,0,0,0,3.85-19.75,48.92,48.92,0,0,0-3.85-19.76A43.7,43.7,0,0,0,374.24,14.7ZM358.46,63.5A18.92,18.92,0,0,1,350,71.93a29,29,0,0,1-13.08,2.77H323.41V24.54h13.48a28.54,28.54,0,0,1,13,2.76,19.76,19.76,0,0,1,8.5,8.29q3,5.53,3,13.89T358.46,63.5Z" style="fill:#fff"/><path d="M520,97.62l-36.14-96h-27.5l-36.54,96h27.51l5.45-16.18h33.85l5.32,16.18ZM459.86,60.4l10.05-29.78L479.7,60.4Z" style="fill:#fff"/><path d="M582.08,22.92a14,14,0,0,1,6.67-1.35,22.6,22.6,0,0,1,9.71,2.09,33.66,33.66,0,0,1,8.9,6.41l17-16.86A40.29,40.29,0,0,0,609,3.44,57,57,0,0,0,589,0a46.76,46.76,0,0,0-19,3.57,28.34,28.34,0,0,0-12.54,10.32,28.41,28.41,0,0,0-4.45,16A27.07,27.07,0,0,0,555.45,42a24.78,24.78,0,0,0,6.4,8.22,42.52,42.52,0,0,0,8.7,5.6,80.92,80.92,0,0,0,9.5,3.91c3.19,1.08,6.12,2.14,8.77,3.17a24.25,24.25,0,0,1,6.4,3.5,6.08,6.08,0,0,1,2.43,4.92A5.2,5.2,0,0,1,594.82,76q-2.84,1.68-8.36,1.68A29.75,29.75,0,0,1,574.05,75a40.14,40.14,0,0,1-11-7.62L546.14,84.27a48.31,48.31,0,0,0,16.79,11.39,58.37,58.37,0,0,0,21.37,3.57q19,0,29.46-8t10.45-22.72a28.77,28.77,0,0,0-2.43-12.4,25.5,25.5,0,0,0-6.4-8.56,38.29,38.29,0,0,0-8.7-5.67,89.9,89.9,0,0,0-9.5-3.84c-3.19-1.08-6.12-2.11-8.77-3.1a25.83,25.83,0,0,1-6.4-3.3A5.59,5.59,0,0,1,579.58,27,4.34,4.34,0,0,1,582.08,22.92Z" style="fill:#fff"/><path d="M689.33,1.62l-36.54,96H680.3l5.46-16.18h33.85l5.32,16.18h28l-36.13-96Zm3.52,58.78,10-29.78,9.8,29.78Z" style="fill:#fff"/><polygon points="863.13 51.01 894.4 97.62 926.76 97.62 891.38 47.39 925.28 1.62 892.79 1.62 863.13 44.3 863.13 1.62 836.16 1.62 836.16 97.62 863.13 97.62 863.13 51.01" style="fill:#fff"/><path d="M1019.66,55.68a29.15,29.15,0,0,0,12.2-10.11,26.29,26.29,0,0,0,4.39-15.1,26.55,26.55,0,0,0-4.32-15.1,29.17,29.17,0,0,0-11.86-10.11,39.91,39.91,0,0,0-17.53-3.64H960.07v96h27V59.32h.38l24.43,38.3h30.61l-28.09-40A35.49,35.49,0,0,0,1019.66,55.68ZM998.22,21q5.53,0,8.43,2.7a9.31,9.31,0,0,1,2.9,7.15,9.31,9.31,0,0,1-2.9,7.14q-2.89,2.7-8.43,2.7H987V21Z" style="fill:#fff"/><polygon points="1103.12 59.59 1144.51 59.59 1144.51 37.75 1103.12 37.75 1103.12 24 1148.69 24 1148.69 1.62 1103.12 1.62 1098 1.62 1076.15 1.62 1076.15 97.62 1098 97.62 1103.12 97.62 1149.5 97.62 1149.5 75.23 1103.12 75.23 1103.12 59.59" style="fill:#fff"/><path d="M1218.67,1.62l-36.54,96h27.5l5.46-16.18h33.85l5.32,16.18h28l-36.14-96Zm3.51,58.78,10-29.78L1242,60.4Z" style="fill:#fff"/><polygon points="1330.44 1.62 1301.72 1.62 1301.72 24.54 1330.44 24.54 1330.44 97.62 1357.41 97.62 1357.41 24.54 1386.26 24.54 1386.26 1.62 1357.41 1.62 1330.44 1.62" style="fill:#fff"/><rect x="1423.34" y="1.62" width="26.97" height="96" style="fill:#fff"/><polygon points="1534.48 60.41 1514.75 1.62 1486.17 1.62 1521.36 97.62 1546.97 97.62 1582.7 1.62 1554.53 1.62 1534.48 60.41" style="fill:#fff"/><path d="M1671.83,97.62h28l-36.13-96h-27.51l-36.54,96h27.51l5.45-16.18h33.86ZM1639.75,60.4l10-29.78,9.8,29.78Z" style="fill:#fff"/><path d="M325.23,184.72a14,14,0,0,1,6.67-1.35,22.46,22.46,0,0,1,9.71,2.09,33.45,33.45,0,0,1,8.9,6.4l17-16.85a40.23,40.23,0,0,0-15.3-9.78,57.05,57.05,0,0,0-20-3.44,46.79,46.79,0,0,0-19,3.58,27.29,27.29,0,0,0-17,26.36,27.06,27.06,0,0,0,2.43,12.06A24.61,24.61,0,0,0,305,212a42.4,42.4,0,0,0,8.69,5.59,81.77,81.77,0,0,0,9.51,3.91q4.79,1.62,8.76,3.17a24.61,24.61,0,0,1,6.41,3.51,6.07,6.07,0,0,1,2.42,4.92,5.17,5.17,0,0,1-2.83,4.65c-1.89,1.13-4.67,1.69-8.36,1.69a29.7,29.7,0,0,1-12.4-2.63,40.4,40.4,0,0,1-11.06-7.62L289.3,246.06a48.31,48.31,0,0,0,16.78,11.4A58.37,58.37,0,0,0,327.45,261q19,0,29.46-8t10.45-22.72a28.94,28.94,0,0,0-2.42-12.41,25.76,25.76,0,0,0-6.41-8.56,38.07,38.07,0,0,0-8.69-5.66,88.8,88.8,0,0,0-9.51-3.84q-4.79-1.62-8.76-3.1a25.4,25.4,0,0,1-6.41-3.31,5.56,5.56,0,0,1-2.42-4.65A4.32,4.32,0,0,1,325.23,184.72Z" style="fill:#fff"/><polygon points="425.48 163.41 396.76 163.41 396.76 186.33 425.48 186.33 425.48 259.41 452.44 259.41 452.44 186.33 481.29 186.33 481.29 163.41 452.44 163.41 425.48 163.41" style="fill:#fff"/><path d="M573.38,223a14.88,14.88,0,0,1-1.89,7.75,12.58,12.58,0,0,1-5.19,4.85,16.44,16.44,0,0,1-7.61,1.69,17,17,0,0,1-7.62-1.69,13.11,13.11,0,0,1-5.46-4.92,14.45,14.45,0,0,1-2-7.82V163.41h-27v57a41.47,41.47,0,0,0,5.26,21,37.3,37.3,0,0,0,14.69,14.36Q546,261,558.69,261t22-5.19a37.13,37.13,0,0,0,14.56-14.29,41.6,41.6,0,0,0,5.19-21V163.41h-27.1Z" style="fill:#fff"/><path d="M719.4,176.49a48.56,48.56,0,0,0-16.52-9.71,62.08,62.08,0,0,0-20.83-3.37H641.6v96h40.72A60.86,60.86,0,0,0,703,256a48.56,48.56,0,0,0,16.45-9.71,43.64,43.64,0,0,0,10.85-15.17,52.58,52.58,0,0,0,0-39.5A43.74,43.74,0,0,0,719.4,176.49ZM703.62,225.3a19,19,0,0,1-8.49,8.43,29,29,0,0,1-13.08,2.76H668.57V186.33h13.48a28.51,28.51,0,0,1,13,2.77,19.6,19.6,0,0,1,8.5,8.29c2,3.69,3,8.31,3,13.89S705.6,221.52,703.62,225.3Z" style="fill:#fff"/><rect x="772.12" y="163.41" width="26.97" height="96" style="fill:#fff"/><path d="M926.49,175.68A49.69,49.69,0,0,0,910,165.23a60.33,60.33,0,0,0-41.66,0,49.63,49.63,0,0,0-16.52,10.45A47.36,47.36,0,0,0,841,191.46,52.56,52.56,0,0,0,841,231.1,47.51,47.51,0,0,0,852,247a51.09,51.09,0,0,0,16.59,10.51,59.25,59.25,0,0,0,41.46.07,49,49,0,0,0,16.44-10.52,47.72,47.72,0,0,0,10.86-15.91,53.07,53.07,0,0,0,0-39.64A47.23,47.23,0,0,0,926.49,175.68Zm-15.77,49.48a21.48,21.48,0,0,1-8.49,9.17,25.43,25.43,0,0,1-13.08,3.24A27.08,27.08,0,0,1,879,235.75a21.67,21.67,0,0,1-7.76-5.26,23.07,23.07,0,0,1-4.92-8.29,33.29,33.29,0,0,1-1.68-10.92,30.34,30.34,0,0,1,3-13.82,21.22,21.22,0,0,1,8.5-9,25.86,25.86,0,0,1,13.08-3.17,27.15,27.15,0,0,1,10.18,1.82,21.71,21.71,0,0,1,7.75,5.26,23,23,0,0,1,4.92,8.23,32.19,32.19,0,0,1,1.69,10.72A30.62,30.62,0,0,1,910.72,225.16Z" style="fill:#fff"/></svg>