<svg xmlns="http://www.w3.org/2000/svg" viewBox="0 0 2034.55 360.51"><defs><style>.a{fill:#ff430d;}.b{fill:#ffc100;}.c{fill:#ff8200;}.d{fill:#fff;}</style></defs><circle class="a" cx="153.08" cy="199.39" r="70.19"/><path class="b" d="M223.27,63.31q0,1.06,0,2.13v68.9c-.81-.88-1.65-1.75-2.51-2.6A95.67,95.67,0,1,0,97.23,277.09a72.73,72.73,0,0,0-16.1,57.45A153.11,153.11,0,0,1,223.27,63.31Z"/><path class="c" d="M306.16,8V199.39A153.21,153.21,0,0,1,111.87,346.86a47.3,47.3,0,0,1,8.72-57.43,95.74,95.74,0,0,0,128.17-90V65.44A57.4,57.4,0,0,1,306.16,8Z"/><path class="d" d="M436.12,134.4h21.44a79.32,79.32,0,0,0,27.87-4.76,66.82,66.82,0,0,0,22.27-13.51,61.72,61.72,0,0,0,14.82-20.88,66.59,66.59,0,0,0,5.31-27,66.18,66.18,0,0,0-5.31-26.84A61.91,61.91,0,0,0,507.7,20.5,66.74,66.74,0,0,0,485.33,7a80.58,80.58,0,0,0-28.15-4.75H402.76V134.4h33.36ZM457,30.94q11.19,0,19.39,4.29a30.4,30.4,0,0,1,12.76,12.58q4.58,8.3,4.57,20.23,0,12.12-4.47,20.6a29.42,29.42,0,0,1-12.77,12.76A41.85,41.85,0,0,1,457,105.69H436.12V30.94Z"/><path class="d" d="M600.16,2.24,548.9,134.4H583l8.14-23.12H640.3l8,23.12h34.86L632.41,2.24Zm.32,82.57L616,40.7l15.17,44.11Z"/><path class="d" d="M764.1,106.34q-4.58,2.89-13,2.89a39.81,39.81,0,0,1-17.71-3.82,51.43,51.43,0,0,1-14.73-11.09l-21.06,21.25a63.49,63.49,0,0,0,22.27,15.85q12.21,5,28.8,5,25,0,38.87-10.81t13.88-30.57q0-10.06-3.35-17.15a34.68,34.68,0,0,0-8.85-11.75,52.26,52.26,0,0,0-12-7.64,137,137,0,0,0-13.14-5.22q-6.61-2.23-12.12-4.38A32.09,32.09,0,0,1,743.13,44a9,9,0,0,1-3.35-7.27,7.68,7.68,0,0,1,3.91-6.9q3.91-2.41,10.81-2.42a30.45,30.45,0,0,1,13.42,3,45.43,45.43,0,0,1,12.12,9l21.25-21.06A53.25,53.25,0,0,0,781.34,4.85,70.66,70.66,0,0,0,754.87,0q-14.36,0-25.16,4.85a39.16,39.16,0,0,0-16.87,13.79q-6.06,9-6.06,21.62,0,9.89,3.36,16.59A33.32,33.32,0,0,0,719,68a57.28,57.28,0,0,0,12.12,7.55,117,117,0,0,0,13.23,5.22Q751,83,756.46,85.28a30.88,30.88,0,0,1,8.85,5.41,10,10,0,0,1,3.36,7.73A8.94,8.94,0,0,1,764.1,106.34Z"/><path class="d" d="M910.59,111.28l7.95,23.12H953.4L902.69,2.24H870.44L819.18,134.4H853.3l8.14-23.12ZM870.77,84.81,886.31,40.7l15.17,44.11Z"/><polygon class="d" points="1143.16 2.23 1102.52 2.23 1057.78 61.25 1057.78 2.23 1024.41 2.23 1024.41 134.4 1057.78 134.4 1057.78 69.8 1104.57 134.4 1145.21 134.4 1092.99 65.24 1143.16 2.23"/><path class="d" d="M1248.85,76a39.16,39.16,0,0,0,16.31-13.79,36.46,36.46,0,0,0,5.87-20.6,36.44,36.44,0,0,0-5.78-20.51,39.66,39.66,0,0,0-15.94-13.79q-10.15-5-23.58-5h-56.29V134.4h33.36V80.9h2L1241,134.4h38.59l-40.49-55.11A47.86,47.86,0,0,0,1248.85,76ZM1221.07,27q8.21,0,12.59,4.19A14.46,14.46,0,0,1,1238,42.13c0,4.6-1.47,8.23-4.38,10.9s-7.12,4-12.59,4H1202.8V27Z"/><polygon class="d" points="1337.76 80.71 1395.74 80.71 1395.74 53.31 1337.76 53.31 1337.76 30.38 1401.33 30.38 1401.33 2.23 1337.76 2.23 1330.87 2.23 1304.4 2.23 1304.4 134.4 1330.87 134.4 1337.76 134.4 1402.45 134.4 1402.45 106.25 1337.76 106.25 1337.76 80.71"/><path class="d" d="M1476.82,2.24,1425.56,134.4h34.12l8.14-23.12H1517l8,23.12h34.86L1509.07,2.24Zm.33,82.57,15.54-44.11,15.17,44.11Z"/><polygon class="d" points="1563.88 30.94 1604.33 30.94 1604.33 134.4 1637.69 134.4 1637.69 30.94 1678.14 30.94 1678.14 2.23 1563.88 2.23 1563.88 30.94"/><rect class="d" x="1707.22" y="2.24" width="33.37" height="132.16"/><polygon class="d" points="1833.66 87.31 1803.96 2.23 1768.36 2.23 1818.13 134.4 1848.33 134.4 1898.66 2.23 1863.8 2.23 1833.66 87.31"/><path class="d" d="M1999.69,134.4h34.86L1983.85,2.24H1951.6L1900.34,134.4h34.11l8.15-23.12h49.14Zm-47.77-49.59,15.54-44.11,15.18,44.11Z"/><path class="d" d="M463.15,308.88l35.59.88a33.24,33.24,0,0,1-1.94,4.71,27.53,27.53,0,0,1-11.56,11.93q-7.55,4.1-18.36,4.1a37.09,37.09,0,0,1-19.11-4.85,34.36,34.36,0,0,1-13-13.61A41.91,41.91,0,0,1,430,291.73a39.12,39.12,0,0,1,5-20.14,35.64,35.64,0,0,1,13.52-13.32,38.74,38.74,0,0,1,19.29-4.76,41.19,41.19,0,0,1,18.64,4,46.54,46.54,0,0,1,14.73,12l22.37-22.36a60.65,60.65,0,0,0-23.3-17.25,79.67,79.67,0,0,0-32.07-6.24,76.64,76.64,0,0,0-28.05,5.12,71.35,71.35,0,0,0-23,14.36,65.28,65.28,0,0,0-20.88,48.74,67.7,67.7,0,0,0,5.31,26.94,66.26,66.26,0,0,0,14.92,21.71A67.89,67.89,0,0,0,438.83,355a74,74,0,0,0,27.86,5.13q20.13,0,35.33-8.48a59,59,0,0,0,23.76-24.89q8.58-16.39,8.58-40.08v-5H463.15Z"/><path class="d" d="M643.59,299.65a39,39,0,0,0,16.31-13.8,39.16,39.16,0,0,0,.09-41.1A39.7,39.7,0,0,0,644.06,231q-10.17-5-23.58-5h-56.3V358.09h33.37v-53.5h2l36.25,53.5h38.59L633.86,303A48.48,48.48,0,0,0,643.59,299.65Zm-27.77-48.93q8.19,0,12.58,4.19a14.43,14.43,0,0,1,4.38,10.91q0,6.89-4.38,10.9t-12.58,4H597.55v-30Z"/><path class="d" d="M813.59,243.08a66.93,66.93,0,0,0-22.37-14.45,79.77,79.77,0,0,0-56.29,0,66.9,66.9,0,0,0-42.5,63.1,68,68,0,0,0,5.4,27.12,67.15,67.15,0,0,0,15,21.9,69.23,69.23,0,0,0,22.46,14.54,78.39,78.39,0,0,0,56,.09,66.36,66.36,0,0,0,22.27-14.54,70.15,70.15,0,0,0,14.82-76A66.8,66.8,0,0,0,813.59,243.08Zm-18.45,69.15a32.7,32.7,0,0,1-12.68,13.61,37.42,37.42,0,0,1-19.38,4.85A39.91,39.91,0,0,1,748,328a32.2,32.2,0,0,1-11.56-7.83,34,34,0,0,1-7.36-12.3,48.43,48.43,0,0,1-2.52-16.12A44.11,44.11,0,0,1,731,271.41a32.18,32.18,0,0,1,12.68-13.52,38.09,38.09,0,0,1,19.39-4.75,38.85,38.85,0,0,1,15.1,2.8,33.26,33.26,0,0,1,11.55,7.92,34.29,34.29,0,0,1,7.37,12.21,46.68,46.68,0,0,1,2.51,15.66A44.53,44.53,0,0,1,795.14,312.23Z"/><path class="d" d="M941.65,307.94a23.35,23.35,0,0,1-3,12.12,20.4,20.4,0,0,1-8,7.74,24.5,24.5,0,0,1-11.75,2.7,25.71,25.71,0,0,1-11.83-2.7,20.3,20.3,0,0,1-8.39-7.83,23.31,23.31,0,0,1-3.08-12.21V225.92H862.43v79.41a56.35,56.35,0,0,0,7.09,28.34,49.88,49.88,0,0,0,19.85,19.48q12.76,7,29.54,7,17,0,29.55-7a50.34,50.34,0,0,0,19.66-19.39,55.79,55.79,0,0,0,7.09-28.24v-79.6H941.65Z"/><path class="d" d="M1091.71,231.05a50.55,50.55,0,0,0-22.93-5.13h-58.34V358.09h33.36V310.74h25a51.43,51.43,0,0,0,22.93-5,38.91,38.91,0,0,0,16.22-14.64q6-9.58,6-22.64,0-13.42-6-22.84A40.05,40.05,0,0,0,1091.71,231.05Zm-13.42,47.07a15.39,15.39,0,0,1-6.43,5.87,20,20,0,0,1-8.86,2h-19.2V250.72H1063a20,20,0,0,1,8.86,1.95,15.32,15.32,0,0,1,6.43,6,18.63,18.63,0,0,1,2.42,9.79A18.14,18.14,0,0,1,1078.29,278.12Z"/></svg>