<svg xmlns="http://www.w3.org/2000/svg" viewBox="0 0 2170.3 505.58"><defs><style>.a{fill:#fff;}</style></defs><circle class="a" cx="224.7" cy="280.88" r="103.03"/><path class="a" d="M327.73,81.14c0,1,0,2.08,0,3.12V185.4q-1.8-1.93-3.68-3.83A140.44,140.44,0,1,0,142.72,394.94a106.73,106.73,0,0,0-23.63,84.32A224.66,224.66,0,0,1,0,280.88c0-124.1,100.6-224.7,224.7-224.7A223.61,223.61,0,0,1,327.73,81.14Z"/><path class="a" d="M449.41,0V280.88c0,103.14-69.5,190.06-164.22,216.46a226.11,226.11,0,0,1-121,0A69.36,69.36,0,0,1,177,413.05,140.52,140.52,0,0,0,365.14,280.88V84.26A84.27,84.27,0,0,1,449.41,0Z"/><polygon class="a" points="573.91 483.26 573.52 483.26 565.06 451 557.28 451 548.84 483.24 548.44 483.24 540.53 451 531.98 451 544.37 494.87 552.21 494.87 561.01 464.08 561.35 464.08 570.14 494.87 577.98 494.87 590.36 451 581.81 451 573.91 483.26"/><path class="a" d="M627.42,453.07a21.26,21.26,0,0,0-20.63,0,18.84,18.84,0,0,0-7.2,7.73,29.06,29.06,0,0,0,0,24.25,18.91,18.91,0,0,0,7.2,7.73,21.16,21.16,0,0,0,20.63,0,19,19,0,0,0,7.2-7.72,29.21,29.21,0,0,0,0-24.27A19,19,0,0,0,627.42,453.07Zm.3,28.29a11.73,11.73,0,0,1-4.3,5.21,12.17,12.17,0,0,1-12.64,0,11.65,11.65,0,0,1-4.29-5.21,23.56,23.56,0,0,1,0-16.86,11.68,11.68,0,0,1,4.29-5.2,12.17,12.17,0,0,1,12.64,0,11.76,11.76,0,0,1,4.3,5.2,23.7,23.7,0,0,1,0,16.86Z"/><path class="a" d="M674.2,477.12a11.88,11.88,0,0,0,5.26-4.78,14.37,14.37,0,0,0,1.79-7.31,14.82,14.82,0,0,0-1.77-7.36,12.11,12.11,0,0,0-5.21-4.92,18.53,18.53,0,0,0-8.49-1.75H649.33v43.87h7.94V478.8h8.09L674,494.87h8.87l-9.49-17.38C673.65,477.38,673.93,477.25,674.2,477.12Zm-16.93-19.48h7.29a11.68,11.68,0,0,1,4.86.87,5.93,5.93,0,0,1,2.81,2.52,8.18,8.18,0,0,1,.92,4,7.9,7.9,0,0,1-.91,3.93,5.78,5.78,0,0,1-2.8,2.42,12.14,12.14,0,0,1-4.84.82h-7.33Z"/><polygon class="a" points="728.4 451 718.7 451 701.58 471.15 701.04 471.15 701.04 451 693.1 451 693.1 494.87 701.04 494.87 701.04 481.8 705.91 476.06 719 494.87 728.55 494.87 711.43 470.68 728.4 451"/><polygon class="a" points="756.02 457.66 769.58 457.66 769.58 494.87 777.47 494.87 777.47 457.66 791.03 457.66 791.03 451 756.02 451 756.02 457.66"/><path class="a" d="M829.73,453.07a21.26,21.26,0,0,0-20.63,0,19,19,0,0,0-7.2,7.73,29.16,29.16,0,0,0,0,24.25,19,19,0,0,0,7.2,7.73,21.16,21.16,0,0,0,20.63,0,18.82,18.82,0,0,0,7.2-7.72,29.11,29.11,0,0,0,0-24.27A18.84,18.84,0,0,0,829.73,453.07Zm.3,28.29a11.65,11.65,0,0,1-4.29,5.21,12.17,12.17,0,0,1-12.64,0,11.73,11.73,0,0,1-4.3-5.21,23.7,23.7,0,0,1,0-16.86,11.76,11.76,0,0,1,4.3-5.2,12.17,12.17,0,0,1,12.64,0,11.68,11.68,0,0,1,4.29,5.2,23.56,23.56,0,0,1,0,16.86Z"/><path class="a" d="M871.69,478.12H881.8a11.15,11.15,0,0,1-1.32,5.28,9.11,9.11,0,0,1-3.78,3.65,12.32,12.32,0,0,1-5.8,1.29,11.73,11.73,0,0,1-6.47-1.79,11.89,11.89,0,0,1-4.35-5.24,20.39,20.39,0,0,1-1.56-8.42,20.07,20.07,0,0,1,1.57-8.37,11.86,11.86,0,0,1,4.34-5.21,11.34,11.34,0,0,1,6.3-1.78,12.76,12.76,0,0,1,3.64.5,9.53,9.53,0,0,1,3,1.49,10.07,10.07,0,0,1,2.23,2.37A11.48,11.48,0,0,1,881,465h8.1a16.32,16.32,0,0,0-2.08-5.92,16.79,16.79,0,0,0-4-4.62,18.24,18.24,0,0,0-5.61-3,21.05,21.05,0,0,0-6.79-1.06,20.51,20.51,0,0,0-8,1.53,18.17,18.17,0,0,0-6.38,4.45,20.46,20.46,0,0,0-4.23,7.11,27.67,27.67,0,0,0-1.51,9.49,26.14,26.14,0,0,0,2.56,12,18.55,18.55,0,0,0,7.13,7.78,22.07,22.07,0,0,0,20.28.51,16.35,16.35,0,0,0,6.6-6.33,19,19,0,0,0,2.4-9.74v-5.27H871.69Z"/><polygon class="a" points="909.66 476.23 928.77 476.23 928.77 469.57 909.66 469.57 909.66 457.66 930.25 457.66 930.25 451 901.71 451 901.71 494.87 930.42 494.87 930.42 488.21 909.66 488.21 909.66 476.23"/><polygon class="a" points="940.96 457.66 954.52 457.66 954.52 494.87 962.41 494.87 962.41 457.66 975.97 457.66 975.97 451 940.96 451 940.96 457.66"/><polygon class="a" points="1015.5 469.57 995.16 469.57 995.16 451 987.22 451 987.22 494.87 995.16 494.87 995.16 476.23 1015.5 476.23 1015.5 494.87 1023.47 494.87 1023.47 451 1015.5 451 1015.5 469.57"/><polygon class="a" points="1044.57 476.23 1063.68 476.23 1063.68 469.57 1044.57 469.57 1044.57 457.66 1065.16 457.66 1065.16 451 1036.62 451 1036.62 494.87 1065.33 494.87 1065.33 488.21 1044.57 488.21 1044.57 476.23"/><path class="a" d="M1102.67,477.12a11.78,11.78,0,0,0,5.26-4.78,14.27,14.27,0,0,0,1.79-7.31,14.82,14.82,0,0,0-1.77-7.36,12,12,0,0,0-5.2-4.92,18.57,18.57,0,0,0-8.5-1.75H1077.8v43.87h8V478.8h8.09l8.62,16.07h8.87l-9.5-17.38C1102.12,477.38,1102.4,477.25,1102.67,477.12Zm-16.92-19.48H1093a11.7,11.7,0,0,1,4.87.87,5.9,5.9,0,0,1,2.8,2.52,8.07,8.07,0,0,1,.92,4,7.8,7.8,0,0,1-.91,3.93,5.75,5.75,0,0,1-2.79,2.42,12.18,12.18,0,0,1-4.84.82h-7.33Z"/><path class="a" d="M1123.33,491.27a51,51,0,0,1-.67,5.7q-.48,2.8-1,5.06c-.35,1.5-.63,2.68-.83,3.55h5.23c.34-.9.79-2.13,1.35-3.7s1.09-3.29,1.6-5.16a36.84,36.84,0,0,0,1.06-5.49l.27-2.36h-6.85Z"/><path class="a" d="M1182.08,478.12h10.1a10.93,10.93,0,0,1-1.32,5.28,9,9,0,0,1-3.78,3.65,12.27,12.27,0,0,1-5.79,1.29,11.71,11.71,0,0,1-6.47-1.79,11.83,11.83,0,0,1-4.35-5.24,23.16,23.16,0,0,1,0-16.79,11.8,11.8,0,0,1,4.34-5.21,11.33,11.33,0,0,1,6.29-1.78,12.83,12.83,0,0,1,3.65.5,9.47,9.47,0,0,1,3,1.49,9.87,9.87,0,0,1,2.23,2.37,11.81,11.81,0,0,1,1.47,3.12h8.1a16.32,16.32,0,0,0-2.08-5.92,16.82,16.82,0,0,0-4-4.62,18.08,18.08,0,0,0-5.6-3,21.05,21.05,0,0,0-6.79-1.06,20.47,20.47,0,0,0-8,1.53,18.3,18.3,0,0,0-6.39,4.45,20.62,20.62,0,0,0-4.23,7.11,27.91,27.91,0,0,0-1.51,9.49,26.26,26.26,0,0,0,2.56,12,18.64,18.64,0,0,0,7.14,7.78,22.05,22.05,0,0,0,20.27.51,16.35,16.35,0,0,0,6.6-6.33,19,19,0,0,0,2.4-9.74v-5.27h-17.8Z"/><path class="a" d="M1237,477.12a11.88,11.88,0,0,0,5.26-4.78A14.37,14.37,0,0,0,1244,465a14.82,14.82,0,0,0-1.77-7.36,12.11,12.11,0,0,0-5.21-4.92,18.53,18.53,0,0,0-8.49-1.75H1212.1v43.87H1220V478.8h8.09l8.62,16.07h8.87l-9.49-17.38C1236.42,477.38,1236.7,477.25,1237,477.12ZM1220,457.64h7.29a11.68,11.68,0,0,1,4.86.87A5.93,5.93,0,0,1,1235,461a8.18,8.18,0,0,1,.92,4A7.9,7.9,0,0,1,1235,469a5.78,5.78,0,0,1-2.8,2.42,12.14,12.14,0,0,1-4.84.82H1220Z"/><path class="a" d="M1285.23,453.07a21.26,21.26,0,0,0-20.63,0,18.84,18.84,0,0,0-7.2,7.73,29.06,29.06,0,0,0,0,24.25,18.91,18.91,0,0,0,7.2,7.73,21.16,21.16,0,0,0,20.63,0,18.86,18.86,0,0,0,7.19-7.72,29.11,29.11,0,0,0,0-24.27A18.89,18.89,0,0,0,1285.23,453.07Zm.3,28.29a11.73,11.73,0,0,1-4.3,5.21,12.17,12.17,0,0,1-12.64,0,11.65,11.65,0,0,1-4.29-5.21,23.56,23.56,0,0,1,0-16.86,11.68,11.68,0,0,1,4.29-5.2,12.17,12.17,0,0,1,12.64,0,11.76,11.76,0,0,1,4.3,5.2,23.7,23.7,0,0,1,0,16.86Z"/><polygon class="a" points="1344.82 483.26 1344.43 483.26 1335.97 451 1328.19 451 1319.76 483.24 1319.35 483.24 1311.44 451 1302.89 451 1315.28 494.87 1323.12 494.87 1331.92 464.08 1332.27 464.08 1341.05 494.87 1348.89 494.87 1361.27 451 1352.72 451 1344.82 483.26"/><polygon class="a" points="1388.87 457.66 1402.43 457.66 1402.43 494.87 1410.32 494.87 1410.32 457.66 1423.88 457.66 1423.88 451 1388.87 451 1388.87 457.66"/><path class="a" d="M1462.58,453.07a21.26,21.26,0,0,0-20.63,0,19,19,0,0,0-7.2,7.73,29.16,29.16,0,0,0,0,24.25,19,19,0,0,0,7.2,7.73,21.16,21.16,0,0,0,20.63,0,18.82,18.82,0,0,0,7.2-7.72,29.11,29.11,0,0,0,0-24.27A18.84,18.84,0,0,0,1462.58,453.07Zm.3,28.29a11.65,11.65,0,0,1-4.29,5.21,12.17,12.17,0,0,1-12.64,0,11.73,11.73,0,0,1-4.3-5.21,23.7,23.7,0,0,1,0-16.86,11.76,11.76,0,0,1,4.3-5.2,12.17,12.17,0,0,1,12.64,0,11.68,11.68,0,0,1,4.29,5.2,23.56,23.56,0,0,1,0,16.86Z"/><path class="a" d="M1504.54,478.12h10.11a11.15,11.15,0,0,1-1.32,5.28,9.11,9.11,0,0,1-3.78,3.65,12.32,12.32,0,0,1-5.8,1.29,11.29,11.29,0,0,1-10.82-7,20.39,20.39,0,0,1-1.56-8.42,20.07,20.07,0,0,1,1.57-8.37,11.86,11.86,0,0,1,4.34-5.21,11.34,11.34,0,0,1,6.3-1.78,12.76,12.76,0,0,1,3.64.5,9.53,9.53,0,0,1,3,1.49,10.07,10.07,0,0,1,2.23,2.37,11.48,11.48,0,0,1,1.46,3.12h8.1a16.32,16.32,0,0,0-2.08-5.92,16.79,16.79,0,0,0-4-4.62,18.24,18.24,0,0,0-5.61-3,21.05,21.05,0,0,0-6.79-1.06,20.51,20.51,0,0,0-8,1.53,18.17,18.17,0,0,0-6.38,4.45,20.46,20.46,0,0,0-4.23,7.11,27.67,27.67,0,0,0-1.51,9.49,26.14,26.14,0,0,0,2.56,12,18.55,18.55,0,0,0,7.13,7.78,22.07,22.07,0,0,0,20.28.51,16.35,16.35,0,0,0,6.6-6.33,19,19,0,0,0,2.4-9.74v-5.27h-17.81Z"/><polygon class="a" points="1542.51 476.23 1561.62 476.23 1561.62 469.57 1542.51 469.57 1542.51 457.66 1563.1 457.66 1563.1 451 1534.56 451 1534.56 494.87 1563.27 494.87 1563.27 488.21 1542.51 488.21 1542.51 476.23"/><polygon class="a" points="1573.81 457.66 1587.37 457.66 1587.37 494.87 1595.26 494.87 1595.26 457.66 1608.82 457.66 1608.82 451 1573.81 451 1573.81 457.66"/><polygon class="a" points="1648.35 469.57 1628.02 469.57 1628.02 451 1620.07 451 1620.07 494.87 1628.02 494.87 1628.02 476.23 1648.35 476.23 1648.35 494.87 1656.32 494.87 1656.32 451 1648.35 451 1648.35 469.57"/><polygon class="a" points="1677.42 476.23 1696.53 476.23 1696.53 469.57 1677.42 469.57 1677.42 457.66 1698.01 457.66 1698.01 451 1669.47 451 1669.47 494.87 1698.18 494.87 1698.18 488.21 1677.42 488.21 1677.42 476.23"/><path class="a" d="M1735.31,494.87h8.87l-9.5-17.38c.29-.11.57-.24.84-.37a11.78,11.78,0,0,0,5.26-4.78,14.37,14.37,0,0,0,1.79-7.31,14.82,14.82,0,0,0-1.77-7.36,12,12,0,0,0-5.2-4.92,18.57,18.57,0,0,0-8.5-1.75h-16.45v43.87h7.95V478.8h8.09Zm-16.71-37.23h7.28a11.7,11.7,0,0,1,4.87.87,5.9,5.9,0,0,1,2.8,2.52,8.07,8.07,0,0,1,.92,4,7.8,7.8,0,0,1-.91,3.93,5.75,5.75,0,0,1-2.79,2.42,12.18,12.18,0,0,1-4.84.82h-7.33Z"/><path class="a" d="M571.87,134.4h21.44a79.24,79.24,0,0,0,27.87-4.76,66.72,66.72,0,0,0,22.27-13.51,61.72,61.72,0,0,0,14.82-20.88,66.43,66.43,0,0,0,5.32-27,66,66,0,0,0-5.32-26.84A61.91,61.91,0,0,0,643.45,20.5,66.69,66.69,0,0,0,621.09,7a80.62,80.62,0,0,0-28.15-4.75H538.51V134.4h33.36ZM592.75,30.94q11.19,0,19.39,4.29a30.42,30.42,0,0,1,12.77,12.58q4.56,8.3,4.57,20.23,0,12.12-4.48,20.6a29.42,29.42,0,0,1-12.77,12.76,41.85,41.85,0,0,1-19.48,4.29H571.87V30.94Z"/><path class="a" d="M735.91,2.24,684.65,134.4h34.11l8.15-23.12h49.14l8,23.12h34.86L768.16,2.24Zm.32,82.57L751.78,40.7,767,84.81Z"/><path class="a" d="M899.85,106.34q-4.56,2.89-13,2.89a39.81,39.81,0,0,1-17.71-3.82,51.43,51.43,0,0,1-14.73-11.09L833.4,115.57a63.44,63.44,0,0,0,22.28,15.85q12.2,5,28.79,5,25,0,38.87-10.81t13.89-30.57q0-10.06-3.36-17.15A34.55,34.55,0,0,0,925,66.17a52.41,52.41,0,0,0-12-7.64,138.18,138.18,0,0,0-13.15-5.22q-6.61-2.23-12.11-4.38A32,32,0,0,1,878.88,44a9,9,0,0,1-3.35-7.27,7.68,7.68,0,0,1,3.91-6.9q3.91-2.41,10.81-2.42a30.45,30.45,0,0,1,13.42,3,45.28,45.28,0,0,1,12.12,9L937,18.27A53.3,53.3,0,0,0,917.1,4.85,70.66,70.66,0,0,0,890.63,0q-14.36,0-25.17,4.85a39.16,39.16,0,0,0-16.87,13.79q-6.06,9-6.06,21.62,0,9.89,3.36,16.59A33.56,33.56,0,0,0,854.74,68a57.79,57.79,0,0,0,12.12,7.55,117,117,0,0,0,13.23,5.22c4.41,1.43,8.46,2.92,12.12,4.47a31,31,0,0,1,8.86,5.41,10.06,10.06,0,0,1,3.35,7.73A8.92,8.92,0,0,1,899.85,106.34Z"/><path class="a" d="M1046.34,111.28l8,23.12h34.86L1038.45,2.24H1006.2L954.94,134.4h34.11l8.14-23.12Zm-39.82-26.47,15.54-44.11,15.17,44.11Z"/><polygon class="a" points="1278.91 2.23 1238.27 2.23 1193.53 61.25 1193.53 2.23 1160.17 2.23 1160.17 134.4 1193.53 134.4 1193.53 69.8 1240.32 134.4 1280.96 134.4 1228.75 65.24 1278.91 2.23"/><path class="a" d="M1384.6,76a39.1,39.1,0,0,0,16.31-13.79,36.38,36.38,0,0,0,5.87-20.6A36.36,36.36,0,0,0,1401,21.06a39.7,39.7,0,0,0-15.93-13.79q-10.17-5-23.58-5h-56.3V134.4h33.37V80.9h2l36.25,53.5h38.59l-40.49-55.11A47.86,47.86,0,0,0,1384.6,76ZM1356.83,27q8.19,0,12.58,4.19a14.43,14.43,0,0,1,4.38,10.91q0,6.9-4.38,10.9t-12.58,4h-18.27V27Z"/><polygon class="a" points="1473.52 80.71 1531.49 80.71 1531.49 53.31 1473.52 53.31 1473.52 30.38 1537.08 30.38 1537.08 2.23 1473.52 2.23 1466.62 2.23 1440.15 2.23 1440.15 134.4 1466.62 134.4 1473.52 134.4 1538.2 134.4 1538.2 106.25 1473.52 106.25 1473.52 80.71"/><path class="a" d="M1612.58,2.24,1561.32,134.4h34.11l8.14-23.12h49.15l8,23.12h34.86L1644.83,2.24Zm.32,82.57,15.54-44.11,15.17,44.11Z"/><polygon class="a" points="1699.63 30.94 1740.08 30.94 1740.08 134.4 1773.45 134.4 1773.45 30.94 1813.9 30.94 1813.9 2.23 1699.63 2.23 1699.63 30.94"/><rect class="a" x="1842.98" y="2.24" width="33.37" height="132.16"/><polygon class="a" points="1969.41 87.31 1939.72 2.23 1904.12 2.23 1953.89 134.4 1984.08 134.4 2034.41 2.23 1999.56 2.23 1969.41 87.31"/><path class="a" d="M2135.44,134.4h34.86L2119.6,2.24h-32.25L2036.09,134.4h34.11l8.15-23.12h49.14Zm-47.77-49.59,15.55-44.11,15.17,44.11Z"/><path class="a" d="M598.9,308.88l35.6.88a34.5,34.5,0,0,1-2,4.71A27.42,27.42,0,0,1,621,326.4q-7.54,4.1-18.36,4.1a37.09,37.09,0,0,1-19.11-4.85,34.33,34.33,0,0,1-13-13.61,41.91,41.91,0,0,1-4.76-20.31,39,39,0,0,1,5-20.14,35.62,35.62,0,0,1,13.51-13.32,38.77,38.77,0,0,1,19.29-4.76,41.16,41.16,0,0,1,18.64,4,46.32,46.32,0,0,1,14.73,12l22.37-22.36A60.5,60.5,0,0,0,636,229.93a79.62,79.62,0,0,0-32.06-6.24,76.66,76.66,0,0,0-28.06,5.12,71.46,71.46,0,0,0-23,14.36A65.28,65.28,0,0,0,532,291.91a67.71,67.71,0,0,0,5.32,26.94,66.38,66.38,0,0,0,14.91,21.71A68,68,0,0,0,574.58,355a74.06,74.06,0,0,0,27.87,5.13q20.13,0,35.32-8.48a59,59,0,0,0,23.77-24.89q8.57-16.39,8.57-40.08v-5H598.9Z"/><path class="a" d="M779.34,299.65a39.14,39.14,0,0,0,16.32-13.8,39.16,39.16,0,0,0,.09-41.1A39.8,39.8,0,0,0,779.81,231q-10.15-5-23.58-5H699.94V358.09H733.3v-53.5h2l36.26,53.5H810.1L769.62,303A48.17,48.17,0,0,0,779.34,299.65Zm-27.77-48.93q8.2,0,12.58,4.19a14.43,14.43,0,0,1,4.38,10.91q0,6.89-4.38,10.9t-12.58,4H733.3v-30Z"/><path class="a" d="M949.35,243.08A67,67,0,0,0,927,228.63a79.8,79.8,0,0,0-56.3,0,66.9,66.9,0,0,0-42.5,63.1,67.88,67.88,0,0,0,5.41,27.12,67,67,0,0,0,15,21.9,69.23,69.23,0,0,0,22.46,14.54,78.39,78.39,0,0,0,56,.09,66.4,66.4,0,0,0,22.28-14.54,70.15,70.15,0,0,0,14.82-76A67.11,67.11,0,0,0,949.35,243.08Zm-18.46,69.15a32.74,32.74,0,0,1-12.67,13.61,37.44,37.44,0,0,1-19.39,4.85,40,40,0,0,1-15.1-2.71,32.29,32.29,0,0,1-11.56-7.83,34,34,0,0,1-7.36-12.3,48.43,48.43,0,0,1-2.52-16.12,44.11,44.11,0,0,1,4.48-20.32,32.1,32.1,0,0,1,12.67-13.52,38.09,38.09,0,0,1,19.39-4.75,38.81,38.81,0,0,1,15.1,2.8,33.39,33.39,0,0,1,11.56,7.92,34.27,34.27,0,0,1,7.36,12.21,46.43,46.43,0,0,1,2.51,15.66A44.53,44.53,0,0,1,930.89,312.23Z"/><path class="a" d="M1077.41,307.94a23.35,23.35,0,0,1-3,12.12,20.33,20.33,0,0,1-8,7.74,24.48,24.48,0,0,1-11.74,2.7,25.72,25.72,0,0,1-11.84-2.7,20.36,20.36,0,0,1-8.39-7.83,23.31,23.31,0,0,1-3.08-12.21V225.92H998.18v79.41a56.35,56.35,0,0,0,7.09,28.34,49.94,49.94,0,0,0,19.85,19.48q12.77,7,29.55,7,16.95,0,29.54-7a50.43,50.43,0,0,0,19.67-19.39,55.89,55.89,0,0,0,7.08-28.24v-79.6h-33.55Z"/><path class="a" d="M1227.46,231.05a50.49,50.49,0,0,0-22.93-5.13h-58.34V358.09h33.37V310.74h25a51.36,51.36,0,0,0,22.93-5,38.85,38.85,0,0,0,16.22-14.64q6-9.58,6-22.64,0-13.42-6-22.84A40,40,0,0,0,1227.46,231.05ZM1214,278.12a15.34,15.34,0,0,1-6.43,5.87,20,20,0,0,1-8.85,2h-19.2V250.72h19.2a19.94,19.94,0,0,1,8.85,1.95,15.26,15.26,0,0,1,6.43,6,18.53,18.53,0,0,1,2.42,9.79A18,18,0,0,1,1214,278.12Z"/></svg>