<svg xmlns="http://www.w3.org/2000/svg" viewBox="0 0 360 360"><rect width="360" height="360" style="fill:none"/><path d="M286.36,212.92l-18,18a54.43,54.43,0,0,1-77,0l-53.71-53.7,34.57-34.58a5.4,5.4,0,0,1,7.62,0l49.9,49.9c1.15,1.15,2.33,2.26,3.54,3.31a70.21,70.21,0,0,0,46.47,17.41C282,213.22,284.19,213.12,286.36,212.92Z" style="fill:#1d1d1b"/><path d="M249.67,112.35,226.1,88.78,214.57,77.25h0a48.89,48.89,0,0,0-69.14,0l-3.92,3.92L41.7,181h0a48.91,48.91,0,0,0,69.15,0l58.5-58.5a9.51,9.51,0,0,1,13.46,0l4.8,4.79,23.56,23.57L241.31,181a54.44,54.44,0,0,0,77,0h0Z" style="fill:#1d1d1b"/><path d="M236.45,262.83l-18,17.95a54.42,54.42,0,0,1-77,0L72.16,211.43a65,65,0,0,0,50.22-18.93l3.8-3.8,53.71,53.71c1.14,1.14,2.33,2.25,3.54,3.31a70.19,70.19,0,0,0,46.47,17.41C232.1,263.12,234.29,263,236.45,262.83Z" style="fill:#1d1d1b"/></svg>