<svg xmlns="http://www.w3.org/2000/svg" viewBox="0 0 900.89 233.8"><path d="M244.66,150l-18,18a54.45,54.45,0,0,1-77,0L96,114.24l34.57-34.57a5.4,5.4,0,0,1,7.62,0l49.9,49.9q1.72,1.73,3.54,3.31a70.21,70.21,0,0,0,46.47,17.41C240.31,150.29,242.49,150.19,244.66,150Z" style="fill:#f9762d"/><path d="M208,49.41,184.4,25.85,172.87,14.32h0a48.91,48.91,0,0,0-69.15,0l-3.91,3.92L0,118.05H0a48.91,48.91,0,0,0,69.15,0l58.5-58.51a9.53,9.53,0,0,1,13.46,0l4.8,4.8,23.56,23.57,30.14,30.14a54.44,54.44,0,0,0,77,0h0Z" style="fill:#ff3131"/><path d="M194.75,199.89l-18,18a54.42,54.42,0,0,1-77,0L30.46,148.5a65,65,0,0,0,50.22-18.93l3.8-3.8,53.71,53.7c1.14,1.15,2.33,2.26,3.54,3.31a70.19,70.19,0,0,0,46.47,17.41C190.4,200.19,192.59,200.09,194.75,199.89Z" style="fill:#5b2ed8"/><path d="M331.42,36.21q1.88,3.43,4.33,8.47t5.1,10.92q2.67,5.88,5.27,12T351,79.15l4.9-11.54q2.59-6.13,5.26-12t5.11-10.92q2.44-5,4.33-8.47h14.76q1,7.17,1.93,16.06t1.55,18.51q.69,9.61,1.25,19.29t1,18.2H375.3q-.32-10.51-.84-22.88t-1.56-25q-1.87,4.37-4.17,9.67t-4.53,10.6Q362,86,359.87,90.85c-1.39,3.22-2.58,6-3.55,8.27H345q-1.47-3.44-3.55-8.27t-4.33-10.14c-1.49-3.53-3-7.07-4.53-10.6s-2.93-6.76-4.18-9.67q-1,12.57-1.56,25T326,108.27h-15.8q.41-8.53,1-18.2t1.24-19.29q.68-9.61,1.56-18.51t1.93-16.06Z" style="fill:#5b2ed8"/><path d="M453.89,108.27q-1.2-3.76-2.58-7.72t-2.76-7.88H420.41c-.91,2.63-1.83,5.26-2.74,7.9s-1.76,5.21-2.55,7.7H398.27q4.08-11.65,7.72-21.53t7.14-18.61q3.5-8.73,6.89-16.58t7-15.34h15.37q3.56,7.49,7,15.34t6.95,16.58q3.5,8.73,7.16,18.61t7.73,21.53ZM434.41,52.53c-.37,1-.9,2.48-1.59,4.28s-1.49,3.88-2.38,6.24-1.89,5-3,7.8-2.22,5.81-3.35,8.93h20.6q-1.65-4.69-3.2-9c-1-2.85-2-5.45-2.95-7.81l-2.45-6.24C435.4,55,434.84,53.56,434.41,52.53Z" style="fill:#5b2ed8"/><path d="M480.52,108.27V36.21h48.24V49.83h-32V64.91h28.49V78.53H496.74v29.74Z" style="fill:#5b2ed8"/><path d="M540.2,36.21h16.22v72.06H540.2Z" style="fill:#5b2ed8"/><path d="M621.39,108.27q-1.2-3.76-2.58-7.72t-2.76-7.88H587.91q-1.36,3.94-2.74,7.9t-2.55,7.7H565.78q4.07-11.65,7.71-21.53t7.15-18.61q3.5-8.73,6.88-16.58t7-15.34h15.38q3.54,7.49,7,15.34t6.94,16.58q3.5,8.73,7.16,18.61t7.73,21.53ZM601.91,52.53c-.37,1-.89,2.48-1.59,4.28s-1.49,3.88-2.38,6.24-1.89,5-3,7.8-2.22,5.81-3.35,8.93h20.6q-1.65-4.69-3.2-9c-1-2.85-2-5.45-3-7.81s-1.74-4.44-2.44-6.24S602.34,53.56,601.91,52.53Z" style="fill:#5b2ed8"/><path d="M310.21,196.13v-72h48.66V137.7H326.43v14.14h28.8v13.31h-28.8v17.36h34.83v13.62Z" style="fill:#ff3131"/><path d="M436.33,160.05a42.18,42.18,0,0,1-2.91,16.33,30.26,30.26,0,0,1-8.27,11.54,35.18,35.18,0,0,1-13,6.86,60.66,60.66,0,0,1-17.26,2.29q-4.36,0-10.19-.37a83.09,83.09,0,0,1-11.43-1.5V125a95.6,95.6,0,0,1,11.69-1.4q6.09-.36,10.45-.36a62.91,62.91,0,0,1,16.79,2.08,34.3,34.3,0,0,1,13,6.55,29.15,29.15,0,0,1,8.32,11.43A43.39,43.39,0,0,1,436.33,160.05Zm-46.89,22.88c.76.07,1.64.12,2.65.15s2.2.06,3.58.06q12.16,0,18-6.14t5.88-16.95q0-11.33-5.62-17.15t-17.78-5.83c-1.11,0-2.25,0-3.43.06a30.65,30.65,0,0,0-3.32.26Z" style="fill:#ff3131"/><path d="M478,197.59a36.33,36.33,0,0,1-13.1-2.13,24.51,24.51,0,0,1-9.1-5.93,23.71,23.71,0,0,1-5.3-9.05,37.25,37.25,0,0,1-1.71-11.59V124.08H465v43.46a24.69,24.69,0,0,0,1,7.43,13.57,13.57,0,0,0,2.71,5,9.53,9.53,0,0,0,4.16,2.76,16.36,16.36,0,0,0,5.35.83,13.1,13.1,0,0,0,9.62-3.64q3.69-3.63,3.69-12.37V124.08h16.22v44.81A36.64,36.64,0,0,1,506,180.54a23.92,23.92,0,0,1-5.4,9.09,24.3,24.3,0,0,1-9.26,5.88A38.47,38.47,0,0,1,478,197.59Z" style="fill:#ff3131"/><path d="M556.21,197.59q-17.57,0-26.77-9.78t-9.2-27.76a42.73,42.73,0,0,1,2.8-16,34.44,34.44,0,0,1,7.7-11.85,32.21,32.21,0,0,1,11.64-7.33,42.1,42.1,0,0,1,14.66-2.5,47,47,0,0,1,8.32.68,53.39,53.39,0,0,1,6.55,1.56,33.07,33.07,0,0,1,4.68,1.82c1.25.62,2.15,1.11,2.7,1.45L574.62,141a39.27,39.27,0,0,0-7.75-3,37,37,0,0,0-10-1.25,22.18,22.18,0,0,0-7.33,1.25,16.62,16.62,0,0,0-6.35,4,20.08,20.08,0,0,0-4.42,7.12,29.92,29.92,0,0,0-1.66,10.61,37.79,37.79,0,0,0,1.09,9.31,19.79,19.79,0,0,0,3.54,7.43,16.88,16.88,0,0,0,6.39,4.94,22.82,22.82,0,0,0,9.57,1.82,43.19,43.19,0,0,0,6.34-.42,45.52,45.52,0,0,0,5-1,26.58,26.58,0,0,0,3.85-1.3c1.11-.49,2.11-.94,3-1.36l4.47,13a37.42,37.42,0,0,1-9.67,3.74A56.21,56.21,0,0,1,556.21,197.59Z" style="fill:#ff3131"/><path d="M642,196.13q-1.2-3.75-2.58-7.71t-2.76-7.88H608.5c-.91,2.62-1.83,5.26-2.74,7.9s-1.76,5.21-2.55,7.69H586.36q4.08-11.64,7.72-21.52T601.22,156q3.49-8.75,6.89-16.59t7-15.33h15.37q3.56,7.49,7,15.33t7,16.59q3.49,8.73,7.15,18.61t7.73,21.52ZM622.5,140.4c-.37,1-.9,2.47-1.59,4.27s-1.49,3.89-2.38,6.25-1.89,5-3,7.79-2.22,5.82-3.35,8.93h20.6q-1.65-4.68-3.2-8.95c-1-2.85-2-5.45-3-7.82l-2.45-6.24C623.49,142.83,622.93,141.42,622.5,140.4Z" style="fill:#ff3131"/><path d="M713.53,124.08v13.83H691.8v58.22H675.58V137.91H653.84V124.08Z" style="fill:#ff3131"/><path d="M723.92,124.08h16.22v72.05H723.92Z" style="fill:#ff3131"/><path d="M825.4,160.05a44.44,44.44,0,0,1-2.75,16.27,33.45,33.45,0,0,1-7.54,11.75,30.92,30.92,0,0,1-11.39,7.13,41.44,41.44,0,0,1-14.19,2.39,40.41,40.41,0,0,1-13.93-2.39,32.05,32.05,0,0,1-11.44-7.13,33.2,33.2,0,0,1-7.69-11.75,43.59,43.59,0,0,1-2.81-16.27,42.22,42.22,0,0,1,2.91-16.27,34.69,34.69,0,0,1,7.85-11.8,32.2,32.2,0,0,1,11.44-7.17,39.13,39.13,0,0,1,13.67-2.4,40.14,40.14,0,0,1,13.93,2.4A31.6,31.6,0,0,1,814.9,132a33.94,33.94,0,0,1,7.7,11.8A43.63,43.63,0,0,1,825.4,160.05Zm-55,0a32.63,32.63,0,0,0,1.3,9.57,21.86,21.86,0,0,0,3.74,7.33,16.61,16.61,0,0,0,6,4.73,20.52,20.52,0,0,0,16.17,0,16.53,16.53,0,0,0,6-4.73,21.68,21.68,0,0,0,3.74-7.33,32.63,32.63,0,0,0,1.3-9.57,33.1,33.1,0,0,0-1.3-9.61,21.71,21.71,0,0,0-3.74-7.39,16.53,16.53,0,0,0-6-4.73,18.92,18.92,0,0,0-8.06-1.66,18.41,18.41,0,0,0-8.11,1.71,17.1,17.1,0,0,0-6,4.79,21.74,21.74,0,0,0-3.74,7.38A32.79,32.79,0,0,0,770.4,160.05Z" style="fill:#ff3131"/><path d="M887.27,196.13q-7-12.37-15.08-24.43a247.24,247.24,0,0,0-17.26-22.77v47.2h-16v-72h13.2q3.43,3.42,7.59,8.42t8.48,10.66q4.3,5.67,8.58,11.75t8,11.69V124.08h16.12v72.05Z" style="fill:#ff3131"/></svg>